<svg width="47" height="41" viewBox="0 0 47 41" fill="none" xmlns="http://www.w3.org/2000/svg">
<g id="Group 285">
<path id="Vector" d="M43.6895 0.815032H11.2343C10.8603 0.815032 10.5571 1.11816 10.5571 1.49227C10.5571 1.86638 10.8603 2.16951 11.2343 2.16951H43.6894C44.6672 2.16951 45.4626 2.96504 45.4626 3.9428V25.7476H44.3239V15.4547C44.3239 15.0806 44.0206 14.7775 43.6466 14.7775C43.2726 14.7775 42.9694 15.0806 42.9694 15.4547V25.7475H10.6656V4.66275H42.9695V12.2943C42.9695 12.6684 43.2727 12.9715 43.6467 12.9715C44.0207 12.9715 44.324 12.6684 44.324 12.2943V3.98551C44.324 3.6114 44.0207 3.30827 43.6467 3.30827H3.75471C3.38069 3.30827 3.07747 3.6114 3.07747 3.98551V25.7475H1.93871V3.94271C1.93871 2.96495 2.73415 2.16942 3.71191 2.16942H8.07388C8.4479 2.16942 8.75112 1.86629 8.75112 1.49218C8.75112 1.11807 8.4479 0.814941 8.07388 0.814941H3.71191C1.98729 0.815032 0.584229 2.21809 0.584229 3.94271V28.9608C0.584229 30.6855 1.98729 32.0886 3.71191 32.0886H9.43378C9.8078 32.0886 10.111 31.7854 10.111 31.4113C10.111 31.0372 9.8078 30.7341 9.43378 30.7341H3.71191C2.73415 30.7341 1.93871 29.9385 1.93871 28.9608V27.102H45.4627V28.9608C45.4627 29.9385 44.6673 30.7341 43.6895 30.7341C39.8668 30.7341 16.2745 30.7341 12.5942 30.7341C12.2202 30.7341 11.917 31.0372 11.917 31.4113C11.917 31.7854 12.2202 32.0886 12.5942 32.0886H20.2235L18.2664 36.9671H17.5578C16.4473 36.9671 15.5438 37.8707 15.5438 38.9812V40.0432C15.5438 40.4687 15.89 40.8149 16.3155 40.8149H31.086C31.5116 40.8149 31.8578 40.4687 31.8578 40.0432V38.9812C31.8578 37.8707 30.9543 36.9671 29.8437 36.9671H29.135L27.1779 32.0886H43.6894C45.414 32.0886 46.8171 30.6855 46.8171 28.9608V3.94271C46.8172 2.21809 45.4141 0.815032 43.6895 0.815032ZM4.43195 4.66275H9.31115V25.7475H4.43195V4.66275ZM30.5032 38.9812V39.4605H16.8982V38.9812C16.8982 38.6175 17.1941 38.3216 17.5578 38.3216H29.8437C30.2074 38.3216 30.5032 38.6174 30.5032 38.9812ZM27.6756 36.9671H19.7258L21.6828 32.0886H25.7185L27.6756 36.9671Z" fill="white"/>
<path id="Vector_2" d="M26.1939 29.5952C26.5679 29.5952 26.8711 29.2921 26.8711 28.918C26.8711 28.5439 26.5679 28.2407 26.1939 28.2407H21.2074C20.8334 28.2407 20.5302 28.5439 20.5302 28.918C20.5302 29.2921 20.8334 29.5952 21.2074 29.5952H26.1939Z" fill="white"/>
<path id="Vector_3" d="M6.24865 7.1577H7.49522C7.86924 7.1577 8.17247 6.85457 8.17247 6.48046C8.17247 6.10636 7.86924 5.80322 7.49522 5.80322H6.24865C5.87463 5.80322 5.57141 6.10636 5.57141 6.48046C5.57141 6.85457 5.87463 7.1577 6.24865 7.1577Z" fill="white"/>
<path id="Vector_4" d="M7.49519 14.5288H6.24862C5.8746 14.5288 5.57138 14.8319 5.57138 15.206C5.57138 15.5802 5.8746 15.8833 6.24862 15.8833H7.49519C7.86921 15.8833 8.17243 15.5802 8.17243 15.206C8.17243 14.8319 7.86921 14.5288 7.49519 14.5288Z" fill="white"/>
<path id="Vector_5" d="M7.49522 23.2549H6.24865C5.87463 23.2549 5.57141 23.558 5.57141 23.9321C5.57141 24.3062 5.87463 24.6094 6.24865 24.6094H7.49522C7.86924 24.6094 8.17247 24.3062 8.17247 23.9321C8.17247 23.558 7.86924 23.2549 7.49522 23.2549Z" fill="white"/>
<path id="Vector_6" d="M31.1801 7.1577C31.5542 7.1577 31.8574 6.85457 31.8574 6.48046C31.8574 6.10636 31.5542 5.80322 31.1801 5.80322H27.4404C27.0664 5.80322 26.7632 6.10636 26.7632 6.48046C26.7632 6.85457 27.0664 7.1577 27.4404 7.1577H31.1801Z" fill="white"/>
<path id="Vector_7" d="M25.6247 6.48046C25.6247 6.10636 25.3214 5.80322 24.9474 5.80322H12.4817C12.1077 5.80322 11.8044 6.10636 11.8044 6.48046C11.8044 6.85457 12.1077 7.1577 12.4817 7.1577H24.9474C25.3214 7.1577 25.6247 6.85457 25.6247 6.48046Z" fill="white"/>
<path id="Vector_8" d="M12.4817 9.65086H18.7146C19.0886 9.65086 19.3918 9.34773 19.3918 8.97363C19.3918 8.59952 19.0886 8.29639 18.7146 8.29639H12.4817C12.1077 8.29639 11.8044 8.59952 11.8044 8.97363C11.8044 9.34773 12.1077 9.65086 12.4817 9.65086Z" fill="white"/>
<path id="Vector_9" d="M21.2894 9.66405C21.6635 9.66405 21.9667 9.36084 21.9667 8.98681C21.9667 8.61278 21.6635 8.30957 21.2894 8.30957C20.9154 8.30957 20.6122 8.61278 20.6122 8.98681C20.6122 9.36084 20.9154 9.66405 21.2894 9.66405Z" fill="white"/>
<path id="Vector_10" d="M24.9473 18.2681C24.5732 18.2681 24.27 18.5712 24.27 18.9453C24.27 19.3194 24.5732 19.6225 24.9473 19.6225H27.4404C27.8144 19.6225 28.1177 19.3194 28.1177 18.9453C28.1177 18.5712 27.8144 18.2681 27.4404 18.2681H24.9473Z" fill="white"/>
<path id="Vector_11" d="M23.1315 18.9453C23.1315 18.5712 22.8283 18.2681 22.4543 18.2681H12.4817C12.1077 18.2681 11.8044 18.5712 11.8044 18.9453C11.8044 19.3194 12.1077 19.6225 12.4817 19.6225H22.4543C22.8283 19.6225 23.1315 19.3193 23.1315 18.9453Z" fill="white"/>
<path id="Vector_12" d="M12.4817 20.7612C12.1077 20.7612 11.8044 21.0644 11.8044 21.4385C11.8044 21.8126 12.1077 22.1157 12.4817 22.1157H18.7146C19.0886 22.1157 19.3918 21.8126 19.3918 21.4385C19.3918 21.0644 19.0886 20.7612 18.7146 20.7612H12.4817Z" fill="white"/>
<path id="Vector_13" d="M21.2894 22.1299C21.6635 22.1299 21.9667 21.8267 21.9667 21.4526C21.9667 21.0786 21.6635 20.7754 21.2894 20.7754C20.9154 20.7754 20.6122 21.0786 20.6122 21.4526C20.6122 21.8267 20.9154 22.1299 21.2894 22.1299Z" fill="white"/>
<path id="Vector_14" d="M31.8574 13.9595C31.8574 13.5854 31.5542 13.2822 31.1801 13.2822H18.7144C18.3404 13.2822 18.0372 13.5854 18.0372 13.9595C18.0372 14.3336 18.3404 14.6367 18.7144 14.6367H31.1801C31.5542 14.6367 31.8574 14.3336 31.8574 13.9595Z" fill="white"/>
<path id="Vector_15" d="M12.4817 14.6367H16.2214C16.5954 14.6367 16.8986 14.3336 16.8986 13.9595C16.8986 13.5854 16.5954 13.2822 16.2214 13.2822H12.4817C12.1077 13.2822 11.8044 13.5854 11.8044 13.9595C11.8044 14.3336 12.1077 14.6367 12.4817 14.6367Z" fill="white"/>
<path id="Vector_16" d="M12.4817 17.1299H18.7146C19.0886 17.1299 19.3918 16.8267 19.3918 16.4526C19.3918 16.0785 19.0886 15.7754 18.7146 15.7754H12.4817C12.1077 15.7754 11.8044 16.0785 11.8044 16.4526C11.8044 16.8267 12.1077 17.1299 12.4817 17.1299Z" fill="white"/>
<path id="Vector_17" d="M21.2894 17.1435C21.6635 17.1435 21.9667 16.8403 21.9667 16.4663C21.9667 16.0923 21.6635 15.7891 21.2894 15.7891C20.9154 15.7891 20.6122 16.0923 20.6122 16.4663C20.6122 16.8403 20.9154 17.1435 21.2894 17.1435Z" fill="white"/>
<path id="Vector_18" d="M12.4817 12.1445H28.6872C29.0612 12.1445 29.3644 11.8414 29.3644 11.4673C29.3644 11.0932 29.0612 10.79 28.6872 10.79H12.4817C12.1077 10.79 11.8044 11.0932 11.8044 11.4673C11.8044 11.8414 12.1077 12.1445 12.4817 12.1445Z" fill="white"/>
<path id="Vector_19" d="M34.3506 11.4673C34.3506 11.0932 34.0473 10.79 33.6733 10.79H31.1802C30.8062 10.79 30.5029 11.0932 30.5029 11.4673C30.5029 11.8414 30.8062 12.1445 31.1802 12.1445H33.6733C34.0473 12.1445 34.3506 11.8413 34.3506 11.4673Z" fill="white"/>
<path id="Vector_20" d="M32.1863 18.4295V17.1299H32.7556C33.1296 17.1299 33.4328 16.8267 33.4328 16.4526C33.4328 16.0785 33.1296 15.7754 32.7556 15.7754H31.509C31.135 15.7754 30.8318 16.0785 30.8318 16.4526V18.1489L29.5869 19.3937C29.1467 19.8341 29.1467 20.5507 29.587 20.991L30.8317 22.2356V23.932C30.8317 24.3061 31.1349 24.6092 31.5089 24.6092H32.7555C33.1295 24.6092 33.4327 24.3061 33.4327 23.932C33.4327 23.5579 33.1295 23.2547 32.7555 23.2547H32.1862V21.9551C32.1862 21.7755 32.1148 21.6033 31.9878 21.4761L30.7037 20.1922L31.9878 18.9081C32.1149 18.7813 32.1863 18.6091 32.1863 18.4295Z" fill="white"/>
<path id="Vector_21" d="M38.9 21.9551V23.2547H38.3306C37.9566 23.2547 37.6534 23.5579 37.6534 23.932C37.6534 24.3061 37.9566 24.6092 38.3306 24.6092H39.5772C39.9512 24.6092 40.2544 24.3061 40.2544 23.932V22.2356L41.819 20.6712C42.0833 20.4068 42.0835 19.9779 41.819 19.7134L40.2544 18.1489V16.4526C40.2544 16.0785 39.9512 15.7754 39.5772 15.7754H38.3306C37.9566 15.7754 37.6534 16.0785 37.6534 16.4526C37.6534 16.8267 37.9566 17.1299 38.3306 17.1299H38.9V18.4295C38.9 18.6091 38.9713 18.7813 39.0983 18.9084L40.3824 20.1924L39.0983 21.4764C38.9713 21.6032 38.9 21.7755 38.9 21.9551Z" fill="white"/>
<path id="Vector_22" d="M34.7556 23.3416C35.1183 23.4322 35.4861 23.2119 35.5769 22.8488L36.8234 17.8625C36.9142 17.4996 36.6936 17.1319 36.3307 17.0412C35.9684 16.9511 35.6001 17.1711 35.5094 17.5339L34.2628 22.5202C34.1721 22.8831 34.3928 23.2508 34.7556 23.3416Z" fill="white"/>
</g>
</svg>
