<svg width="49" height="48" viewBox="0 0 49 48" fill="none" xmlns="http://www.w3.org/2000/svg">
<g id="Group 284">
<path id="Vector" d="M37.7434 5.23836C38.1591 5.23836 38.4961 4.90136 38.4961 4.48564C38.4961 4.06992 38.1591 3.73291 37.7434 3.73291C37.3277 3.73291 36.9907 4.06992 36.9907 4.48564C36.9907 4.90136 37.3277 5.23836 37.7434 5.23836Z" fill="white"/>
<path id="Vector_2" d="M34.7323 5.23836C35.1481 5.23836 35.4851 4.90136 35.4851 4.48564C35.4851 4.06992 35.1481 3.73291 34.7323 3.73291C34.3166 3.73291 33.9796 4.06992 33.9796 4.48564C33.9796 4.90136 34.3166 5.23836 34.7323 5.23836Z" fill="white"/>
<path id="Vector_3" d="M31.7214 5.23836C32.1371 5.23836 32.4741 4.90136 32.4741 4.48564C32.4741 4.06992 32.1371 3.73291 31.7214 3.73291C31.3056 3.73291 30.9686 4.06992 30.9686 4.48564C30.9686 4.90136 31.3056 5.23836 31.7214 5.23836Z" fill="white"/>
<path id="Vector_4" d="M47.3411 22.508C46.9553 22.508 46.6425 22.8207 46.6425 23.2066V45.2286C46.6425 45.8809 46.1118 46.4116 45.4595 46.4116H26.6399C25.9877 46.4116 25.4569 45.8809 25.4569 45.2286V34.8763C25.4569 34.4903 25.1442 34.1776 24.7583 34.1776C24.3725 34.1776 24.0597 34.4903 24.0597 34.8763V36.0611H2.92822C2.2759 36.0611 1.74524 35.5304 1.74524 34.8781V14.9603C1.74524 14.5744 1.43245 14.2617 1.04663 14.2617C0.660813 14.2617 0.348022 14.5744 0.348022 14.9603V34.8781C0.348022 36.3008 1.50548 37.4583 2.92822 37.4583H24.0597V45.2287C24.0597 46.6513 25.2172 47.8089 26.6399 47.8089H45.4595C46.8822 47.8089 48.0397 46.6513 48.0397 45.2287V23.2067C48.0397 22.8208 47.7269 22.508 47.3411 22.508Z" fill="white"/>
<path id="Vector_5" d="M48.0397 12.295C48.0397 10.8721 46.882 9.71448 45.4592 9.71448H42.2058V3.4501C42.2058 2.02727 41.0482 0.869629 39.6253 0.869629H2.9285C1.50566 0.869629 0.348022 2.02718 0.348022 3.4501V11.6997C0.348022 12.0856 0.660813 12.3983 1.04663 12.3983C1.43245 12.3983 1.74524 12.0856 1.74524 11.6997V8.1006H40.8086V9.71439H26.6403C25.2175 9.71439 24.0598 10.872 24.0598 12.2949L24.0597 31.6158C24.0597 32.0017 24.3725 32.3144 24.7583 32.3144C25.1442 32.3144 25.4569 32.0017 25.4569 31.6158V16.9459H46.6425V19.9462C46.6425 20.3321 46.9553 20.6448 47.3411 20.6448C47.7269 20.6448 48.0397 20.3321 48.0397 19.9462V12.295ZM2.9285 2.26685H39.6253C40.2778 2.26685 40.8086 2.7976 40.8086 3.4501V6.70338H1.74524V3.4501C1.74524 2.7976 2.27609 2.26685 2.9285 2.26685ZM25.457 12.295C25.457 11.6425 25.9879 11.1117 26.6403 11.1117H45.4592C46.1116 11.1117 46.6425 11.6425 46.6425 12.295V15.5483H25.457V12.295Z" fill="white"/>
<path id="Vector_6" d="M43.5774 14.0826C43.9932 14.0826 44.3302 13.7456 44.3302 13.3299C44.3302 12.9142 43.9932 12.5771 43.5774 12.5771C43.1617 12.5771 42.8247 12.9142 42.8247 13.3299C42.8247 13.7456 43.1617 14.0826 43.5774 14.0826Z" fill="white"/>
<path id="Vector_7" d="M40.5663 14.0826C40.982 14.0826 41.3191 13.7456 41.3191 13.3299C41.3191 12.9142 40.982 12.5771 40.5663 12.5771C40.1506 12.5771 39.8136 12.9142 39.8136 13.3299C39.8136 13.7456 40.1506 14.0826 40.5663 14.0826Z" fill="white"/>
<path id="Vector_8" d="M37.5552 14.0826C37.9709 14.0826 38.3079 13.7456 38.3079 13.3299C38.3079 12.9142 37.9709 12.5771 37.5552 12.5771C37.1395 12.5771 36.8025 12.9142 36.8025 13.3299C36.8025 13.7456 37.1395 14.0826 37.5552 14.0826Z" fill="white"/>
<path id="Vector_9" d="M4.05774 22.402H21.7475C22.1333 22.402 22.4461 22.0893 22.4461 21.7034V10.412C22.4461 10.0261 22.1333 9.71338 21.7475 9.71338H4.05774C3.67192 9.71338 3.35913 10.0261 3.35913 10.412V21.7034C3.35913 22.0893 3.67192 22.402 4.05774 22.402ZM21.0489 20.4286L14.2012 16.0577L21.0489 11.6867V20.4286ZM19.3546 21.0048H6.45071L12.9026 16.8865L19.3546 21.0048ZM12.9027 15.2289L6.4508 11.1107H19.3547L12.9027 15.2289ZM11.6042 16.0577L4.75635 20.4286V11.6867L11.6042 16.0577Z" fill="white"/>
<path id="Vector_10" d="M3.35913 27.7267C3.35913 28.1126 3.67192 28.4253 4.05774 28.4253H21.7475C22.1333 28.4253 22.4461 28.1126 22.4461 27.7267V24.7157C22.4461 24.3298 22.1333 24.0171 21.7475 24.0171H4.05774C3.67192 24.0171 3.35913 24.3298 3.35913 24.7157V27.7267ZM4.75635 25.4143H21.0489V27.0281H4.75635V25.4143Z" fill="white"/>
<path id="Vector_11" d="M4.05774 34.4465H12.5263C12.9121 34.4465 13.2249 34.1338 13.2249 33.7479C13.2249 33.362 12.9121 33.0493 12.5263 33.0493H4.05774C3.67192 33.0493 3.35913 33.362 3.35913 33.7479C3.35913 34.1338 3.67192 34.4465 4.05774 34.4465Z" fill="white"/>
<path id="Vector_12" d="M4.05774 31.4373H16.29C16.6758 31.4373 16.9886 31.1246 16.9886 30.7386C16.9886 30.3527 16.6758 30.04 16.29 30.04H4.05774C3.67192 30.04 3.35913 30.3527 3.35913 30.7386C3.35913 31.1246 3.67192 31.4373 4.05774 31.4373Z" fill="white"/>
<path id="Vector_13" d="M27.7695 31.2472H44.3301C44.7159 31.2472 45.0287 30.9345 45.0287 30.5486V19.2572C45.0287 18.8713 44.7159 18.5586 44.3301 18.5586H27.7695C27.3837 18.5586 27.0709 18.8713 27.0709 19.2572V30.5486C27.0709 30.9345 27.3837 31.2472 27.7695 31.2472ZM43.6315 29.2268L37.2899 24.903L43.6315 20.5792V29.2268ZM42.0654 29.85H30.0342L36.0498 25.7484L42.0654 29.85ZM36.0498 24.0575L30.0343 19.9559H42.0655L36.0498 24.0575ZM34.8098 24.903L28.4682 29.2268V20.5792L34.8098 24.903Z" fill="white"/>
<path id="Vector_14" d="M27.0709 36.5714C27.0709 36.9573 27.3837 37.27 27.7695 37.27H44.3301C44.7159 37.27 45.0287 36.9573 45.0287 36.5714V33.5604C45.0287 33.1745 44.7159 32.8618 44.3301 32.8618H27.7695C27.3837 32.8618 27.0709 33.1745 27.0709 33.5604V36.5714ZM28.4681 34.259H43.6315V35.8728H28.4681V34.259Z" fill="white"/>
<path id="Vector_15" d="M27.7695 43.2922H34.356C34.7419 43.2922 35.0547 42.9795 35.0547 42.5936C35.0547 42.2077 34.7419 41.895 34.356 41.895H27.7695C27.3837 41.895 27.0709 42.2077 27.0709 42.5936C27.0709 42.9795 27.3837 43.2922 27.7695 43.2922Z" fill="white"/>
<path id="Vector_16" d="M27.7695 40.281H38.1199C38.5057 40.281 38.8185 39.9683 38.8185 39.5824C38.8185 39.1965 38.5057 38.8838 38.1199 38.8838H27.7695C27.3837 38.8838 27.0709 39.1965 27.0709 39.5824C27.0709 39.9683 27.3837 40.281 27.7695 40.281Z" fill="white"/>
</g>
</svg>
