<svg width="47" height="47" viewBox="0 0 47 47" fill="none" xmlns="http://www.w3.org/2000/svg">
<g id="Vector">
<mask id="path-1-inside-1_295_167" fill="white">
<path d="M44.2842 12.3149H37.3842V3.11494C37.3824 2.5055 37.1395 1.92155 36.7086 1.49061C36.2776 1.05967 35.6937 0.816762 35.0842 0.814941H12.0842C11.4748 0.816762 10.8908 1.05967 10.4599 1.49061C10.029 1.92155 9.78605 2.5055 9.78423 3.11494V17.6816H2.88423C2.27479 17.6834 1.69083 17.9263 1.25989 18.3573C0.828954 18.7882 0.586049 19.3722 0.584229 19.9816V29.1816C0.586049 29.791 0.828954 30.375 1.25989 30.8059C1.69083 31.2369 2.27479 31.4798 2.88423 31.4816H9.78423V44.5149C9.78605 45.1244 10.029 45.7083 10.4599 46.1393C10.8908 46.5702 11.4748 46.8131 12.0842 46.8149H35.0842C35.6937 46.8131 36.2776 46.5702 36.7086 46.1393C37.1395 45.7083 37.3824 45.1244 37.3842 44.5149V26.1149H44.2842C44.8937 26.1131 45.4776 25.8702 45.9086 25.4393C46.3395 25.0083 46.5824 24.4244 46.5842 23.8149V14.6149C46.5824 14.0055 46.3395 13.4215 45.9086 12.9906C45.4776 12.5597 44.8937 12.3168 44.2842 12.3149ZM15.9176 2.34827H31.2509V3.11494C31.2509 3.31827 31.1701 3.51328 31.0263 3.65706C30.8826 3.80083 30.6876 3.88161 30.4842 3.88161H16.6842C16.4809 3.88161 16.2859 3.80083 16.1421 3.65706C15.9983 3.51328 15.9176 3.31827 15.9176 3.11494V2.34827ZM11.3176 3.11494C11.3176 2.91161 11.3983 2.7166 11.5421 2.57283C11.6859 2.42905 11.8809 2.34827 12.0842 2.34827H14.3842V3.11494C14.386 3.72438 14.629 4.30834 15.0599 4.73928C15.4908 5.17022 16.0748 5.41312 16.6842 5.41494H30.4842C31.0937 5.41312 31.6776 5.17022 32.1086 4.73928C32.5395 4.30834 32.7824 3.72438 32.7842 3.11494V2.34827H35.0842C35.2876 2.34827 35.4826 2.42905 35.6263 2.57283C35.7701 2.7166 35.8509 2.91161 35.8509 3.11494V12.3149H34.3176V9.24827C34.3157 8.63884 34.0728 8.05488 33.6419 7.62394C33.211 7.193 32.627 6.95009 32.0176 6.94827H15.1509C14.5415 6.95009 13.9575 7.193 13.5266 7.62394C13.0956 8.05488 12.8527 8.63884 12.8509 9.24827V17.6816H11.3176V3.11494ZM28.9509 26.1149H29.5719L28.2302 29.6799C28.1735 29.8373 28.169 30.0088 28.2173 30.169C28.2656 30.3292 28.3643 30.4695 28.4986 30.5693C28.6298 30.6651 28.7884 30.7162 28.9509 30.7149C29.1242 30.7164 29.2926 30.6567 29.4262 30.5463L32.7842 27.8629V41.4483C32.7842 41.6516 32.7035 41.8466 32.5597 41.9904C32.4159 42.1342 32.2209 42.2149 32.0176 42.2149H15.1509C14.9476 42.2149 14.7526 42.1342 14.6088 41.9904C14.465 41.8466 14.3842 41.6516 14.3842 41.4483V33.2296L17.7422 35.9129C17.8759 36.0233 18.0442 36.0831 18.2176 36.0816C18.3801 36.0828 18.5386 36.0318 18.6699 35.9359C18.8042 35.8362 18.9028 35.6958 18.9511 35.5357C18.9995 35.3755 18.9949 35.204 18.9382 35.0466L17.5966 31.4816H18.2176C18.827 31.4798 19.411 31.2369 19.8419 30.8059C20.2728 30.375 20.5157 29.791 20.5176 29.1816V19.9816C20.5157 19.3722 20.2728 18.7882 19.8419 18.3573C19.411 17.9263 18.827 17.6834 18.2176 17.6816H14.3842V9.24827C14.3842 9.04494 14.465 8.84994 14.6088 8.70616C14.7526 8.56238 14.9476 8.48161 15.1509 8.48161H32.0176C32.2209 8.48161 32.4159 8.56238 32.5597 8.70616C32.7035 8.84994 32.7842 9.04494 32.7842 9.24827V12.3149H28.9509C28.3415 12.3168 27.7575 12.5597 27.3266 12.9906C26.8956 13.4215 26.6527 14.0055 26.6509 14.6149V23.8149C26.6527 24.4244 26.8956 25.0083 27.3266 25.4393C27.7575 25.8702 28.3415 26.1131 28.9509 26.1149ZM2.88423 29.9483C2.6809 29.9483 2.48589 29.8675 2.34211 29.7237C2.19834 29.5799 2.11756 29.3849 2.11756 29.1816V19.9816C2.11756 19.7783 2.19834 19.5833 2.34211 19.4395C2.48589 19.2957 2.6809 19.2149 2.88423 19.2149H18.2176C18.4209 19.2149 18.6159 19.2957 18.7597 19.4395C18.9035 19.5833 18.9842 19.7783 18.9842 19.9816V29.1816C18.9842 29.3849 18.9035 29.5799 18.7597 29.7237C18.6159 29.8675 18.4209 29.9483 18.2176 29.9483H16.4926C16.3689 29.9488 16.2471 29.979 16.1376 30.0365C16.028 30.094 15.9339 30.177 15.8633 30.2785C15.7926 30.38 15.7474 30.497 15.7315 30.6197C15.7156 30.7424 15.7294 30.8671 15.7719 30.9833L16.5232 32.9766L12.9429 30.1169C12.8087 30.0075 12.6407 29.9479 12.4676 29.9483H2.88423ZM35.8509 44.5149C35.8509 44.7183 35.7701 44.9133 35.6263 45.0571C35.4826 45.2008 35.2876 45.2816 35.0842 45.2816H12.0842C11.8809 45.2816 11.6859 45.2008 11.5421 45.0571C11.3983 44.9133 11.3176 44.7183 11.3176 44.5149V31.4816H12.1992L12.8509 32.0029V41.4483C12.8527 42.0577 13.0956 42.6417 13.5266 43.0726C13.9575 43.5035 14.5415 43.7465 15.1509 43.7483H32.0176C32.627 43.7465 33.211 43.5035 33.6419 43.0726C34.0728 42.6417 34.3157 42.0577 34.3176 41.4483V26.6363L34.9692 26.1149H35.8509V44.5149ZM45.0509 23.8149C45.0509 24.0183 44.9701 24.2133 44.8263 24.3571C44.6826 24.5008 44.4876 24.5816 44.2842 24.5816H34.7009C34.5277 24.5812 34.3597 24.6408 34.2256 24.7503L30.6452 27.6099L31.3966 25.6166C31.439 25.5004 31.4529 25.3757 31.437 25.2531C31.4211 25.1304 31.3759 25.0133 31.3052 24.9118C31.2345 24.8103 31.1404 24.7273 31.0309 24.6698C30.9214 24.6123 30.7996 24.5821 30.6759 24.5816H28.9509C28.7476 24.5816 28.5526 24.5008 28.4088 24.3571C28.265 24.2133 28.1842 24.0183 28.1842 23.8149V14.6149C28.1842 14.4116 28.265 14.2166 28.4088 14.0728C28.5526 13.929 28.7476 13.8483 28.9509 13.8483H44.2842C44.4876 13.8483 44.6826 13.929 44.8263 14.0728C44.9701 14.2166 45.0509 14.4116 45.0509 14.6149V23.8149Z"/>
</mask>
<path d="M44.2842 12.3149H37.3842V3.11494C37.3824 2.5055 37.1395 1.92155 36.7086 1.49061C36.2776 1.05967 35.6937 0.816762 35.0842 0.814941H12.0842C11.4748 0.816762 10.8908 1.05967 10.4599 1.49061C10.029 1.92155 9.78605 2.5055 9.78423 3.11494V17.6816H2.88423C2.27479 17.6834 1.69083 17.9263 1.25989 18.3573C0.828954 18.7882 0.586049 19.3722 0.584229 19.9816V29.1816C0.586049 29.791 0.828954 30.375 1.25989 30.8059C1.69083 31.2369 2.27479 31.4798 2.88423 31.4816H9.78423V44.5149C9.78605 45.1244 10.029 45.7083 10.4599 46.1393C10.8908 46.5702 11.4748 46.8131 12.0842 46.8149H35.0842C35.6937 46.8131 36.2776 46.5702 36.7086 46.1393C37.1395 45.7083 37.3824 45.1244 37.3842 44.5149V26.1149H44.2842C44.8937 26.1131 45.4776 25.8702 45.9086 25.4393C46.3395 25.0083 46.5824 24.4244 46.5842 23.8149V14.6149C46.5824 14.0055 46.3395 13.4215 45.9086 12.9906C45.4776 12.5597 44.8937 12.3168 44.2842 12.3149ZM15.9176 2.34827H31.2509V3.11494C31.2509 3.31827 31.1701 3.51328 31.0263 3.65706C30.8826 3.80083 30.6876 3.88161 30.4842 3.88161H16.6842C16.4809 3.88161 16.2859 3.80083 16.1421 3.65706C15.9983 3.51328 15.9176 3.31827 15.9176 3.11494V2.34827ZM11.3176 3.11494C11.3176 2.91161 11.3983 2.7166 11.5421 2.57283C11.6859 2.42905 11.8809 2.34827 12.0842 2.34827H14.3842V3.11494C14.386 3.72438 14.629 4.30834 15.0599 4.73928C15.4908 5.17022 16.0748 5.41312 16.6842 5.41494H30.4842C31.0937 5.41312 31.6776 5.17022 32.1086 4.73928C32.5395 4.30834 32.7824 3.72438 32.7842 3.11494V2.34827H35.0842C35.2876 2.34827 35.4826 2.42905 35.6263 2.57283C35.7701 2.7166 35.8509 2.91161 35.8509 3.11494V12.3149H34.3176V9.24827C34.3157 8.63884 34.0728 8.05488 33.6419 7.62394C33.211 7.193 32.627 6.95009 32.0176 6.94827H15.1509C14.5415 6.95009 13.9575 7.193 13.5266 7.62394C13.0956 8.05488 12.8527 8.63884 12.8509 9.24827V17.6816H11.3176V3.11494ZM28.9509 26.1149H29.5719L28.2302 29.6799C28.1735 29.8373 28.169 30.0088 28.2173 30.169C28.2656 30.3292 28.3643 30.4695 28.4986 30.5693C28.6298 30.6651 28.7884 30.7162 28.9509 30.7149C29.1242 30.7164 29.2926 30.6567 29.4262 30.5463L32.7842 27.8629V41.4483C32.7842 41.6516 32.7035 41.8466 32.5597 41.9904C32.4159 42.1342 32.2209 42.2149 32.0176 42.2149H15.1509C14.9476 42.2149 14.7526 42.1342 14.6088 41.9904C14.465 41.8466 14.3842 41.6516 14.3842 41.4483V33.2296L17.7422 35.9129C17.8759 36.0233 18.0442 36.0831 18.2176 36.0816C18.3801 36.0828 18.5386 36.0318 18.6699 35.9359C18.8042 35.8362 18.9028 35.6958 18.9511 35.5357C18.9995 35.3755 18.9949 35.204 18.9382 35.0466L17.5966 31.4816H18.2176C18.827 31.4798 19.411 31.2369 19.8419 30.8059C20.2728 30.375 20.5157 29.791 20.5176 29.1816V19.9816C20.5157 19.3722 20.2728 18.7882 19.8419 18.3573C19.411 17.9263 18.827 17.6834 18.2176 17.6816H14.3842V9.24827C14.3842 9.04494 14.465 8.84994 14.6088 8.70616C14.7526 8.56238 14.9476 8.48161 15.1509 8.48161H32.0176C32.2209 8.48161 32.4159 8.56238 32.5597 8.70616C32.7035 8.84994 32.7842 9.04494 32.7842 9.24827V12.3149H28.9509C28.3415 12.3168 27.7575 12.5597 27.3266 12.9906C26.8956 13.4215 26.6527 14.0055 26.6509 14.6149V23.8149C26.6527 24.4244 26.8956 25.0083 27.3266 25.4393C27.7575 25.8702 28.3415 26.1131 28.9509 26.1149ZM2.88423 29.9483C2.6809 29.9483 2.48589 29.8675 2.34211 29.7237C2.19834 29.5799 2.11756 29.3849 2.11756 29.1816V19.9816C2.11756 19.7783 2.19834 19.5833 2.34211 19.4395C2.48589 19.2957 2.6809 19.2149 2.88423 19.2149H18.2176C18.4209 19.2149 18.6159 19.2957 18.7597 19.4395C18.9035 19.5833 18.9842 19.7783 18.9842 19.9816V29.1816C18.9842 29.3849 18.9035 29.5799 18.7597 29.7237C18.6159 29.8675 18.4209 29.9483 18.2176 29.9483H16.4926C16.3689 29.9488 16.2471 29.979 16.1376 30.0365C16.028 30.094 15.9339 30.177 15.8633 30.2785C15.7926 30.38 15.7474 30.497 15.7315 30.6197C15.7156 30.7424 15.7294 30.8671 15.7719 30.9833L16.5232 32.9766L12.9429 30.1169C12.8087 30.0075 12.6407 29.9479 12.4676 29.9483H2.88423ZM35.8509 44.5149C35.8509 44.7183 35.7701 44.9133 35.6263 45.0571C35.4826 45.2008 35.2876 45.2816 35.0842 45.2816H12.0842C11.8809 45.2816 11.6859 45.2008 11.5421 45.0571C11.3983 44.9133 11.3176 44.7183 11.3176 44.5149V31.4816H12.1992L12.8509 32.0029V41.4483C12.8527 42.0577 13.0956 42.6417 13.5266 43.0726C13.9575 43.5035 14.5415 43.7465 15.1509 43.7483H32.0176C32.627 43.7465 33.211 43.5035 33.6419 43.0726C34.0728 42.6417 34.3157 42.0577 34.3176 41.4483V26.6363L34.9692 26.1149H35.8509V44.5149ZM45.0509 23.8149C45.0509 24.0183 44.9701 24.2133 44.8263 24.3571C44.6826 24.5008 44.4876 24.5816 44.2842 24.5816H34.7009C34.5277 24.5812 34.3597 24.6408 34.2256 24.7503L30.6452 27.6099L31.3966 25.6166C31.439 25.5004 31.4529 25.3757 31.437 25.2531C31.4211 25.1304 31.3759 25.0133 31.3052 24.9118C31.2345 24.8103 31.1404 24.7273 31.0309 24.6698C30.9214 24.6123 30.7996 24.5821 30.6759 24.5816H28.9509C28.7476 24.5816 28.5526 24.5008 28.4088 24.3571C28.265 24.2133 28.1842 24.0183 28.1842 23.8149V14.6149C28.1842 14.4116 28.265 14.2166 28.4088 14.0728C28.5526 13.929 28.7476 13.8483 28.9509 13.8483H44.2842C44.4876 13.8483 44.6826 13.929 44.8263 14.0728C44.9701 14.2166 45.0509 14.4116 45.0509 14.6149V23.8149Z" fill="white" stroke="white" stroke-width="70" mask="url(#path-1-inside-1_295_167)"/>
</g>
</svg>
