<svg width="46" height="41" viewBox="0 0 46 41" fill="none" xmlns="http://www.w3.org/2000/svg">
<g id="Group 283">
<path id="Vector" d="M27.8307 15.105C23.5659 15.105 20.0963 18.5746 20.0963 22.8394C20.0963 27.1041 23.5659 30.5737 27.8307 30.5737C32.0954 30.5737 35.5651 27.1041 35.5651 22.8394C35.5651 18.5746 32.0954 15.105 27.8307 15.105ZM27.8307 28.8159C24.5351 28.8159 21.8541 26.1349 21.8541 22.8394C21.8541 19.5438 24.5351 16.8628 27.8307 16.8628C31.1262 16.8628 33.8073 19.5438 33.8073 22.8394C33.8073 26.1349 31.1262 28.8159 27.8307 28.8159Z" fill="white"/>
<path id="Vector_2" d="M27.8307 18.8848C27.3452 18.8848 26.9518 19.2782 26.9518 19.7637C26.9518 20.2491 27.3452 20.6426 27.8307 20.6426C29.0419 20.6426 30.0276 21.6283 30.0276 22.8395C30.0276 23.325 30.4211 23.7184 30.9065 23.7184C31.392 23.7184 31.7854 23.325 31.7854 22.8395C31.7854 20.6587 30.0115 18.8848 27.8307 18.8848Z" fill="white"/>
<path id="Vector_3" d="M6.00218 6.96681C5.77902 6.53594 5.24893 6.36737 4.81772 6.59018C4.3865 6.81334 4.21793 7.34378 4.44109 7.77499L6.80693 12.3453C6.96005 12.6413 7.26973 12.8222 7.60069 12.8201C7.93372 12.815 8.2355 12.622 8.37969 12.3216L9.81204 9.33951L11.3676 12.3453C11.519 12.6371 11.8201 12.8201 12.1483 12.8201H12.1614C12.4948 12.815 12.7962 12.622 12.9407 12.3216L15.1356 7.7513C15.3457 7.31391 15.1613 6.78862 14.724 6.57851C14.2862 6.3684 13.7613 6.55276 13.5512 6.9905L12.1188 9.9726L10.5629 6.96681C10.4098 6.67086 10.1008 6.48925 9.76946 6.49199C9.4361 6.49714 9.13432 6.69009 8.99012 6.9905L7.55812 9.9726L6.00218 6.96681Z" fill="white"/>
<path id="Vector_4" d="M11.6574 2.09717C11.8888 2.09717 12.1154 2.0031 12.2788 1.83968C12.4426 1.67625 12.5363 1.44932 12.5363 1.21826C12.5363 0.987206 12.4426 0.760269 12.2788 0.596848C12.1154 0.433426 11.8888 0.339355 11.6574 0.339355C11.4264 0.339355 11.1998 0.433426 11.0363 0.596848C10.8726 0.760269 10.7785 0.987206 10.7785 1.21826C10.7785 1.44932 10.8726 1.67625 11.0363 1.83968C11.1998 2.0031 11.4264 2.09717 11.6574 2.09717Z" fill="white"/>
<path id="Vector_5" d="M45.5842 15.4565V3.85498C45.5842 1.91658 44.007 0.339355 42.0686 0.339355H15.3488C14.8637 0.339355 14.4699 0.732803 14.4699 1.21826C14.4699 1.70372 14.8637 2.09717 15.3488 2.09717H42.0686C43.0378 2.09717 43.8264 2.88578 43.8264 3.85498V15.4565C43.8264 16.4257 43.0378 17.2144 42.0686 17.2144H37.8499C37.8244 17.2144 37.7997 17.2161 37.775 17.2181C36.4185 14.8279 34.2257 12.9726 31.5969 12.0522L32.8998 9.33956L34.4558 12.345C34.6068 12.6372 34.9079 12.8198 35.2361 12.8198H35.2495C35.5826 12.8147 35.8843 12.6217 36.0285 12.3213L38.2234 7.75101C38.4335 7.31361 38.2491 6.78867 37.8117 6.57856C37.3744 6.3681 36.8491 6.55247 36.639 6.9902L35.207 9.97231L33.651 6.96651C33.4979 6.67057 33.1892 6.48895 32.8573 6.49204C32.5239 6.49685 32.2225 6.6898 32.0783 6.9902L30.6459 9.97231L29.0903 6.96651C28.8672 6.53564 28.3367 6.36707 27.9055 6.59023C27.4743 6.81339 27.3061 7.34348 27.5289 7.7747L29.4742 11.5324C28.9375 11.4548 28.3889 11.4136 27.831 11.4136C26.7506 11.4136 25.7045 11.5646 24.713 11.8462L26.6798 7.75101C26.89 7.31361 26.7056 6.78867 26.2679 6.57856C25.8305 6.3681 25.3052 6.55247 25.0954 6.9902L23.6631 9.97231L22.1071 6.96651C21.954 6.67057 21.6467 6.48895 21.3134 6.49204C20.9803 6.49685 20.6786 6.6898 20.5344 6.9902L19.1024 9.97231L17.5464 6.96651C17.3233 6.53564 16.7932 6.36707 16.362 6.59023C15.9308 6.81339 15.7622 7.34348 15.9853 7.7747L18.3512 12.345C18.5043 12.641 18.8126 12.8219 19.1449 12.8198C19.478 12.8147 19.7797 12.6217 19.9239 12.3213L21.3563 9.33956L22.9119 12.345C22.938 12.3955 22.9699 12.4411 23.0046 12.4847C20.8492 13.4934 19.0584 15.1551 17.8887 17.2144H4.09985C3.13065 17.2144 2.34204 16.4257 2.34204 15.4565V3.85498C2.34204 2.88578 3.13065 2.09717 4.09985 2.09717H7.70268C8.18814 2.09717 8.58159 1.70372 8.58159 1.21826C8.58159 0.732803 8.18814 0.339355 7.70268 0.339355H4.09985C2.16145 0.339355 0.584229 1.91658 0.584229 3.85498V15.4565C0.584229 17.3953 2.16145 18.9722 4.09985 18.9722H17.0792C16.6432 20.1807 16.4049 21.4825 16.4049 22.8394C16.4049 29.1397 21.5303 34.2651 27.8307 34.2651C29.9009 34.2651 31.8445 33.7117 33.5209 32.7449L40.4965 39.7205C41.0774 40.3014 41.8406 40.5919 42.6038 40.5919C43.3671 40.5919 44.1303 40.3014 44.7112 39.7205C45.8733 38.5584 45.8733 36.6677 44.7112 35.5056L41.9704 32.7648C41.6271 32.4218 41.0706 32.4215 40.7276 32.7648C40.3843 33.1081 40.3843 33.6643 40.7276 34.0076L43.4683 36.7487C43.9449 37.2253 43.9449 38.0008 43.4683 38.4777C42.9918 38.9542 42.2162 38.9542 41.7397 38.4777L34.9951 31.7328C37.592 29.6368 39.2564 26.4291 39.2564 22.8394C39.2564 21.4825 39.0182 20.1807 38.5822 18.9722H42.0686C44.0073 18.9722 45.5842 17.3949 45.5842 15.4565ZM27.8307 32.5073C22.4999 32.5073 18.1627 28.1701 18.1627 22.8394C18.1627 17.5086 22.4999 13.1714 27.8307 13.1714C33.1614 13.1714 37.4986 17.5086 37.4986 22.8394C37.4986 28.1701 33.1618 32.5073 27.8307 32.5073Z" fill="white"/>
<path id="Vector_6" d="M38.6425 30.6803C38.4791 30.8438 38.385 31.0704 38.385 31.3018C38.385 31.5328 38.4791 31.7594 38.6425 31.9232C38.807 32.0866 39.0329 32.1807 39.2639 32.1807C39.495 32.1807 39.7219 32.0866 39.8853 31.9232C40.0498 31.7594 40.1428 31.5328 40.1428 31.3018C40.1428 31.0704 40.0498 30.8438 39.8853 30.6803C39.7219 30.5169 39.496 30.4229 39.2639 30.4229C39.0329 30.4229 38.8059 30.5169 38.6425 30.6803Z" fill="white"/>
</g>
</svg>
