<svg width="60" height="60" viewBox="0 0 60 60" fill="none" xmlns="http://www.w3.org/2000/svg">
<path d="M59.5084 27.3693V28.1762C59.4176 28.3977 59.4176 28.6461 59.5084 28.8677V30.4813C59.4176 30.7029 59.4176 30.9513 59.5084 31.1729V32.2102C59.3699 32.9786 59.3976 33.7669 59.316 34.543C59.0851 36.736 58.4171 38.8152 57.5905 40.8438C56.4884 43.6114 54.9588 46.1896 53.0574 48.4846C50.7978 51.1755 48.2088 53.4914 45.1611 55.2833C42.2185 57.0321 38.9917 58.2524 35.627 58.8886C34.665 59.0699 33.6814 59.0423 32.7024 59.1237C32.5485 59.136 32.3946 59.0745 32.2576 59.1806H31.5649C31.3787 59.0638 31.1709 59.1498 30.9754 59.1222C30.7491 59.1514 30.5136 59.0592 30.2951 59.1806H29.6024C29.3808 59.0592 29.1406 59.1514 28.9097 59.1222C28.6804 59.1514 28.4403 59.0592 28.2171 59.1806H27.5306C26.7179 59.0515 25.8944 59.0684 25.0786 58.9885C23.1914 58.8025 21.3967 58.2478 19.6327 57.5931C17.0874 56.6598 14.6835 55.3798 12.4891 53.7896C10.0158 51.994 7.82803 49.8362 5.9996 47.3889C3.58411 44.1486 1.85573 40.4506 0.920093 36.5208C0.598391 35.19 0.547596 33.8346 0.458319 32.4807C0.449084 32.3516 0.499879 32.2117 0.401367 32.0949V31.1729C0.492209 30.9513 0.492209 30.7029 0.401367 30.4813V28.8677C0.492209 28.6461 0.492209 28.3977 0.401367 28.1762V27.1388C0.539899 26.3704 0.51835 25.5805 0.592234 24.8029C0.784639 22.819 1.38956 20.9379 2.08068 19.0861C3.31758 15.7892 5.15044 12.7472 7.48806 10.1114C9.8658 7.38371 12.7229 5.11295 15.9185 3.41103C18.7482 1.89118 21.8116 0.85245 24.9831 0.337485C26.0606 0.165366 27.1627 0.169977 28.2525 0.122337C33.1088 -0.0897383 37.8327 0.429691 42.2935 2.56427C45.2543 3.95235 47.9798 5.79357 50.3714 8.02136C52.9157 10.3976 55.0226 13.2012 56.5962 16.3046C57.865 18.7627 58.756 21.3976 59.239 24.1206C59.393 25.0427 59.4007 25.9878 59.4515 26.9237C59.4607 27.0774 59.4022 27.231 59.5084 27.3693Z" fill="#2D98D5"/>
<path d="M41.9703 20.1313C41.8596 21.1722 41.5426 22.3413 41.2871 23.5227C40.082 29.2349 38.8668 34.9453 37.6416 40.6539C37.6157 40.7712 37.5911 40.8871 37.5583 41.0017C37.1798 42.3659 36.2507 42.7083 35.0879 41.8652C33.0712 40.4029 31.0672 38.9255 29.0759 37.4331C28.7699 37.2053 28.5991 37.2066 28.3244 37.4822C27.409 38.4016 26.4621 39.2883 25.5275 40.1873C25.4291 40.2814 25.3348 40.3824 25.2283 40.4602C24.955 40.673 24.6175 40.9376 24.3114 40.7794C24.0655 40.6525 24.239 40.2514 24.2568 39.9745C24.3729 38.2584 24.5177 36.5423 24.6066 34.8234C24.609 34.6142 24.6574 34.408 24.7482 34.2194C24.8391 34.0309 24.9703 33.8645 25.1326 33.7321C28.8464 30.4153 32.5497 27.0854 36.2425 23.7423C36.3749 23.6348 36.4996 23.5181 36.6155 23.3931C36.759 23.2253 37.1142 23.0998 36.9434 22.8474C36.7726 22.595 36.4297 22.711 36.2001 22.8474C35.0496 23.5486 33.9087 24.2661 32.7665 24.9823C28.9835 27.3605 25.2032 29.741 21.4257 32.1237C21.2986 32.2196 21.1496 32.2824 20.9921 32.3062C20.8346 32.33 20.6737 32.3142 20.5239 32.2601C18.5604 31.6285 16.5874 31.0324 14.6212 30.4076C14.1334 30.2548 13.5445 30.1116 13.5076 29.5045C13.4707 28.8975 14.02 28.6424 14.4928 28.4569C16.8866 27.5101 19.2901 26.5907 21.6921 25.6644L39.6816 18.7331C39.8087 18.684 39.9358 18.6321 40.0642 18.5871C41.2242 18.1847 41.9853 18.7385 41.9703 20.1313Z" fill="white"/>
</svg>
