<svg width="61" height="62" viewBox="0 0 61 62" fill="none" xmlns="http://www.w3.org/2000/svg">
<path d="M60.2368 28.7074V29.6487C60.1447 29.875 60.1447 30.1285 60.2368 30.3548V31.7668C60.1447 31.993 60.1447 32.2466 60.2368 32.4728V33.6495C60.0979 34.434 60.1197 35.2184 60.0479 36.0029C59.8418 38.2496 59.1643 40.3755 58.3228 42.4355C57.1878 45.222 55.7219 47.828 53.7954 50.15C51.2303 53.2486 48.2516 55.853 44.7015 57.7734C42.2163 59.1327 39.5542 60.136 36.7925 60.7544C35.5779 61.0227 34.3399 61.0148 33.1112 61.1231C32.9785 61.1341 32.8364 61.0792 32.7178 61.1811H32.2494C32.2348 61.1644 32.2168 61.1511 32.1966 61.1419C32.1764 61.1328 32.1545 61.128 32.1324 61.128C32.1102 61.128 32.0883 61.1328 32.0681 61.1419C32.0479 61.1511 32.0299 61.1644 32.0153 61.1811H31.3127C31.0876 61.0885 30.8353 61.0885 30.6102 61.1811H29.9077C29.6425 61.087 29.3532 61.087 29.088 61.1811H28.5026C28.488 61.1644 28.4699 61.1511 28.4497 61.1419C28.4296 61.1328 28.4077 61.128 28.3855 61.128C28.3634 61.128 28.3415 61.1328 28.3213 61.1419C28.3011 61.1511 28.2831 61.1644 28.2684 61.1811H27.6861C26.9055 61.0415 26.1249 61.0588 25.3443 60.9913C23.4241 60.8344 21.5975 60.257 19.8115 59.5902C16.7081 58.4592 13.8175 56.8084 11.2624 54.7077C8.14007 52.1143 5.54382 49.0753 3.62044 45.4683C2.25769 42.933 1.26152 40.2155 0.661993 37.3977C0.421571 36.2555 0.440305 35.0851 0.349756 33.9256C0.338828 33.7939 0.393469 33.6511 0.291992 33.5318V32.9435C0.308604 32.9288 0.321909 32.9107 0.331022 32.8904C0.340135 32.8701 0.344848 32.8481 0.344848 32.8258C0.344848 32.8036 0.340135 32.7816 0.331022 32.7613C0.321909 32.741 0.308604 32.7229 0.291992 32.7082V30.2371C0.384129 30.0109 0.384129 29.7573 0.291992 29.5311V28.5897C0.432499 27.7315 0.435621 26.8639 0.498069 25.9978C0.590178 24.6941 0.938323 23.453 1.30832 22.2151C2.526 18.1061 4.61968 14.3128 7.44378 11.0992C9.9141 8.23445 12.9017 5.86549 16.2489 4.1175C19.0809 2.65212 22.0252 1.52406 25.1882 1.11613C27.5534 0.802347 29.942 0.833726 32.3306 0.920017C34.1713 0.984343 35.9932 1.10829 37.7823 1.58368C41.945 2.67764 45.8309 4.64284 49.1855 7.35061C52.5401 10.0584 55.2878 13.4476 57.2487 17.2965C58.4751 19.6866 59.3647 22.2365 59.8918 24.8729C60.1072 25.9853 60.1025 27.1259 60.179 28.2555C60.19 28.4046 60.1291 28.5677 60.2368 28.7074Z" fill="#6D479C"/>
<path d="M29.6143 12.2397C32.7947 12.1865 35.9719 12.4684 39.0938 13.0807C40.9173 13.44 42.4519 14.4127 43.8351 15.6271C45.5368 17.1207 46.9575 18.845 47.518 21.0885C48.2231 24.0264 48.506 27.0506 48.3579 30.0691C48.2705 31.771 48.0875 33.4666 47.8099 35.1477C47.3665 37.9922 45.8209 40.1542 43.729 42.0024C41.7822 43.7282 39.4857 44.5347 36.9394 44.8359C33.9731 45.1873 31.0069 45.4038 28.0109 45.236C27.8859 45.2284 27.761 45.2519 27.6471 45.3045C27.5333 45.357 27.4341 45.4369 27.3584 45.5372C26.1844 46.7688 25.001 47.9926 23.8301 49.2258C23.2993 49.7843 22.6967 50.0526 21.9395 49.7608C21.2604 49.5003 20.92 48.912 20.9169 48.0145C20.9169 46.9555 20.9029 45.8965 20.9169 44.8375C20.9169 44.4797 20.8404 44.2962 20.4689 44.155C17.3668 42.9798 15.0937 40.8304 13.5497 37.9028C12.8534 36.5802 12.6942 35.1038 12.4865 33.6557C11.8968 29.573 12.0475 25.4168 12.9315 21.3882C13.2687 19.8381 14.0571 18.517 15.0531 17.32C16.7423 15.2913 18.7562 13.6879 21.3697 13.1074C24.0799 12.5096 26.8401 12.2758 29.6143 12.2397Z" fill="white"/>
<path d="M22.2723 44.7527C22.2723 43.7721 22.2614 42.7915 22.2723 41.8125C22.2723 41.4391 22.1381 41.2979 21.7852 41.152C18.6816 39.8733 16.4772 37.7945 15.8699 34.3177C15.1537 30.2947 15.2248 26.1699 16.0791 22.1742C16.0881 22.1163 16.1011 22.0592 16.1181 22.0032C17.2297 19.0912 19.2327 17.0391 22.238 16.2781C24.892 15.6082 27.6303 15.4937 30.3686 15.4937C33.021 15.5027 35.6673 15.7495 38.276 16.2311C38.9079 16.3572 39.5135 16.5912 40.0667 16.923C41.2607 17.6329 42.3152 18.5565 43.1781 19.6482C44.1898 20.8798 44.5442 22.3436 44.7705 23.8686C45.3527 27.6343 45.2469 31.4751 44.4583 35.2026C44.0477 37.1088 42.7956 38.4362 41.3937 39.6584C40.0448 40.8351 38.4353 41.3104 36.6945 41.5411C34.2808 41.8828 31.8441 42.0339 29.4069 41.9929C29.2533 41.9899 29.1011 42.0225 28.9622 42.0884C28.8233 42.1543 28.7014 42.2515 28.606 42.3726C26.7878 44.2553 24.9664 46.138 23.1419 48.0208C22.9702 48.1981 22.8172 48.4538 22.5174 48.3502C22.188 48.2357 22.2895 47.9298 22.2879 47.6913C22.2676 46.7186 22.2723 45.738 22.2723 44.7527Z" fill="#6D479C"/>
<path d="M38.6717 35.4291C38.6112 35.6316 38.5398 35.8306 38.4578 36.0253C38.0555 36.8819 37.4159 37.6037 36.6156 38.1041C36.0146 38.4885 35.387 38.6282 34.6829 38.3442C31.0531 36.8835 27.7622 34.9255 25.1956 31.8927C23.2909 29.6413 21.9858 27.0479 20.9257 24.3164C20.7103 23.7594 20.8227 23.2338 21.0912 22.7333C21.6408 21.7104 22.4963 21.0075 23.5407 20.5619C24.0497 20.3423 24.5071 20.485 24.8646 20.8867C25.7666 21.889 26.5522 22.9912 27.2064 24.172C27.6123 24.9173 27.453 25.617 26.7973 26.1614C26.6022 26.3183 26.4039 26.4831 26.2088 26.6447C26.0096 26.7924 25.8662 27.0037 25.8021 27.2439C25.738 27.4842 25.757 27.7392 25.856 27.9673C26.763 30.4619 28.3382 32.3305 30.8517 33.3142C31.7635 33.6703 32.1819 33.5574 32.7829 32.787C33.6556 31.6684 34.2411 31.5633 35.4057 32.3399C36.3377 32.9484 37.2376 33.6051 38.1019 34.3073C38.2753 34.4386 38.4167 34.6079 38.5154 34.8022C38.6142 34.9966 38.6676 35.2109 38.6717 35.4291Z" fill="white"/>
<path d="M30.5475 19.4142C34.9984 19.5413 38.7983 23.1624 39.1574 27.6213C39.1949 28.0919 39.2355 28.5626 39.2761 29.0255C39.3073 29.3895 39.1793 29.6687 38.7937 29.6907C38.408 29.7127 38.2644 29.4051 38.2394 29.071C38.2017 28.3288 38.1241 27.5893 38.0068 26.8556C37.3995 23.5028 34.5191 20.8701 31.1267 20.5689C30.777 20.5375 30.4288 20.5014 30.0807 20.4575C29.7684 20.4183 29.4718 20.3006 29.489 19.9366C29.5062 19.5726 29.7716 19.4016 30.1384 19.4126C30.2758 19.4173 30.4117 19.4142 30.5475 19.4142Z" fill="#FEFEFF"/>
<path d="M36.9329 27.9653C36.9329 27.9481 36.9329 28.0469 36.9329 28.1442C36.9329 28.4799 36.7862 28.7341 36.4364 28.7514C36.0867 28.7686 35.9259 28.5176 35.8994 28.1865C35.8729 27.8555 35.8885 27.5182 35.8323 27.1934C35.3998 24.6831 33.7294 23.1409 31.1206 22.8271C30.9629 22.8215 30.8061 22.801 30.6523 22.7659C30.5349 22.7433 30.4305 22.6764 30.3605 22.579C30.2906 22.4816 30.2603 22.361 30.276 22.2419C30.2759 22.1779 30.2888 22.1145 30.3139 22.0557C30.339 21.9969 30.3757 21.9439 30.4219 21.8998C30.4681 21.8558 30.5227 21.8217 30.5824 21.7995C30.6422 21.7774 30.7058 21.7678 30.7694 21.7712C31.2978 21.7756 31.8232 21.8533 32.3305 22.0018C35.0751 22.7204 36.8673 25.0016 36.9329 27.9653Z" fill="#FEFEFE"/>
<path d="M34.6038 27.2966C34.6288 27.601 34.6038 27.9367 34.1886 27.9775C33.8014 28.0152 33.6531 27.7265 33.5875 27.3892C33.5529 27.0986 33.4939 26.8115 33.4111 26.531C33.0988 25.712 32.4869 25.315 31.6173 25.268C31.2738 25.2491 30.9257 25.1268 30.9725 24.678C31.0193 24.2293 31.3566 24.2074 31.7172 24.2325C33.3845 24.3297 34.5508 25.5519 34.6038 27.2966Z" fill="#FDFDFE"/>
</svg>
