<svg width="61" height="62" viewBox="0 0 61 62" fill="none" xmlns="http://www.w3.org/2000/svg">
<path d="M30.3079 61.181C47.0357 61.181 60.5963 47.6748 60.5963 31.0141C60.5963 14.3534 47.0357 0.847168 30.3079 0.847168C13.5801 0.847168 0.0195312 14.3534 0.0195312 31.0141C0.0195312 47.6748 13.5801 61.181 30.3079 61.181Z" fill="#54B848"/>
<path d="M30.2091 15.4404C37.6577 15.4503 44.1203 20.7032 45.592 27.8826C47.192 35.6834 42.5598 43.5252 34.8922 45.8615C30.3819 47.2354 26.0691 46.6452 22.023 44.222C21.8829 44.1258 21.7228 44.0623 21.5547 44.0361C21.3865 44.01 21.2146 44.022 21.0518 44.0711C19.5341 44.481 18.0081 44.8597 16.4871 45.2598C16.1381 45.3532 15.9669 45.3844 16.1118 44.9056C16.548 43.4547 16.9349 41.989 17.3546 40.5347C17.4136 40.3763 17.4332 40.206 17.4117 40.0384C17.3902 39.8708 17.3282 39.7109 17.2312 39.5723C15.2723 36.5786 14.4031 33.2848 14.711 29.7353C15.0534 25.8005 16.6764 22.428 19.5752 19.7048C22.5876 16.8799 26.186 15.5175 30.2091 15.4404Z" fill="#54B848"/>
<path d="M11.4409 49.7948C12.2755 46.8355 13.087 43.9533 13.9101 41.0792C13.9756 40.8871 13.9985 40.6831 13.9771 40.4812C13.9558 40.2794 13.8908 40.0846 13.7866 39.9103C9.47382 32.0406 11.4031 22.1495 18.3957 16.4948C22.4896 13.1797 27.2254 11.7042 32.4568 12.4026C39.9038 13.3863 45.1581 17.4408 47.866 24.4317C50.1607 30.3585 49.3985 36.1132 45.8907 41.4006C43.0742 45.6518 39.0461 48.3045 34.0387 49.3276C29.6749 50.2178 25.469 49.6129 21.5069 47.534C21.3799 47.4612 21.2395 47.4148 21.0941 47.3976C20.9487 47.3804 20.8013 47.3928 20.6608 47.434C17.6221 48.2193 14.5751 48.9931 11.4409 49.7948Z" fill="white"/>
<path d="M30.2257 15.4048C37.6743 15.4146 44.1369 20.6676 45.6086 27.847C47.2086 35.6478 42.5764 43.4895 34.9088 45.8258C30.3985 47.1997 26.0857 46.6095 22.0396 44.1863C21.8995 44.0901 21.7394 44.0266 21.5713 44.0005C21.4031 43.9744 21.2312 43.9863 21.0684 44.0355C19.5507 44.4454 18.0247 44.8241 16.5037 45.2241C16.1547 45.3176 15.9835 45.3487 16.1284 44.87C16.5646 43.419 16.9515 41.9533 17.3712 40.4991C17.4302 40.3407 17.4498 40.1704 17.4283 40.0028C17.4068 39.8352 17.3449 39.6752 17.2478 39.5367C15.2889 36.5429 14.4197 33.2492 14.7276 29.6996C15.07 25.7648 16.693 22.3924 19.5918 19.6691C22.6042 16.8443 26.2026 15.4818 30.2257 15.4048Z" fill="#54B848"/>
<path d="M24.1721 22.2299C24.3828 22.2299 24.5919 22.2299 24.8026 22.2299C24.9873 22.2264 25.1684 22.2816 25.3197 22.3874C25.4709 22.4932 25.5844 22.6442 25.6437 22.8185C26.1683 24.0721 26.7022 25.3215 27.2454 26.5664C27.3348 26.7368 27.367 26.9313 27.3374 27.1213C27.3078 27.3113 27.2178 27.4868 27.0808 27.6222C26.6709 28.078 26.2841 28.5535 25.8676 29.0011C25.5713 29.3175 25.5482 29.6175 25.7655 29.9848C27.3046 32.6211 29.5318 34.4393 32.3763 35.5345C32.7269 35.6706 32.9409 35.5345 33.1401 35.2754C33.5895 34.6951 34.0586 34.1278 34.4866 33.5343C34.7961 33.1064 35.1335 33.0129 35.6142 33.2392C36.829 33.8146 38.0554 34.3655 39.2768 34.9311C39.8727 35.2066 39.9352 35.3968 39.8315 36.0476C39.3377 39.3103 36.322 40.494 33.6323 39.6972C28.1162 38.0659 24.1112 34.6016 21.5021 29.5322C20.8405 28.2835 20.6312 26.8458 20.9095 25.4614C21.1647 24.1825 21.9252 23.2267 22.9128 22.4283C23.2783 22.1332 23.7342 22.1955 24.1721 22.2299Z" fill="white"/>
</svg>
