<svg width="60" height="60" viewBox="0 0 60 60" fill="none" xmlns="http://www.w3.org/2000/svg">
<circle cx="29.9336" cy="30.4146" r="29.5674" fill="url(#paint0_linear_273_67)"/>
<path d="M48.5506 22.2873C47.953 22.9274 47.4267 23.4931 46.8974 24.0559C42.3876 28.8406 37.8804 33.6284 33.3757 38.4193C33.0512 38.7666 32.8889 38.8334 32.5264 38.439C30.3696 36.0957 28.1688 33.7948 26.0166 31.4499C25.6283 31.0283 25.3613 31.0313 24.8896 31.2982C20.5791 33.6775 16.2599 36.0416 11.9322 38.3905C11.7593 38.4845 11.6016 38.6513 11.3164 38.5952L15.4404 34.2164C19.1564 30.2729 22.8698 26.3259 26.5808 22.3753C26.9281 22.0037 27.0889 22.0629 27.4013 22.392C29.6582 24.7702 31.9394 27.1242 34.1963 29.5024C34.483 29.8058 34.6847 29.8346 35.0487 29.6314C39.3319 27.244 43.6218 24.8678 47.9181 22.5027C48.0713 22.4026 48.2109 22.2646 48.5506 22.2873Z" fill="white"/>
<defs>
<linearGradient id="paint0_linear_273_67" x1="79.0114" y1="-21.2789" x2="-30.156" y2="6.34239" gradientUnits="userSpaceOnUse">
<stop stop-color="#44A5DA"/>
<stop offset="0.386244" stop-color="#6D7FE5"/>
<stop offset="0.697778" stop-color="#28BFD3"/>
<stop offset="1" stop-color="#6C7FE5"/>
</linearGradient>
</defs>
</svg>
