<svg width="28" height="28" viewBox="0 0 28 28" fill="none" xmlns="http://www.w3.org/2000/svg">
<path d="M23.7315 4.31572C18.5054 -0.909275 10.0063 -0.909275 4.78018 4.31572C-0.443655 9.54071 -0.443655 18.042 4.78018 23.267C7.39323 25.8789 10.8248 27.1843 14.2564 27.1843C17.688 27.1843 21.1184 25.8789 23.7315 23.267C28.9564 18.0421 28.9564 9.54071 23.7315 4.31572ZM19.7828 17.7394C20.2194 18.176 20.2194 18.8818 19.7828 19.3184C19.5651 19.5361 19.2792 19.6456 18.9933 19.6456C18.7075 19.6456 18.4216 19.5361 18.2038 19.3184L14.2563 15.3698L10.31 19.3172C10.0911 19.535 9.80522 19.6444 9.52046 19.6444C9.23461 19.6444 8.9487 19.535 8.73095 19.3172C8.29434 18.8806 8.29434 18.1738 8.73095 17.7382L12.6773 13.7908L8.72985 9.84331C8.29324 9.4067 8.29324 8.69984 8.72985 8.26433C9.16535 7.82773 9.87222 7.82773 10.3088 8.26433L14.2563 12.2118L18.2038 8.26433C18.6404 7.82773 19.3461 7.82773 19.7827 8.26433C20.2193 8.69984 20.2193 9.4067 19.7827 9.84331L15.8353 13.7908L19.7828 17.7394Z" fill="#49BFB0"/>
</svg>
