<svg width="117" height="29" viewBox="0 0 117 29" fill="none" xmlns="http://www.w3.org/2000/svg">
<path d="M102.823 3.55481C102.744 3.55277 102.668 3.52759 102.604 3.48246C102.54 3.43732 102.491 3.37423 102.462 3.30113C102.434 3.22802 102.428 3.14817 102.445 3.07161C102.462 2.99504 102.501 2.92519 102.557 2.87083C102.614 2.81647 102.685 2.78003 102.762 2.7661C102.84 2.75216 102.919 2.76135 102.991 2.79251C103.063 2.82367 103.124 2.87541 103.167 2.94122C103.209 3.00704 103.232 3.08398 103.231 3.16238C103.228 3.2683 103.184 3.36888 103.107 3.44234C103.031 3.51579 102.929 3.5562 102.823 3.55481Z" fill="#49BFB0"/>
<path d="M107.163 5.92542C107.084 5.92337 107.008 5.8982 106.944 5.85306C106.88 5.80792 106.831 5.74484 106.802 5.67173C106.774 5.59863 106.768 5.51878 106.785 5.44221C106.802 5.36565 106.841 5.29579 106.897 5.24143C106.954 5.18707 107.025 5.15064 107.102 5.1367C107.179 5.12277 107.259 5.13196 107.331 5.16312C107.403 5.19428 107.464 5.24602 107.507 5.31183C107.549 5.37764 107.572 5.45459 107.571 5.53299C107.568 5.63891 107.523 5.73949 107.447 5.81294C107.371 5.8864 107.269 5.92681 107.163 5.92542Z" fill="#49BFB0"/>
<path d="M112.487 6.99415C112.38 6.99419 112.278 6.95263 112.202 6.87835C112.125 6.80407 112.081 6.70295 112.079 6.59656C112.081 6.49065 112.126 6.39006 112.202 6.31661C112.278 6.24315 112.381 6.20274 112.487 6.20414C112.593 6.2041 112.695 6.24566 112.771 6.31994C112.848 6.39422 112.892 6.49534 112.894 6.60173C112.889 6.70678 112.844 6.80587 112.768 6.87879C112.692 6.95171 112.592 6.99297 112.487 6.99415Z" fill="#49BFB0"/>
<path d="M0.544922 6.90186H1.75741V22.4337H11.3077V23.5283H0.544922V6.90186Z" fill="#49BFB0"/>
<path d="M12.6643 8.51762C12.5756 8.43561 12.5053 8.33564 12.4582 8.22436C12.411 8.11307 12.3881 7.99303 12.3909 7.87219C12.3897 7.74928 12.4133 7.6274 12.4603 7.51384C12.5073 7.40027 12.5767 7.29736 12.6643 7.21126C12.7493 7.12389 12.8513 7.05497 12.964 7.00877C13.0768 6.96258 13.1978 6.94011 13.3196 6.94276C13.4413 6.93926 13.5625 6.96032 13.676 7.00467C13.7895 7.04903 13.8928 7.11577 13.98 7.20093C14.0683 7.28434 14.1383 7.38529 14.1854 7.49733C14.2325 7.60936 14.2557 7.73001 14.2534 7.85153C14.2511 8.03472 14.1953 8.21322 14.093 8.3651C13.9906 8.51697 13.8461 8.63559 13.6773 8.70637C13.5084 8.77714 13.3226 8.79698 13.1426 8.76345C12.9626 8.72991 12.7964 8.64447 12.6643 8.51762ZM12.752 11.6674H13.8871V23.5434H12.752V11.6674Z" fill="#49BFB0"/>
<path d="M18.8821 9.93733V11.6671H22.6589V12.643H18.8924V23.5277H17.7573V12.643H15.5903V11.6671H17.7728V9.84955C17.7356 9.40846 17.7954 8.96455 17.9479 8.54905C18.1005 8.13355 18.3421 7.75653 18.6559 7.4445C18.9696 7.13247 19.3479 6.89301 19.764 6.74295C20.1802 6.59288 20.6241 6.53586 21.0646 6.5759C21.5071 6.57518 21.9472 6.64132 22.37 6.77211C22.7536 6.88334 23.1066 7.08119 23.4019 7.35042L22.9478 8.2024C22.4408 7.75923 21.7838 7.52652 21.111 7.5518C19.6251 7.5518 18.8821 8.34698 18.8821 9.93733Z" fill="#49BFB0"/>
<path d="M33.6644 17.8683H23.4692C23.4825 18.7375 23.7265 19.5875 24.176 20.3313C24.6031 21.0432 25.2193 21.6224 25.9561 22.0043C26.6793 22.3606 27.4696 22.56 28.2751 22.5893C29.0807 22.6187 29.8834 22.4774 30.6306 22.1747C31.2739 21.9055 31.8398 21.4794 32.2765 20.9354L32.9369 21.6841C32.415 22.3105 31.7494 22.8013 30.9969 23.1144C30.0881 23.4843 29.1097 23.6518 28.1296 23.6055C27.1496 23.5591 26.1914 23.2999 25.3214 22.8459C24.4162 22.3448 23.6651 21.6056 23.1493 20.7082C22.6209 19.7624 22.3521 18.6935 22.3702 17.6101C22.3508 16.5316 22.6046 15.4658 23.108 14.512C23.5649 13.6121 24.2635 12.8575 25.1254 12.333C26.0078 11.8315 27.0051 11.5679 28.0199 11.5679C29.0346 11.5679 30.032 11.8315 30.9144 12.333C31.7693 12.841 32.4675 13.5754 32.9318 14.4552C33.4349 15.4091 33.6888 16.4749 33.6696 17.5533L33.6644 17.8683ZM25.7858 13.1334C25.1228 13.496 24.5702 14.0312 24.1863 14.6824C23.7747 15.3816 23.5376 16.1698 23.495 16.9802H32.5758C32.543 16.1776 32.3088 15.3963 31.8947 14.7082C31.4936 14.0463 30.9263 13.5012 30.2491 13.127C29.572 12.7528 28.8087 12.5628 28.0354 12.5757C27.2499 12.5633 26.4746 12.7554 25.7858 13.1334Z" fill="#49BFB0"/>
<path d="M49.1479 16.3511C49.7958 17.1296 50.1306 18.1219 50.0869 19.1342C50.1175 19.7622 49.9922 20.388 49.722 20.9556C49.4519 21.5233 49.0455 22.0151 48.5391 22.3872C47.5071 23.1445 45.9799 23.5249 43.9574 23.5283H36.5586V6.90186H43.4879C45.2937 6.90186 46.6988 7.26846 47.7032 8.00168C48.1952 8.36086 48.5904 8.83667 48.8534 9.38641C49.1163 9.93615 49.2388 10.5426 49.2098 11.1514C49.2348 12.0136 48.9695 12.8593 48.4565 13.5524C47.9362 14.2142 47.2272 14.7022 46.4236 14.9517C47.4646 15.0937 48.4258 15.5874 49.1479 16.3511ZM37.7659 7.94488V14.5697H43.4414C44.6211 14.644 45.7948 14.3499 46.8003 13.728C47.1884 13.4459 47.4991 13.0705 47.7039 12.6363C47.9086 12.2022 48.0006 11.7235 47.9715 11.2444C47.9981 10.7692 47.9048 10.295 47.7001 9.86549C47.4954 9.43596 47.186 9.0649 46.8003 8.78653C45.7948 8.16461 44.6211 7.87052 43.4414 7.94488H37.7659ZM47.631 21.6282C48.0423 21.3409 48.3728 20.9525 48.5906 20.5003C48.8084 20.0481 48.9062 19.5474 48.8744 19.0464C48.9103 18.5449 48.8144 18.0427 48.5962 17.5898C48.3781 17.1369 48.0453 16.749 47.631 16.4647C46.8003 15.907 45.5672 15.6333 43.9625 15.6333H37.7711V22.4801H43.9625C45.5826 22.4801 46.8054 22.1961 47.631 21.6282Z" fill="#49BFB0"/>
<path d="M62.7426 17.8683H52.5474C52.5614 18.7367 52.8034 19.5861 53.2491 20.3313C53.6794 21.0424 54.297 21.6212 55.0343 22.0043C55.7575 22.3606 56.5478 22.56 57.3533 22.5894C58.1589 22.6187 58.9616 22.4774 59.7088 22.1747C60.3522 21.9055 60.918 21.4795 61.3547 20.9354L62.0151 21.6841C61.4932 22.3105 60.8276 22.8013 60.0751 23.1144C59.2751 23.4588 58.4127 23.6346 57.5418 23.6308C56.4407 23.6497 55.3533 23.3847 54.3842 22.8614C53.4796 22.3612 52.7299 21.6217 52.2172 20.7237C51.6873 19.7783 51.4167 18.7095 51.4329 17.6256C51.4162 16.5474 51.6698 15.4823 52.1707 14.5275C52.6315 13.6213 53.3354 12.8614 54.2036 12.333C55.0878 11.8287 56.0881 11.5635 57.1058 11.5635C58.1236 11.5635 59.1238 11.8287 60.0081 12.333C60.863 12.841 61.5612 13.5754 62.0255 14.4552C62.5286 15.4091 62.7824 16.4749 62.7633 17.5533L62.7426 17.8683ZM54.864 13.1334C54.201 13.496 53.6484 14.0312 53.2645 14.6824C52.8591 15.3837 52.6257 16.1712 52.5835 16.9802H61.6643C61.6356 16.1777 61.4029 15.3958 60.9884 14.7083C60.5869 14.0456 60.0187 13.4999 59.3406 13.1257C58.6625 12.7515 57.8981 12.5619 57.1239 12.5757C56.3349 12.5612 55.5558 12.7535 54.864 13.1334Z" fill="#49BFB0"/>
<path d="M75.8021 11.6669V22.2521C75.8021 24.2211 75.3257 25.6755 74.3729 26.6153C73.4201 27.555 71.9823 28.0249 70.0595 28.0249C69.0062 28.0251 67.9601 27.8506 66.9638 27.5085C66.0907 27.2288 65.2918 26.7558 64.6265 26.1247L65.2405 25.2573C65.86 25.8211 66.5864 26.2548 67.3765 26.5326C68.2274 26.8371 69.1249 26.9908 70.0285 26.987C71.6039 26.987 72.77 26.6118 73.5267 25.8614C74.2834 25.111 74.6618 23.9492 74.6618 22.376V20.3881C74.1955 21.2377 73.4929 21.9336 72.6392 22.3915C71.7463 22.8687 70.7466 23.1104 69.7344 23.0938C68.6854 23.1066 67.6504 22.8526 66.7264 22.3554C65.8425 21.8761 65.1086 21.1612 64.6058 20.29C64.0984 19.38 63.832 18.3553 63.832 17.3132C63.832 16.2712 64.0984 15.2464 64.6058 14.3365C65.1062 13.4634 65.8408 12.7479 66.7264 12.2711C67.6522 11.7798 68.6866 11.5294 69.7344 11.543C70.774 11.5341 71.7981 11.7957 72.7063 12.302C73.5697 12.7753 74.2735 13.494 74.7289 14.3674V11.6669H75.8021ZM72.3297 21.4776C73.0544 21.0934 73.6555 20.5115 74.0633 19.7994C74.4899 19.0479 74.7072 18.1955 74.6928 17.3313C74.7085 16.4718 74.491 15.6241 74.0633 14.8786C73.6522 14.1717 73.0517 13.594 72.3297 13.2108C71.5615 12.8019 70.7024 12.5941 69.8325 12.6067C68.9656 12.5925 68.1095 12.8004 67.3456 13.2108C66.6277 13.596 66.031 14.1735 65.6223 14.8786C65.1964 15.6246 64.9806 16.4723 64.998 17.3313C64.9819 18.1951 65.1975 19.0473 65.6223 19.7994C66.0275 20.5099 66.6248 21.0916 67.3456 21.4776C68.1095 21.8879 68.9656 22.0959 69.8325 22.0817C70.7086 22.0937 71.5733 21.8823 72.3452 21.4672L72.3297 21.4776Z" fill="#49BFB0"/>
<path d="M89.5055 17.8684H79.3103C79.3261 18.7372 79.5699 19.5866 80.0171 20.3314C80.4442 21.0433 81.0604 21.6225 81.7972 22.0044C82.581 22.4045 83.4507 22.6066 84.3305 22.593C85.0668 22.6 85.797 22.4578 86.4769 22.1748C87.1195 21.9042 87.685 21.4784 88.1228 20.9355L88.778 21.6842C88.2571 22.3117 87.5913 22.8026 86.838 23.1145C86.0398 23.4588 85.1791 23.6346 84.3099 23.6309C83.2088 23.6497 82.1214 23.3848 81.1522 22.8615C80.2465 22.3628 79.4965 21.6229 78.9852 20.7238C78.4553 19.7784 78.1848 18.7096 78.201 17.6257C78.1842 16.5475 78.4379 15.4824 78.9388 14.5276C79.3936 13.6205 80.0945 12.8599 80.9613 12.3331C81.8446 11.8287 82.844 11.5635 83.861 11.5635C84.878 11.5635 85.8774 11.8287 86.7607 12.3331C87.617 12.8409 88.3168 13.5753 88.7832 14.4553C89.2864 15.4092 89.5402 16.475 89.521 17.5534L89.5055 17.8684ZM81.6269 13.1335C80.965 13.4975 80.4127 14.0324 80.0275 14.6825C79.6183 15.3828 79.3813 16.1703 79.3361 16.9803H88.4169C88.3841 16.1777 88.1499 15.3964 87.7358 14.7083C87.3409 14.0624 86.7865 13.5289 86.126 13.1593C85.4394 12.7746 84.6633 12.5786 83.8765 12.5913C83.0924 12.5748 82.3175 12.7616 81.6269 13.1335Z" fill="#49BFB0"/>
<path d="M105.166 18.8501C104.134 19.6505 98.0661 22.8157 97.2096 23.172C96.6182 23.4075 95.9962 23.557 95.3625 23.616C94.9282 23.6435 94.4928 23.5821 94.083 23.4356C93.6732 23.2891 93.2975 23.0606 92.9788 22.764C92.6873 22.4443 92.4627 22.0695 92.3183 21.6615C92.1739 21.2536 92.1125 20.8209 92.1378 20.3888V12.6436H89.9604V11.6677H92.1378V9.08594H93.2729V11.6677H97.0445V12.6436H93.2729V20.2752C93.2266 20.9119 93.426 21.5421 93.8301 22.036C94.0439 22.2517 94.3015 22.4191 94.5854 22.5269C94.8693 22.6347 95.173 22.6803 95.476 22.6608C96.1807 22.5592 96.862 22.3337 97.4882 21.9947C97.901 21.7985 99.3095 21.0859 99.8255 20.8277C102.405 19.5214 104.743 18.4215 105.037 18.153L105.166 18.8501Z" fill="#49BFB0"/>
<path d="M104.979 10.7487C104.923 10.755 104.867 10.7496 104.814 10.7326C104.76 10.7157 104.711 10.6876 104.669 10.6503C104.627 10.613 104.594 10.5673 104.571 10.5162C104.548 10.4651 104.536 10.4097 104.536 10.3536C104.536 10.2976 104.548 10.2422 104.571 10.1911C104.594 10.14 104.627 10.0942 104.669 10.0569C104.711 10.0196 104.76 9.99161 104.814 9.97467C104.867 9.95772 104.923 9.95226 104.979 9.95864C105.035 9.95226 105.091 9.95772 105.144 9.97467C105.198 9.99161 105.247 10.0196 105.289 10.0569C105.331 10.0942 105.364 10.14 105.387 10.1911C105.41 10.2422 105.422 10.2976 105.422 10.3536C105.422 10.4097 105.41 10.4651 105.387 10.5162C105.364 10.5673 105.331 10.613 105.289 10.6503C105.247 10.6876 105.198 10.7157 105.144 10.7326C105.091 10.7496 105.035 10.755 104.979 10.7487Z" fill="#49BFB0"/>
<path d="M112.125 9.49855C112.02 9.49724 111.919 9.4551 111.844 9.38096C111.769 9.30682 111.725 9.20646 111.723 9.10096C111.725 8.99504 111.77 8.89446 111.846 8.821C111.922 8.74755 112.025 8.70714 112.131 8.70853C112.237 8.7085 112.339 8.75005 112.415 8.82433C112.492 8.89861 112.536 8.99973 112.538 9.10612C112.533 9.21206 112.487 9.31189 112.41 9.38495C112.334 9.45801 112.231 9.49868 112.125 9.49855Z" fill="#49BFB0"/>
<path d="M109.252 11.9613C109.257 11.9872 109.256 12.0138 109.249 12.0392C109.242 12.0646 109.229 12.0881 109.212 12.1083C109.195 12.1284 109.174 12.1445 109.15 12.1556C109.127 12.1667 109.101 12.1724 109.074 12.1724C109.048 12.1724 109.022 12.1667 108.998 12.1556C108.974 12.1445 108.953 12.1284 108.936 12.1083C108.919 12.0881 108.907 12.0646 108.9 12.0392C108.893 12.0138 108.892 11.9872 108.896 11.9613C108.896 11.9147 108.915 11.8701 108.948 11.8371C108.98 11.8042 109.025 11.7857 109.072 11.7857C109.095 11.785 109.119 11.7891 109.14 11.7976C109.162 11.8061 109.182 11.8189 109.199 11.8353C109.216 11.8517 109.229 11.8712 109.239 11.8929C109.248 11.9145 109.252 11.9378 109.252 11.9613Z" fill="#49BFB0"/>
<path d="M109.082 12.5091C109.105 12.5098 109.128 12.515 109.149 12.5244C109.17 12.5339 109.189 12.5474 109.205 12.5641C109.22 12.5809 109.233 12.6007 109.241 12.6222C109.249 12.6438 109.253 12.6668 109.252 12.6898C109.257 12.7158 109.256 12.7423 109.249 12.7677C109.242 12.7931 109.229 12.8167 109.212 12.8368C109.195 12.8569 109.174 12.8731 109.15 12.8842C109.127 12.8952 109.101 12.901 109.074 12.901C109.048 12.901 109.022 12.8952 108.998 12.8842C108.974 12.8731 108.953 12.8569 108.936 12.8368C108.919 12.8167 108.907 12.7931 108.9 12.7677C108.893 12.7423 108.892 12.7158 108.896 12.6898C108.895 12.6654 108.9 12.6412 108.909 12.6186C108.918 12.5959 108.932 12.5755 108.949 12.5585C108.967 12.5415 108.988 12.5283 109.01 12.5198C109.033 12.5113 109.058 12.5077 109.082 12.5091Z" fill="#49BFB0"/>
<path d="M114.096 6.65387C113.917 6.03038 113.636 5.44072 113.265 4.90861C112.896 4.38484 112.441 3.92743 111.919 3.55577C111.437 3.21828 110.906 2.95704 110.345 2.78125V4.07212C110.345 4.58847 110.345 5.10482 110.345 5.62117C110.334 5.90658 110.436 6.18479 110.63 6.39482C110.823 6.60485 111.092 6.72957 111.377 6.74165C111.444 6.74165 111.511 6.74165 111.578 6.74165C111.638 6.72577 111.702 6.7342 111.756 6.7651C111.811 6.79601 111.85 6.84693 111.867 6.90689C111.941 7.0509 112.063 7.16439 112.212 7.2276C112.361 7.29082 112.527 7.29975 112.682 7.25284C112.8 7.22026 112.907 7.15824 112.994 7.07264C113.081 6.98704 113.145 6.88068 113.179 6.76361C113.213 6.64655 113.217 6.52264 113.191 6.40359C113.164 6.28455 113.107 6.1743 113.026 6.08326C112.945 5.99223 112.842 5.92341 112.727 5.88331C112.611 5.84321 112.488 5.83315 112.368 5.85408C112.248 5.87502 112.135 5.92626 112.04 6.00296C111.945 6.07966 111.872 6.17928 111.826 6.29243C111.818 6.32256 111.8 6.34882 111.774 6.36603C111.749 6.38324 111.717 6.39014 111.687 6.38537C111.533 6.39327 111.379 6.38287 111.227 6.35439C111.075 6.31078 110.941 6.21752 110.848 6.08938C110.755 5.96124 110.706 5.80556 110.711 5.64699C110.711 4.8673 110.711 4.09794 110.711 3.30276C110.711 3.30276 110.711 3.30276 110.711 3.27178C111.696 3.70102 112.528 4.41693 113.1 5.32626C113.672 6.23559 113.957 7.2962 113.918 8.36994C113.879 9.44369 113.518 10.4808 112.881 11.3462C112.245 12.2116 111.363 12.8652 110.35 13.2218V10.0101C110.347 9.98096 110.347 9.95156 110.35 9.92237C110.368 9.74438 110.453 9.57972 110.587 9.4611C110.72 9.34248 110.894 9.27858 111.073 9.28209H111.16C111.234 9.26072 111.313 9.26864 111.382 9.30422C111.45 9.33979 111.502 9.40029 111.527 9.47314C111.604 9.61808 111.732 9.72904 111.887 9.78441C112.041 9.83978 112.211 9.83558 112.362 9.77263C112.515 9.72067 112.645 9.61811 112.732 9.48194C112.818 9.34577 112.855 9.18417 112.837 9.02392C112.818 8.86847 112.75 8.72323 112.642 8.60975C112.534 8.49627 112.393 8.4206 112.239 8.39397C112.079 8.36833 111.915 8.39782 111.775 8.47758C111.634 8.55735 111.525 8.68265 111.465 8.83287C111.457 8.86405 111.438 8.89115 111.411 8.90848C111.384 8.92581 111.352 8.93202 111.32 8.92581C111.148 8.90939 110.974 8.91984 110.804 8.95679C110.565 9.01616 110.353 9.15659 110.206 9.35424C110.058 9.55189 109.983 9.79459 109.994 10.0411V13.3045C109.994 13.3561 109.994 13.3819 109.927 13.3974C109.713 13.4501 109.496 13.4914 109.277 13.5213C109.277 13.4645 109.277 13.4129 109.277 13.3613C109.277 13.3147 109.259 13.27 109.226 13.2371C109.193 13.2042 109.148 13.1857 109.102 13.1857C109.055 13.1857 109.01 13.2042 108.978 13.2371C108.945 13.27 108.926 13.3147 108.926 13.3613C108.926 13.4232 108.926 13.5213 108.926 13.542C108.855 13.5559 108.781 13.5559 108.71 13.542C108.575 13.542 108.441 13.542 108.312 13.542C108.183 13.542 108.219 13.511 108.225 13.4439V8.43528C108.23 8.28633 108.204 8.13793 108.149 7.99934C108.094 7.86076 108.012 7.73497 107.906 7.62982C107.8 7.52468 107.674 7.44244 107.536 7.38824C107.397 7.33404 107.249 7.30904 107.1 7.3148H103.72H103.256H103.024C102.977 7.3148 102.905 7.3148 102.9 7.35611C102.858 7.6071 102.834 7.86074 102.828 8.11514C102.828 8.23907 102.828 8.35783 102.828 8.47659C102.836 8.71205 102.86 8.94668 102.9 9.17882C103.026 9.89218 103.285 10.5754 103.663 11.1926C103.982 11.71 104.379 12.175 104.84 12.5712C105.336 13.0014 105.904 13.3421 106.517 13.5781C107.042 13.7915 107.601 13.912 108.168 13.9344C108.624 13.9639 109.082 13.9466 109.535 13.8828C110.871 13.663 112.083 12.9703 112.951 11.931C113.783 10.9843 114.26 9.77794 114.302 8.5179C114.337 7.8894 114.268 7.25948 114.096 6.65387ZM112.491 6.23563C112.586 6.23563 112.676 6.27317 112.743 6.33998C112.81 6.4068 112.847 6.49742 112.847 6.59191C112.847 6.6864 112.81 6.77702 112.743 6.84384C112.676 6.91066 112.586 6.94819 112.491 6.94819C112.398 6.94559 112.309 6.90722 112.243 6.84096C112.176 6.7747 112.138 6.68558 112.135 6.59191C112.141 6.49955 112.18 6.4124 112.246 6.34747C112.311 6.28254 112.399 6.24451 112.491 6.24079V6.23563ZM112.13 8.73993C112.201 8.73993 112.27 8.76082 112.328 8.79997C112.387 8.83912 112.432 8.89476 112.459 8.95987C112.486 9.02497 112.493 9.0966 112.479 9.16572C112.466 9.23483 112.432 9.29831 112.382 9.34814C112.332 9.39796 112.269 9.4319 112.2 9.44564C112.131 9.45939 112.059 9.45234 111.994 9.42537C111.929 9.3984 111.873 9.35274 111.834 9.29415C111.795 9.23556 111.774 9.16667 111.774 9.09621C111.778 9.00345 111.817 8.91562 111.883 8.85045C111.949 8.78528 112.038 8.74762 112.13 8.74509V8.73993ZM107.832 13.511C107.612 13.4827 107.393 13.4413 107.177 13.3871C107.11 13.3871 107.126 13.3251 107.126 13.2786C107.126 12.8552 107.126 12.4318 107.126 12.0084C107.144 11.6989 107.144 11.3885 107.126 11.079C107.088 10.8302 106.964 10.6026 106.775 10.4364C106.586 10.2702 106.345 10.1759 106.094 10.1702C105.985 10.1702 105.872 10.1702 105.758 10.1702C105.645 10.1702 105.686 10.1702 105.665 10.1031C105.617 9.9703 105.531 9.85479 105.417 9.77121C105.304 9.68764 105.168 9.63977 105.027 9.63368C104.886 9.6276 104.746 9.66357 104.625 9.73703C104.505 9.8105 104.409 9.91814 104.35 10.0463C104.286 10.172 104.262 10.3146 104.282 10.4542C104.303 10.5939 104.366 10.7238 104.463 10.826C104.544 10.9176 104.647 10.9869 104.762 11.0272C104.877 11.0675 105.001 11.0775 105.121 11.0563C105.241 11.035 105.354 10.9832 105.448 10.9058C105.543 10.8284 105.616 10.728 105.66 10.6143C105.665 10.5863 105.681 10.5615 105.704 10.5451C105.727 10.5287 105.756 10.522 105.784 10.5265C105.985 10.5078 106.188 10.5343 106.377 10.604C106.499 10.6597 106.601 10.7493 106.672 10.862C106.744 10.9747 106.781 11.1056 106.78 11.2391C106.78 11.9052 106.78 12.5764 106.78 13.2528C106.378 13.1136 105.995 12.9245 105.64 12.69C104.865 12.188 104.236 11.492 103.813 10.6711C103.507 10.0934 103.314 9.46243 103.246 8.81222C103.212 8.45845 103.212 8.1023 103.246 7.74854C103.246 7.68141 103.246 7.66592 103.333 7.66592H107.131C107.228 7.66234 107.325 7.67882 107.416 7.71433C107.507 7.74985 107.589 7.80364 107.659 7.87238C107.728 7.94112 107.782 8.02334 107.818 8.11395C107.854 8.20456 107.871 8.30162 107.869 8.39914C107.869 10.0979 107.869 11.7967 107.869 13.4955C107.865 13.5018 107.86 13.5071 107.853 13.5107C107.847 13.5143 107.84 13.5162 107.832 13.5162V13.511ZM105.335 10.3458C105.336 10.4165 105.316 10.4858 105.278 10.5451C105.239 10.6044 105.184 10.6508 105.119 10.6786C105.054 10.7064 104.982 10.7142 104.913 10.701C104.844 10.6878 104.78 10.6543 104.729 10.6047C104.679 10.5551 104.645 10.4916 104.63 10.4224C104.616 10.3531 104.623 10.2812 104.65 10.2158C104.677 10.1504 104.722 10.0945 104.781 10.0551C104.839 10.0157 104.909 9.99466 104.979 9.99466C105.074 9.99466 105.164 10.0322 105.231 10.099C105.298 10.1658 105.335 10.2564 105.335 10.3509V10.3458Z" fill="#49BFB0"/>
<path d="M109.261 8.79673V6.44734C109.261 6.21318 109.184 5.98555 109.043 5.79912C108.901 5.61269 108.702 5.47768 108.477 5.41464C108.293 5.3727 108.103 5.35877 107.915 5.37333C107.885 5.37832 107.854 5.37214 107.828 5.35596C107.803 5.33978 107.784 5.31472 107.775 5.28555C107.716 5.13172 107.604 5.00365 107.46 4.9235C107.316 4.84334 107.148 4.81616 106.986 4.84665C106.862 4.86955 106.747 4.92454 106.651 5.00613C106.556 5.08771 106.483 5.19302 106.441 5.31151C106.399 5.42999 106.389 5.55749 106.411 5.68122C106.434 5.80496 106.488 5.92059 106.57 6.01653C106.651 6.11247 106.756 6.18534 106.874 6.22786C106.992 6.27038 107.12 6.28104 107.244 6.25878C107.367 6.23652 107.483 6.18212 107.579 6.10103C107.675 6.01994 107.748 5.915 107.791 5.79673C107.791 5.76059 107.791 5.70895 107.858 5.70895C108.031 5.69894 108.204 5.70934 108.374 5.73994C108.534 5.78692 108.672 5.88759 108.766 6.02494C108.86 6.16229 108.904 6.32791 108.89 6.49381V11.141C108.887 11.1771 108.887 11.2133 108.89 11.2494C108.895 11.2923 108.916 11.3318 108.948 11.3604C108.98 11.389 109.022 11.4046 109.065 11.4043C109.108 11.4046 109.15 11.389 109.183 11.3604C109.215 11.3318 109.236 11.2923 109.241 11.2494C109.243 11.215 109.243 11.1805 109.241 11.1461L109.261 8.79673ZM107.12 5.88451C107.026 5.88451 106.935 5.84698 106.868 5.78016C106.802 5.71335 106.764 5.62272 106.764 5.52823C106.764 5.43374 106.802 5.34312 106.868 5.2763C106.935 5.20949 107.026 5.17195 107.12 5.17195C107.215 5.17325 107.305 5.21104 107.372 5.27744C107.44 5.34383 107.479 5.43369 107.481 5.52823C107.48 5.6232 107.441 5.71381 107.374 5.78048C107.306 5.84715 107.215 5.88452 107.12 5.88451Z" fill="#49BFB0"/>
<path d="M116.17 6.21473C115.458 3.04434 113.384 1.07705 110.226 0.276706C109.901 0.19409 109.566 0.152782 109.236 0.0908203H109.05C108.947 0.132173 108.833 0.132173 108.73 0.0908203H107.791C107.791 0.126965 107.75 0.132128 107.719 0.132128C106.953 0.200843 106.203 0.389003 105.495 0.689786C104.874 0.954948 104.291 1.30227 103.762 1.72249C103.699 1.7598 103.65 1.81579 103.622 1.88252C103.593 1.94925 103.586 2.02333 103.602 2.09426C103.615 2.16306 103.65 2.22596 103.7 2.27411C103.751 2.32226 103.816 2.35326 103.885 2.36276C103.949 2.36841 104.014 2.36027 104.074 2.33889C104.135 2.31751 104.19 2.28339 104.236 2.23884C105.06 1.60244 106.016 1.15854 107.034 0.939655C108.052 0.720767 109.106 0.732426 110.118 0.973779C111.84 1.35583 113.359 2.36484 114.379 3.80478C115.399 5.24472 115.848 7.01279 115.639 8.7655C115.535 9.73248 115.23 10.6671 114.745 11.5099C114.26 12.3527 113.605 13.0851 112.822 13.6605C112.389 13.9675 112.022 14.3575 111.741 14.8078C111.46 15.2581 111.272 15.7597 111.186 16.2836C111.16 16.4281 111.114 16.4694 110.959 16.4694H106.357C105.965 16.4694 105.965 16.4694 105.877 16.077L105.815 15.855C105.528 14.9247 104.94 14.1164 104.143 13.5572C103.311 12.9183 102.633 12.1002 102.16 11.1634C101.686 10.2267 101.43 9.19538 101.409 8.14588C101.362 6.93719 101.633 5.73736 102.193 4.66568C102.322 4.41267 102.27 4.21646 102.064 4.12351C101.858 4.03057 101.698 4.12351 101.548 4.35587C100.698 6.02003 100.468 7.93287 100.899 9.75148C101.33 11.5701 102.394 13.1756 103.901 14.2801C104.558 14.7386 105.024 15.4219 105.211 16.2009C105.242 16.3404 105.284 16.4488 105.067 16.5056C104.884 16.5496 104.715 16.6388 104.575 16.7651C104.436 16.8914 104.33 17.0507 104.268 17.2285C104.206 17.4063 104.189 17.5968 104.22 17.7826C104.25 17.9684 104.327 18.1436 104.443 18.2922C104.515 18.3903 104.505 18.4367 104.443 18.5297C104.296 18.7228 104.217 18.9585 104.217 19.2009C104.217 19.4433 104.296 19.6791 104.443 19.8722C104.461 19.8904 104.476 19.9121 104.486 19.9361C104.496 19.96 104.501 19.9857 104.501 20.0116C104.501 20.0375 104.496 20.0632 104.486 20.0871C104.476 20.1111 104.461 20.1328 104.443 20.151C104.32 20.3191 104.245 20.5178 104.227 20.7254C104.21 20.933 104.249 21.1415 104.342 21.3281C104.435 21.5147 104.577 21.6722 104.753 21.7833C104.929 21.8944 105.132 21.955 105.34 21.9582C105.495 21.9582 105.521 22.0254 105.557 22.1493C105.67 22.5559 105.913 22.9144 106.248 23.1706C106.583 23.4269 106.993 23.5668 107.415 23.5692H109.659C110.101 23.5873 110.536 23.4523 110.89 23.1871C111.244 22.9219 111.497 22.5426 111.604 22.1131C111.611 22.066 111.635 22.0233 111.673 21.9943C111.711 21.9653 111.758 21.9524 111.805 21.9582C112.015 21.9563 112.221 21.8962 112.398 21.7845C112.576 21.6729 112.72 21.514 112.813 21.3257C112.906 21.1374 112.945 20.9269 112.925 20.7177C112.906 20.5085 112.829 20.3088 112.703 20.1407C112.686 20.1252 112.673 20.1064 112.664 20.0856C112.655 20.0647 112.65 20.0421 112.65 20.0193C112.65 19.9965 112.655 19.974 112.664 19.9531C112.673 19.9322 112.686 19.9135 112.703 19.898C112.853 19.7036 112.935 19.4648 112.935 19.219C112.935 18.9732 112.853 18.7344 112.703 18.54C112.685 18.5231 112.671 18.5027 112.661 18.4801C112.651 18.4574 112.646 18.433 112.646 18.4083C112.646 18.3837 112.651 18.3592 112.661 18.3366C112.671 18.314 112.685 18.2936 112.703 18.2767C112.813 18.1301 112.886 17.9589 112.915 17.7779C112.943 17.5969 112.928 17.4116 112.869 17.238C112.81 17.0645 112.709 16.908 112.576 16.7822C112.443 16.6563 112.281 16.5649 112.105 16.5159C111.888 16.4591 111.888 16.3662 111.929 16.2061C112.13 15.4024 112.604 14.6938 113.271 14.2027C115.83 12.1373 116.898 9.44192 116.17 6.21473ZM109.721 22.8773C108.937 22.8773 108.173 22.8773 107.368 22.8773C107.107 22.8713 106.856 22.7795 106.653 22.6162C106.449 22.4528 106.306 22.2271 106.243 21.9737H110.887C110.82 22.2326 110.67 22.4619 110.459 22.6255C110.247 22.7891 109.988 22.8777 109.721 22.8773ZM112.151 17.8171C112.099 17.9048 112.022 17.9751 111.931 18.0192C111.839 18.0633 111.736 18.0792 111.635 18.065H107.74C107.649 18.0515 107.556 18.0743 107.482 18.1283C107.408 18.1824 107.358 18.2635 107.342 18.3541C107.334 18.4052 107.337 18.4576 107.351 18.5073C107.365 18.557 107.391 18.6028 107.426 18.6411C107.461 18.6794 107.504 18.7093 107.552 18.7285C107.6 18.7477 107.652 18.7556 107.703 18.7517H111.666C112.063 18.7517 112.306 19.0822 112.146 19.4023C112.105 19.4856 112.041 19.555 111.961 19.6019C111.881 19.6487 111.789 19.6709 111.697 19.6656H110.964C110.916 19.6597 110.866 19.6641 110.82 19.6786C110.773 19.6931 110.73 19.7174 110.693 19.7499C110.656 19.7824 110.627 19.8223 110.607 19.8669C110.587 19.9116 110.576 19.96 110.576 20.009C110.576 20.058 110.587 20.1064 110.607 20.1511C110.627 20.1958 110.656 20.2357 110.693 20.2681C110.73 20.3006 110.773 20.3249 110.82 20.3394C110.866 20.3539 110.916 20.3584 110.964 20.3524H111.697C111.819 20.3524 111.936 20.4008 112.022 20.487C112.108 20.5732 112.156 20.6901 112.156 20.8119C112.156 20.9338 112.108 21.0507 112.022 21.1369C111.936 21.2231 111.819 21.2715 111.697 21.2715H105.382C105.317 21.2771 105.252 21.2696 105.191 21.2492C105.13 21.2289 105.073 21.1962 105.025 21.1531C104.976 21.1101 104.937 21.0576 104.91 20.999C104.883 20.9403 104.868 20.8766 104.866 20.8119C104.88 20.6851 104.94 20.5679 105.036 20.483C105.131 20.3982 105.254 20.3516 105.382 20.3524H109.251C109.509 20.3524 109.654 20.2336 109.664 20.0271C109.674 19.8205 109.525 19.6656 109.267 19.6656H105.377C105.312 19.6698 105.247 19.661 105.186 19.6398C105.125 19.6186 105.069 19.5854 105.021 19.5421C104.973 19.4988 104.934 19.4463 104.906 19.3877C104.879 19.3291 104.863 19.2656 104.861 19.2009C104.864 19.1374 104.881 19.0752 104.909 19.0181C104.937 18.9609 104.977 18.91 105.025 18.8682C105.073 18.8264 105.128 18.7946 105.189 18.7746C105.249 18.7546 105.313 18.7468 105.377 18.7517H106.063C106.111 18.7577 106.161 18.7533 106.207 18.7387C106.254 18.7242 106.297 18.6999 106.334 18.6674C106.371 18.635 106.4 18.5951 106.42 18.5504C106.44 18.5058 106.451 18.4573 106.451 18.4083C106.451 18.3593 106.44 18.3109 106.42 18.2662C106.4 18.2216 106.371 18.1817 106.334 18.1492C106.297 18.1168 106.254 18.0925 106.207 18.0779C106.161 18.0634 106.111 18.059 106.063 18.065H105.377C105.313 18.0699 105.249 18.0621 105.189 18.0421C105.128 18.0221 105.073 17.9903 105.025 17.9485C104.977 17.9067 104.937 17.8557 104.909 17.7986C104.881 17.7415 104.864 17.6793 104.861 17.6157C104.862 17.5506 104.876 17.4864 104.903 17.4271C104.93 17.3678 104.969 17.3147 105.018 17.2712C105.066 17.2276 105.123 17.1944 105.185 17.1737C105.246 17.1531 105.312 17.1453 105.377 17.151H111.656C112.084 17.151 112.326 17.497 112.151 17.8171Z" fill="#49BFB0"/>
<path d="M13.3199 8.87321C13.8784 8.87321 14.3311 8.4201 14.3311 7.86117C14.3311 7.30223 13.8784 6.84912 13.3199 6.84912C12.7614 6.84912 12.3086 7.30223 12.3086 7.86117C12.3086 8.4201 12.7614 8.87321 13.3199 8.87321Z" fill="#49BFB0"/>
</svg>
