<svg width="66" height="66" viewBox="0 0 66 66" fill="none" xmlns="http://www.w3.org/2000/svg">
<g id="Group">
<path id="Vector" d="M26.4261 44.1906L35.403 17.2597C35.7355 16.262 35.1963 15.1835 34.1986 14.8509C33.201 14.5184 32.1224 15.0576 31.7898 16.0553L22.8129 42.9862C22.4804 43.984 23.0196 45.0624 24.0173 45.3951C24.217 45.4616 24.4201 45.4932 24.6197 45.4932C25.417 45.4933 26.16 44.9887 26.4261 44.1906Z" fill="white"/>
<path id="Vector_2" d="M39.8802 35.8359C43.0303 35.8359 45.5931 33.2731 45.5931 30.123C45.5931 26.973 43.0303 24.4102 39.8802 24.4102C36.7302 24.4102 34.1674 26.973 34.1674 30.123C34.1674 33.2731 36.7302 35.8359 39.8802 35.8359ZM39.8802 28.2188C40.9303 28.2188 41.7845 29.073 41.7845 30.123C41.7845 31.1731 40.9303 32.0273 39.8802 32.0273C38.8302 32.0273 37.976 31.1731 37.976 30.123C37.976 29.073 38.8302 28.2188 39.8802 28.2188Z" fill="white"/>
<path id="Vector_3" d="M18.3356 24.4102C15.1855 24.4102 12.6227 26.973 12.6227 30.123C12.6227 33.2731 15.1855 35.8359 18.3356 35.8359C21.4857 35.8359 24.0485 33.2731 24.0485 30.123C24.0485 26.973 21.4858 24.4102 18.3356 24.4102ZM18.3356 32.0273C17.2855 32.0273 16.4313 31.1731 16.4313 30.123C16.4313 29.073 17.2855 28.2188 18.3356 28.2188C19.3856 28.2188 20.2399 29.073 20.2399 30.123C20.2399 31.1731 19.3857 32.0273 18.3356 32.0273Z" fill="white"/>
<path id="Vector_4" d="M65.2035 24.0039L58.5629 15.1498L58.822 13.3365C58.9067 12.7431 58.7073 12.1444 58.2834 11.7207L54.2437 7.681L58.2832 3.64135C59.0269 2.89779 59.0269 1.69199 58.2832 0.948298C57.5397 0.204734 56.3339 0.204734 55.5902 0.948298L51.5507 4.98795L47.511 0.948298C47.0872 0.524402 46.4885 0.325593 45.8952 0.409636L27.0435 3.10269C26.6356 3.16096 26.2577 3.35 25.9663 3.64135L2.62623 26.9814C-0.0962768 29.7038 -0.0962768 34.1337 2.62623 36.8561L22.3754 56.6054C22.7794 57.0094 23.2217 57.352 23.6898 57.636V58.4082C23.6898 62.2583 26.8221 65.3906 30.6722 65.3906H58.6019C62.452 65.3906 65.5843 62.2583 65.5843 58.4082V25.1465C65.5843 24.7345 65.4506 24.3334 65.2035 24.0039ZM5.31929 34.163C4.08175 32.9255 4.08175 30.912 5.31929 29.6745L28.2105 6.78332L45.4911 4.31471L48.8575 7.68113L46.1644 10.3742L44.8178 9.02759C44.0743 8.28403 42.8685 8.28403 42.1248 9.02759C41.3811 9.77116 41.3811 10.977 42.1248 11.7207L47.511 17.1069C47.8829 17.4787 48.3702 17.6647 48.8575 17.6647C49.3447 17.6647 49.8322 17.4787 50.2039 17.1069C50.9476 16.3633 50.9476 15.1575 50.2039 14.4138L48.8574 13.0672L51.5504 10.3742L54.9168 13.7406L52.4481 31.0212L29.5571 53.9124C28.9576 54.5118 28.1606 54.8419 27.3128 54.8419C26.465 54.8419 25.668 54.5117 25.0685 53.9124L5.31929 34.163ZM61.7757 58.4082C61.7757 60.1582 60.3519 61.582 58.6019 61.582H30.6722C29.001 61.582 27.6284 60.2835 27.5079 58.6425C29.2303 58.5948 30.9384 57.9171 32.25 56.6054L55.5901 33.2654C55.8814 32.974 56.0704 32.5961 56.1287 32.1882L57.8011 20.4818L61.7757 25.7812V58.4082Z" fill="white"/>
</g>
</svg>
