<svg width="12" height="21" viewBox="0 0 12 21" fill="none" xmlns="http://www.w3.org/2000/svg">
<path d="M11.0643 0.78056L8.45116 0.776367C5.51544 0.776367 3.61825 2.72282 3.61825 5.73548V8.02196H0.990901C0.763867 8.02196 0.580017 8.20602 0.580017 8.43306V11.7459C0.580017 11.9729 0.764076 12.1568 0.990901 12.1568H3.61825V20.5162C3.61825 20.7432 3.8021 20.9271 4.02913 20.9271H7.45708C7.68411 20.9271 7.86796 20.743 7.86796 20.5162V12.1568H10.9399C11.167 12.1568 11.3508 11.9729 11.3508 11.7459L11.3521 8.43306C11.3521 8.32405 11.3087 8.21965 11.2318 8.1425C11.1548 8.06536 11.05 8.02196 10.941 8.02196H7.86796V6.08368C7.86796 5.15207 8.08996 4.67913 9.30354 4.67913L11.0638 4.6785C11.2907 4.6785 11.4745 4.49444 11.4745 4.26762V1.19144C11.4745 0.964829 11.2909 0.780979 11.0643 0.78056Z" fill="white"/>
</svg>
