<svg width="16" height="16" viewBox="0 0 16 16" fill="none" xmlns="http://www.w3.org/2000/svg">
<path d="M3.79664 5.27884H0.762679C0.628027 5.27884 0.518921 5.38799 0.518921 5.5226V15.2694C0.518921 15.4041 0.628027 15.5132 0.762679 15.5132H3.79664C3.93129 15.5132 4.0404 15.4041 4.0404 15.2694V5.5226C4.0404 5.38799 3.93129 5.27884 3.79664 5.27884Z" fill="white"/>
<path d="M2.28078 0.433594C1.17685 0.433594 0.278748 1.33072 0.278748 2.43344C0.278748 3.53664 1.17685 4.43411 2.28078 4.43411C3.38384 4.43411 4.28121 3.53659 4.28121 2.43344C4.28126 1.33072 3.38384 0.433594 2.28078 0.433594Z" fill="white"/>
<path d="M11.5138 5.03708C10.2952 5.03708 9.39445 5.56092 8.84808 6.15612V5.52308C8.84808 5.38848 8.73898 5.27933 8.60433 5.27933H5.69878C5.56412 5.27933 5.45502 5.38848 5.45502 5.52308V15.2699C5.45502 15.4046 5.56412 15.5137 5.69878 15.5137H8.72611C8.86076 15.5137 8.96987 15.4046 8.96987 15.2699V10.4475C8.96987 8.82245 9.41126 8.18936 10.5441 8.18936C11.7778 8.18936 11.8758 9.20427 11.8758 10.5311V15.27C11.8758 15.4046 11.9849 15.5137 12.1196 15.5137H15.148C15.2827 15.5137 15.3918 15.4046 15.3918 15.27V9.92365C15.3918 7.50728 14.931 5.03708 11.5138 5.03708Z" fill="white"/>
</svg>
