<svg width="20" height="18" viewBox="0 0 20 18" fill="none" xmlns="http://www.w3.org/2000/svg">
<path d="M0.57483 8.27682C0.799524 7.90622 1.15722 7.72844 1.53205 7.5802C7.17458 5.35664 12.8188 3.13376 18.4647 0.911574C18.6103 0.854041 18.7544 0.790288 18.9131 0.772666C19.506 0.706321 19.8935 1.05256 19.9207 1.66676C19.9403 2.13324 19.8038 2.57381 19.7121 3.02111C19.2305 5.36182 18.7455 7.70201 18.2571 10.0417C17.8168 12.1609 17.376 14.2799 16.9347 16.3988C16.8995 16.5695 16.839 16.7337 16.7553 16.8855C16.5336 17.2856 16.1976 17.4302 15.7679 17.3079C15.5683 17.2515 15.3804 17.1578 15.2137 17.0317C13.8202 15.9791 12.4263 14.9271 11.0322 13.8756C10.9269 13.7963 10.8699 13.7875 10.7687 13.8881C10.0518 14.5997 9.32882 15.3026 8.61142 16.0127C8.44152 16.1881 8.21805 16.2979 7.97865 16.3236C7.88242 16.334 7.83758 16.3236 7.84715 16.1935C7.93683 14.974 8.01693 13.7533 8.09905 12.5332C8.11236 12.4634 8.11861 12.3924 8.11769 12.3212C8.04414 11.8107 8.33533 11.5184 8.67187 11.2084C11.2291 8.86528 13.7787 6.51334 16.3205 4.15259C16.3304 4.14451 16.3398 4.13585 16.3487 4.12668C16.4299 4.03493 16.5865 3.95667 16.5074 3.81258C16.4283 3.66849 16.2772 3.72809 16.1477 3.76075C16.0275 3.79784 15.9137 3.85435 15.8107 3.92816L5.82088 10.363C5.7307 10.4211 5.65463 10.4667 5.52968 10.4237C4.11452 9.96238 2.69582 9.51144 1.27813 9.05844C0.990967 8.96618 0.728489 8.83919 0.572815 8.55152L0.57483 8.27682Z" fill="white"/>
</svg>
