<svg width="31" height="14" viewBox="0 0 31 14" fill="none" xmlns="http://www.w3.org/2000/svg">
<path d="M30.7849 0.323957C30.3049 0.838064 29.8822 1.29247 29.457 1.74445C25.8347 5.58767 22.2144 9.43332 18.5962 13.2814C18.3355 13.5604 18.2051 13.614 17.9139 13.2972C16.1816 11.415 14.4139 9.56692 12.6852 7.68349C12.3733 7.34481 12.1589 7.34724 11.78 7.56166C8.31768 9.47271 4.84847 11.3716 1.37236 13.2583C1.23348 13.3338 1.10678 13.4678 0.877747 13.4227L4.1902 9.9056C7.17495 6.73811 10.1577 3.56779 13.1383 0.394616C13.4173 0.0961417 13.5465 0.143652 13.7974 0.408015C15.6102 2.31825 17.4425 4.209 19.2553 6.11924C19.4855 6.36289 19.6475 6.38604 19.9399 6.22279C23.3803 4.30524 26.8259 2.39663 30.2769 0.49695C30.3999 0.416545 30.512 0.305683 30.7849 0.323957Z" fill="white"/>
</svg>
