<svg width="68" height="74" viewBox="0 0 68 74" fill="none" xmlns="http://www.w3.org/2000/svg">
<g id="Group 1757">
<path id="Vector" d="M67.8552 45.7431C67.8552 45.0721 67.7834 44.4163 67.4527 43.8107C66.6058 42.2618 65.216 41.708 63.5033 41.7917C63.0026 41.816 62.8389 41.6898 62.8498 41.1755C62.8841 39.4653 62.8685 37.7536 62.8607 36.0419C62.8482 33.542 61.3337 32.0662 58.7662 32.0646C40.7122 32.0646 22.657 32.0646 4.60086 32.0646C4.21181 32.0525 3.82259 32.0826 3.44037 32.1544C1.57798 32.5667 0.501723 33.9802 0.500163 36.0328C0.493924 47.1794 0.493924 58.3265 0.500163 69.4742C0.500163 69.6643 0.512641 69.8545 0.529799 70.0432C0.67018 71.5906 1.50623 72.6298 2.97244 73.2034C3.13933 73.2703 3.37486 73.2171 3.47313 73.4316H59.763C62.2773 72.4457 62.8623 71.5951 62.8623 68.9249C62.8623 66.667 62.8935 64.4075 62.8451 62.1511C62.8295 61.4512 62.9824 61.2382 63.742 61.2504C66.3125 61.2838 67.8427 59.7836 67.852 57.2944C67.8661 53.4435 67.8552 49.5925 67.8552 45.7431ZM60.3682 69.4498C60.3682 70.5757 59.9314 71.0033 58.7803 71.0048C40.7054 71.0048 22.63 71.0048 4.55407 71.0048C3.45129 71.0048 3.00363 70.5696 2.99427 69.4833C2.99427 58.3154 2.99427 47.1469 2.99427 35.978C2.99427 34.8871 3.44817 34.4899 4.63829 34.4899H58.5775C59.9954 34.4899 60.3635 34.8399 60.3635 36.1971C60.3635 39.4775 60.3526 42.7563 60.3775 46.0352C60.3775 46.5358 60.2496 46.6621 59.738 46.6575C56.7915 46.6316 53.8435 46.6423 50.8955 46.6453C48.1643 46.6453 46.6482 48.1258 46.6435 50.7899C46.6435 52.9292 46.6435 55.0679 46.6435 57.2062C46.6544 59.7684 48.194 61.2625 50.8316 61.2686C53.8045 61.2762 56.7759 61.2854 59.7474 61.258C60.2746 61.258 60.3822 61.4025 60.3713 61.8894C60.351 64.4121 60.3682 66.9317 60.3635 69.4498H60.3682ZM65.3595 57.3553C65.3595 58.3853 64.9103 58.8296 63.8418 58.8327C59.4588 58.8448 55.0758 58.8448 50.6928 58.8327C49.6149 58.8327 49.1564 58.364 49.1501 57.2929C49.1376 55.0613 49.1376 52.8298 49.1501 50.5982C49.1579 49.5453 49.6352 49.0965 50.7286 49.0904C53.0683 49.0782 55.408 49.0904 57.7477 49.0904C60.0874 49.0904 62.4271 49.1011 64.7668 49.0798C65.2347 49.0798 65.3907 49.1787 65.3907 49.6655C65.3423 52.2247 65.3642 54.79 65.3532 57.3553H65.3595ZM64.1117 46.6499C62.8638 46.6499 62.8638 46.6499 62.8638 45.4327C62.8638 45.4099 62.8545 45.3809 62.8638 45.3627C63.0853 45.0006 62.3569 44.2383 63.3786 44.2094C64.7091 44.1729 65.269 44.5137 65.3501 45.4464C65.4546 46.6484 65.4546 46.6484 64.1101 46.6484L64.1117 46.6499Z" fill="black"/>
<path id="Vector_2" d="M35.8856 29.6487C36.5096 29.6654 36.6874 29.5254 36.6842 28.8879C36.6546 22.8277 36.6671 16.7675 36.6671 10.7073C36.6671 10.365 36.5797 10.0652 37.135 9.93896C40.7974 9.11125 43.0763 6.88223 43.942 3.31276C44.0371 2.91564 44.1962 2.83196 44.5659 2.83652C45.9541 2.85478 47.3439 2.86695 48.7305 2.83652C49.1891 2.82587 49.2889 3.02367 49.3794 3.39035C50.2248 6.84724 52.4304 9.02757 55.9555 9.89331C56.5404 10.0363 56.6496 10.2646 56.648 10.7971C56.6293 16.5013 56.6356 22.2085 56.6356 27.9081C56.6356 29.6563 56.6356 29.6319 58.4636 29.6563C59.0174 29.6639 59.15 29.5163 59.1468 28.9853C59.1234 24.8772 59.1344 20.7691 59.1344 16.6504C59.1344 12.6112 59.1344 8.57112 59.1344 4.52997C59.1344 1.90535 57.6089 0.421875 54.9229 0.421875C49.4418 0.421875 43.9602 0.421875 38.478 0.421875C35.6298 0.421875 34.1683 1.85058 34.1683 4.63495V27.9339C34.1761 29.635 34.1777 29.6076 35.8856 29.6487ZM55.2832 3.00084C56.1193 3.02215 56.5919 3.46491 56.6262 4.29413C56.6699 5.31355 56.6262 6.33601 56.6449 7.35695C56.6449 7.66125 56.5529 7.70994 56.2565 7.66125C54.1914 7.26413 52.0669 5.03816 51.8517 2.99476C52.9997 2.99476 54.143 2.98107 55.2832 3.00084ZM36.6671 5.79435C36.6671 5.29833 36.6468 4.79928 36.6671 4.30326C36.7092 3.49534 37.1709 3.02519 37.9976 3.00237C39.0411 2.97041 40.0846 3.00237 41.1281 2.98715C41.504 2.97954 41.5071 3.12257 41.4151 3.41013C40.7335 5.56003 39.2969 6.95983 37.0945 7.63234C36.7014 7.75254 36.6421 7.62321 36.6546 7.28543C36.6811 6.78486 36.6671 6.29188 36.6671 5.79435Z" fill="black"/>
<path id="Vector_3" d="M19.3503 29.5268C19.6934 29.8129 20.4655 29.5831 21.0411 29.6425C21.6166 29.7018 21.7274 29.5025 21.7227 28.9745C21.6993 25.3396 21.7227 21.7032 21.6977 18.0683C21.6977 17.5251 21.8319 17.3243 22.4075 17.1797C25.8624 16.3185 28.0633 14.1899 28.918 10.7894C29.0381 10.3086 29.2066 10.0682 29.7697 10.1214C30.3718 10.1762 31.1829 10.3496 31.5416 10.0529C31.9581 9.70908 31.6165 8.89355 31.6976 8.28951C31.7662 7.75089 31.5151 7.6809 31.0378 7.68851C28.5047 7.70981 25.9716 7.68851 23.4385 7.69916C20.7369 7.69916 19.227 9.16438 19.2177 11.789C19.2177 14.5445 19.2177 17.3014 19.2177 20.0569C19.2177 22.6435 19.2083 25.2377 19.2177 27.8273C19.2239 28.4131 18.94 29.1875 19.3503 29.5268ZM21.7227 11.4101C21.7461 10.6357 22.1906 10.1823 23.008 10.1534C24.1685 10.1108 25.3305 10.1427 26.5004 10.1427C26.1541 12.2881 24.1981 14.3482 22.1438 14.7833C21.8428 14.8472 21.6977 14.8275 21.704 14.479C21.7243 13.4505 21.6931 12.4296 21.7227 11.4101Z" fill="black"/>
<path id="Vector_4" d="M46.5484 12.5787C42.3978 12.6882 39.0614 16.0782 39.1674 20.0615C39.2797 24.0175 42.755 27.2765 46.7621 27.1913C50.8706 27.1031 54.2397 23.7162 54.1352 19.78C54.0229 15.745 50.5758 12.4722 46.5484 12.5787ZM51.6302 19.85C51.6614 22.4944 49.4683 24.6808 46.7106 24.7523C44.0278 24.8208 41.6553 22.537 41.6584 19.8835C41.6615 17.23 43.917 15.0436 46.6388 15.0146C49.3607 14.9857 51.5959 17.1813 51.6271 19.85H51.6302Z" fill="black"/>
<path id="Vector_5" d="M4.21875 27.7377C4.21875 29.7157 4.21875 29.7157 6.24648 29.6442C6.64111 29.632 6.73158 29.5103 6.7269 29.1512C6.70974 27.8701 6.74873 26.5859 6.70662 25.3048C6.68946 24.8057 6.84544 24.6232 7.3399 24.5045C10.8432 23.6737 13.0581 21.5269 13.9487 18.1232C14.1047 17.5572 14.3106 17.4264 14.8628 17.4355C16.8032 17.4629 16.7891 17.4355 16.7345 15.5169C16.7221 15.1061 16.5926 14.9965 16.1855 14.9996C13.5338 15.0148 10.8822 14.9813 8.23054 15.0163C5.76918 15.0483 4.25463 16.5759 4.23903 18.9723C4.22811 20.6109 4.23903 22.2496 4.23903 23.8867L4.21875 27.7377ZM6.71442 18.9555C6.73158 17.9072 7.18236 17.4751 8.28513 17.4492C8.72187 17.4386 9.15861 17.4492 9.59536 17.4492C10.082 17.4492 10.5687 17.466 11.0522 17.4492C11.4281 17.434 11.5981 17.507 11.4624 17.9224C10.7777 20.0114 9.36451 21.3869 7.23539 22.0731C6.82984 22.204 6.68478 22.1035 6.70038 21.6638C6.73938 20.757 6.70506 19.8563 6.72066 18.957L6.71442 18.9555Z" fill="black"/>
<path id="Vector_6" d="M31.1189 22.3487C27.9057 22.4841 24.9905 25.0311 24.3322 28.31C24.0655 29.6337 24.0655 29.6337 25.4116 29.6337C25.5332 29.6269 25.6551 29.6269 25.7766 29.6337C26.4005 29.7098 26.686 29.5926 26.8045 28.8288C27.0978 26.93 28.2848 25.661 30.1596 24.987C30.6619 24.8059 31.4075 25.0783 31.6368 24.5458C31.8395 24.0558 31.6492 23.4214 31.696 22.8569C31.7303 22.3837 31.5463 22.3304 31.1189 22.3487Z" fill="black"/>
<path id="Vector_7" d="M54.2444 51.5386C53.7525 51.5192 53.2657 51.6429 52.846 51.8939C52.4263 52.1449 52.0926 52.512 51.8872 52.9485C51.6818 53.385 51.6141 53.8711 51.6926 54.3452C51.7712 54.8193 51.9924 55.2599 52.3282 55.6111C52.664 55.9623 53.0993 56.2082 53.5787 56.3175C54.0581 56.4269 54.56 56.3947 55.0206 56.2252C55.4813 56.0557 55.8798 55.7564 56.1657 55.3654C56.4516 54.9744 56.6119 54.5094 56.6262 54.0293C56.6444 53.3921 56.4047 52.7736 55.959 52.3075C55.5132 51.8414 54.8973 51.5651 54.2444 51.5386Z" fill="black"/>
</g>
</svg>
