<svg width="86" height="82" viewBox="0 0 86 82" fill="none" xmlns="http://www.w3.org/2000/svg">
<g id="01q 3">
<path id="Vector" d="M45.1123 80.7189C45.2698 80.7288 45.4676 80.5981 45.5544 80.8437H45.1002C45.0477 80.812 45.0335 80.7823 45.0537 80.7565C45.0739 80.7308 45.0921 80.7189 45.1123 80.7189Z" fill="#7B7B7B"/>
<path id="Vector_2" d="M41.3045 4.91974H40.8522C40.8078 4.88806 40.7957 4.85835 40.8118 4.83062C40.828 4.8029 40.8441 4.79102 40.8603 4.79102H41.3146C41.365 4.8227 41.3812 4.85241 41.361 4.87816C41.3561 4.88934 41.3483 4.89908 41.3384 4.90638C41.3285 4.91368 41.3168 4.91829 41.3045 4.91974Z" fill="#4D4D4D"/>
<path id="Vector_3" d="M40.8522 80.7134H41.3044C41.361 80.7371 41.3812 80.7629 41.365 80.7926C41.3489 80.8223 41.3327 80.8382 41.3145 80.8382H40.8603C40.8118 80.8124 40.7957 80.7827 40.8098 80.753C40.8239 80.7233 40.8381 80.7134 40.8522 80.7134Z" fill="#4F4F4F"/>
<path id="Vector_4" d="M45.1123 80.7192C45.1123 80.7602 45.1083 80.8018 45.1002 80.844H44.6459C44.5954 80.8123 44.5793 80.7826 44.5995 80.7569C44.6052 80.7466 44.6133 80.7379 44.6231 80.7313C44.6329 80.7248 44.6442 80.7206 44.656 80.7192H45.1123Z" fill="#505050"/>
<path id="Vector_5" d="M45.1082 4.92555H44.656C44.5994 4.90178 44.5793 4.87604 44.5954 4.84633C44.6116 4.81662 44.6277 4.80078 44.6459 4.80078H45.1002C45.1486 4.82851 45.1648 4.85623 45.1506 4.88594C45.1365 4.91565 45.1224 4.92555 45.1082 4.92555Z" fill="#4E4E4E"/>
<path id="Vector_6" d="M40.8603 4.79492C40.8633 4.83778 40.8633 4.88079 40.8603 4.92365C40.7351 4.93751 40.6059 4.96524 40.5655 4.79492H40.8603Z" fill="#707070"/>
<path id="Vector_7" d="M41.3044 4.91969C41.3044 4.8781 41.3044 4.83651 41.3145 4.79492H41.6174C41.5898 4.84968 41.5428 4.89262 41.4851 4.91561C41.4274 4.93861 41.3631 4.94006 41.3044 4.91969Z" fill="#353535"/>
<path id="Vector_8" d="M44.6459 4.79492C44.6459 4.83651 44.6459 4.8781 44.656 4.91969C44.5973 4.94006 44.533 4.93861 44.4753 4.91561C44.4177 4.89262 44.3706 4.84968 44.343 4.79492H44.6459Z" fill="#353535"/>
<path id="Vector_9" d="M45.7059 4.79492C45.6695 4.9791 45.5342 4.93553 45.4091 4.91969C45.3566 4.89592 45.3364 4.8682 45.3525 4.83849C45.3687 4.80878 45.3848 4.79492 45.403 4.79492H45.7059Z" fill="#8F8F8F"/>
<path id="Vector_10" d="M45.403 4.79503C45.403 4.83728 45.403 4.87887 45.403 4.9198H45.1022C45.0972 4.8757 45.0972 4.8312 45.1022 4.78711L45.403 4.79503Z" fill="#707070"/>
<path id="Vector_11" d="M40.2546 80.844C40.2909 80.6598 40.4262 80.7033 40.5514 80.7192C40.6039 80.7429 40.6241 80.7707 40.6079 80.8004C40.5918 80.8301 40.5736 80.844 40.5574 80.844H40.2546Z" fill="#929292"/>
<path id="Vector_12" d="M40.5574 80.844C40.5574 80.8031 40.5574 80.7615 40.5574 80.7192H40.8583C40.8633 80.7627 40.8633 80.8065 40.8583 80.8499L40.5574 80.844Z" fill="#737373"/>
<path id="Vector_13" d="M41.3145 80.8436C41.3145 80.802 41.3145 80.7605 41.3044 80.7189C41.3631 80.6981 41.4275 80.6993 41.4853 80.7223C41.5431 80.7454 41.5902 80.7886 41.6174 80.8436H41.3145Z" fill="#373737"/>
<path id="Vector_14" d="M44.656 80.7189C44.656 80.7605 44.656 80.802 44.6459 80.8436H44.343C44.3702 80.7886 44.4173 80.7454 44.4751 80.7223C44.5329 80.6993 44.5973 80.6981 44.656 80.7189Z" fill="#373737"/>
<path id="Vector_15" d="M80.1299 39.8488C79.9946 39.0982 80.0552 38.3298 79.9542 37.5792C79.3717 33.229 78.0087 29.0143 75.9283 25.1302C73.5365 20.6473 70.2601 16.6755 66.2896 13.4456C61.5023 9.49513 55.8026 6.7531 49.6873 5.45848C47.9409 5.08021 46.1682 4.9297 44.3935 4.78711H44.0907C43.9917 4.89009 43.8605 4.85643 43.7414 4.86435H43.0812C42.96 4.85444 42.8268 4.89207 42.7278 4.78711H40.0022C39.9053 4.89009 39.7761 4.85643 39.6569 4.86435H39.2875C39.1683 4.86435 39.0391 4.89009 38.9422 4.78711H38.1851C38.0801 5.05249 37.8398 4.92574 37.6642 4.94356C33.0675 5.37606 28.5878 6.61714 24.4397 8.60738C8.45527 16.3311 0.0360339 32.9509 3.34114 50.2243C6.31311 65.7589 19.6264 78.202 35.6452 80.434C36.4528 80.5469 37.2826 80.4736 38.0377 80.8439H38.6434C38.7423 80.7409 38.8736 80.7746 38.9927 80.7667H39.6529C39.774 80.7766 39.9073 80.739 40.0062 80.8439H42.7319C42.8348 80.735 42.9681 80.7766 43.0933 80.7667H43.4809C43.6364 80.7885 43.808 80.7132 43.9433 80.8439H44.3935C45.1829 80.7033 45.9905 80.7627 46.782 80.6617C50.8143 80.1402 54.7336 78.9804 58.3872 77.2276C63.3874 74.8346 67.8077 71.4198 71.3512 67.2126C75.4094 62.4595 78.0624 57.0252 79.4454 50.9729C79.825 49.3094 79.9663 47.6181 80.1299 45.9288V45.3346C80.0269 45.2435 80.0592 45.1207 80.0511 45.0059V44.4751C80.0511 44.3622 80.0269 44.2394 80.1299 44.1464V41.4827C80.0269 41.3896 80.0592 41.2688 80.0511 41.1539V40.6232C80.0511 40.5103 80.0269 40.3875 80.1299 40.2944V39.8488ZM41.3408 78.6159C21.173 78.5902 4.8352 62.5348 4.87356 42.77C4.91192 23.0052 21.2961 6.96361 41.4256 7.02303C61.6156 7.08244 77.9291 23.1517 77.8565 42.8987C77.7838 62.6457 61.4581 78.6397 41.3408 78.6159Z" fill="black"/>
<path id="Vector_16" d="M58.1469 14.4735C51.3671 10.5008 43.9695 9.27885 36.164 10.4216C33.0742 10.8772 30.0694 11.776 27.2461 13.0892C26.5556 13.4061 26.2931 14.0002 26.5415 14.5904C26.7898 15.1806 27.4298 15.3944 28.1425 15.1311C28.2597 15.0875 28.3727 15.034 28.4878 14.9825C32.002 13.4098 35.7857 12.4976 39.6428 12.2931C40.1395 12.2654 40.2485 12.3921 40.2364 12.8417C40.2101 13.8319 40.2222 14.8221 40.2364 15.8123C40.2505 16.8025 40.6139 17.262 41.3488 17.2759C42.0838 17.2897 42.4997 16.7966 42.5057 15.7806C42.5118 14.7647 42.5219 13.8002 42.5057 12.81C42.5057 12.4139 42.5825 12.2555 43.0529 12.2871C44.9904 12.3993 46.9139 12.6797 48.801 13.1249C53.7122 14.3206 58.2573 16.6595 62.0517 19.9435C62.5463 20.3673 62.514 20.5792 62.0517 20.9793C61.3188 21.621 60.6384 22.33 59.956 23.0172C59.3281 23.645 59.2756 24.2747 59.7985 24.7699C60.3214 25.265 60.9211 25.2036 61.5308 24.6114C62.407 23.7598 63.2651 22.8884 64.1272 22.0368C64.185 22.0697 64.2398 22.1074 64.2908 22.1497C64.4321 22.2903 64.5734 22.4329 64.7047 22.5815C69.4534 27.9273 72.0505 34.1393 72.496 41.2174C72.5202 41.6293 72.4011 41.7323 72.0074 41.7244C71.0504 41.7046 70.0893 41.7244 69.1323 41.7244C68.9304 41.7244 68.7285 41.7244 68.5266 41.7244C67.8382 41.7818 67.4243 42.1878 67.4121 42.7998C67.4018 42.9432 67.4219 43.0872 67.4712 43.2226C67.5204 43.358 67.5978 43.4819 67.6983 43.5865C67.7989 43.6911 67.9205 43.7741 68.0554 43.8302C68.1903 43.8864 68.3357 43.9145 68.4822 43.9128C69.6411 43.9623 70.802 43.9504 71.963 43.9385C72.3668 43.9385 72.5323 44.0039 72.5 44.4693C72.3684 46.542 72.0358 48.5978 71.5067 50.6087C70.2729 55.2148 67.9589 59.4745 64.7491 63.0478C64.3453 63.4934 64.1151 63.6637 63.6366 63.1092C62.9865 62.3566 62.2233 61.6892 61.5086 60.998C60.9029 60.4237 60.2669 60.394 59.7763 60.8871C59.2857 61.3803 59.326 61.9922 59.9237 62.5864C60.7918 63.4478 61.6762 64.2975 62.5988 65.1966C62.1446 65.5927 61.7165 65.965 61.2784 66.3294C60.0891 67.2858 58.8403 68.1688 57.5392 68.9733C57.4052 69.0453 57.2882 69.1444 57.1961 69.264C57.1039 69.3835 57.0386 69.5209 57.0045 69.667C56.9703 69.8132 56.9681 69.9647 56.998 70.1117C57.0279 70.2587 57.0892 70.3979 57.1778 70.52C57.5089 71.0171 58.1167 71.1557 58.7082 70.8626C58.8621 70.7832 59.0105 70.6939 59.1524 70.5953C70.6082 62.9785 75.9667 52.4069 74.4867 38.8904C73.3097 28.1366 67.5757 19.999 58.1469 14.4735Z" fill="black"/>
<path id="Vector_17" d="M53.4124 71.0307C53.2953 71.0703 53.1802 71.1198 53.0631 71.1654C49.8783 72.4177 46.5069 73.1535 43.0812 73.3438C42.5764 73.3716 42.4755 73.229 42.4936 72.7893C42.5219 72.0466 42.4775 71.304 42.5057 70.5613C42.5683 68.977 42.427 68.4383 41.3832 68.3828C40.6563 68.3412 40.1173 68.6344 40.2222 70.5257C40.2626 71.2901 40.2122 72.0605 40.2344 72.8269C40.2465 73.2329 40.1556 73.3775 39.6872 73.3458C37.7752 73.2344 35.8768 72.9587 34.0138 72.522C29.051 71.3311 24.4595 68.9701 20.6379 65.6439C20.1917 65.2617 20.2341 65.0755 20.6379 64.7131C21.3991 64.0298 22.1158 63.2971 22.8366 62.5683C23.4201 61.9741 23.4423 61.3463 22.9456 60.8691C22.449 60.3918 21.8211 60.4334 21.2133 61.0215C20.3371 61.8731 19.473 62.7425 18.6088 63.5961C18.5543 63.5654 18.5029 63.5296 18.4554 63.4892C13.4079 58.0628 10.6903 51.6798 10.238 44.3542C10.2118 43.9145 10.4399 43.9383 10.7388 43.9383C11.8492 43.9383 12.9597 43.9581 14.0701 43.9383C14.8959 43.9165 15.3623 43.4511 15.33 42.7678C15.2977 42.1163 14.8434 41.736 14.0277 41.7241C12.9435 41.7103 11.8593 41.7063 10.7731 41.7241C10.3491 41.7241 10.2118 41.633 10.2461 41.1815C10.3377 39.7505 10.5198 38.3265 10.7912 36.9176C11.8655 31.5299 14.4032 26.5267 18.1364 22.4366C18.4655 22.0722 18.6371 22.0524 18.9783 22.4129C19.6971 23.1753 20.4623 23.8982 21.2194 24.625C21.8251 25.2053 22.453 25.2469 22.9517 24.7656C23.4504 24.2844 23.4161 23.6546 22.8326 23.0664C22.0916 22.3218 21.3506 21.5771 20.5794 20.8661C20.2402 20.5512 20.1756 20.375 20.5794 20.0383C21.6881 19.1034 22.8445 18.2243 24.044 17.4043C24.7466 16.927 24.9021 16.325 24.5265 15.7625C24.151 15.2001 23.4544 15.1248 22.7377 15.5863C10.0705 23.7219 4.61916 40.0962 9.92308 54.0385C15.9114 69.7771 32.4531 78.5207 49.0917 74.7381C50.8555 74.3317 52.5816 73.7819 54.2523 73.0943C54.9488 72.8111 55.2275 72.2071 54.9892 71.603C54.751 70.999 54.1231 70.793 53.4124 71.0307Z" fill="black"/>
<path id="Vector_18" d="M54.3957 28.0513C54.2024 28.2101 54.021 28.3822 53.8526 28.5662C50.3395 32.0122 46.8291 35.4595 43.3215 38.9081C43.0105 39.215 42.7622 39.3774 42.2918 39.1972C41.6954 38.9715 41.0347 38.9715 40.4383 39.1972C39.9679 39.3774 39.7196 39.215 39.4106 38.9061C37.5935 37.092 35.7441 35.2957 33.9048 33.4975C33.2487 32.8558 32.5582 32.7905 32.0615 33.2995C31.5648 33.8084 31.6577 34.4204 32.2896 35.0502C33.927 36.6622 35.5503 38.2882 37.22 39.8686C37.8782 40.4904 38.4698 41.0568 37.9973 42.0471C37.9647 42.165 37.9524 42.2875 37.961 42.4095C38.0216 43.7958 38.6656 44.8355 39.9457 45.4138C41.2257 45.9921 42.4634 45.8238 43.5496 44.9385C44.6358 44.0532 44.9871 42.8551 44.6338 41.5321C44.5601 41.3448 44.5494 41.1392 44.6031 40.9454C44.6569 40.7516 44.7723 40.5797 44.9326 40.4548C48.4565 37.022 51.9709 33.578 55.4759 30.1228C55.6653 29.9595 55.8403 29.7806 55.9988 29.5881C56.3622 29.0811 56.3622 28.5523 55.9019 28.1127C55.4415 27.673 54.9045 27.677 54.3957 28.0513ZM41.3247 43.4987C41.0334 43.4845 40.7589 43.361 40.5579 43.1539C40.3569 42.9467 40.2447 42.6717 40.2445 42.3857C40.2445 42.0942 40.3626 41.8146 40.5727 41.6085C40.7828 41.4024 41.0679 41.2866 41.365 41.2866C41.6622 41.2866 41.9472 41.4024 42.1574 41.6085C42.3675 41.8146 42.4856 42.0942 42.4856 42.3857C42.4862 42.5343 42.4564 42.6815 42.3979 42.8186C42.3395 42.9557 42.2536 43.0799 42.1454 43.1839C42.0371 43.2878 41.9087 43.3694 41.7677 43.4239C41.6268 43.4783 41.4761 43.5044 41.3247 43.5007V43.4987Z" fill="black"/>
<path id="Vector_19" d="M41.3408 55.6766C42.6027 55.6766 43.8625 55.6905 45.1244 55.6766C46.0188 55.6648 46.5175 55.237 46.5094 54.5438C46.5014 53.8507 46.0006 53.4566 45.0961 53.4546C42.6249 53.4546 40.1536 53.4546 37.6824 53.4546C36.7233 53.4546 36.2125 53.8507 36.2226 54.5735C36.2327 55.2964 36.7496 55.6707 37.7126 55.6786C38.92 55.6846 40.1314 55.6766 41.3408 55.6766Z" fill="black"/>
</g>
</svg>
