<svg width="68" height="80" viewBox="0 0 68 80" fill="none" xmlns="http://www.w3.org/2000/svg">
<g id="Group 1760">
<path id="Vector" d="M3.79329 55.4775C3.79169 55.6763 3.74948 55.8727 3.66913 56.0553C3.58878 56.2379 3.47191 56.403 3.32537 56.5409C3.17882 56.6789 3.00555 56.7868 2.81571 56.8585C2.62588 56.9302 2.42329 56.9642 2.21984 56.9585C1.80882 56.9563 1.41536 56.7955 1.12532 56.5111C0.835271 56.2267 0.67218 55.8419 0.671631 55.4406C0.674085 55.2351 0.718205 55.0322 0.801442 54.8435C0.884679 54.6549 1.00538 54.4842 1.15658 54.3413C1.30777 54.1984 1.48646 54.0863 1.68232 54.0112C1.87818 53.9362 2.08732 53.8998 2.29767 53.9042C2.7091 53.9207 3.09716 54.0954 3.3773 54.3901C3.65744 54.6848 3.80696 55.0757 3.79329 55.4775Z" fill="black"/>
<path id="Vector_2" d="M67.4255 39.9369C67.443 39.2435 67.381 38.5504 67.2404 37.8706C66.3822 34.1734 63.3089 31.7907 59.3248 31.7887C49.7018 31.7805 40.0795 31.7805 30.4579 31.7887H29.4629C31.1078 29.7881 31.8735 27.6273 31.6569 25.2036C31.5655 24.0227 31.2281 22.8725 30.6653 21.8235C30.1024 20.7745 29.3261 19.8488 28.3838 19.1032C26.8088 17.8167 24.8315 17.0932 22.7785 17.0521C20.7255 17.0111 18.7196 17.6549 17.0919 18.8773C15.4263 20.0766 14.2501 21.8139 13.7725 23.7802C13.0468 26.6989 13.7326 29.3383 15.6994 31.7907C13.1225 31.7907 10.7098 31.7456 8.30122 31.801C4.254 31.8955 0.964062 34.9108 0.728465 38.8462C0.579114 41.4055 0.667462 43.9812 0.654841 46.5446C0.654841 47.2368 0.621184 47.9331 0.68429 48.6212C0.692036 48.8408 0.749753 49.056 0.853255 49.2512C0.956757 49.4464 1.10345 49.6166 1.28269 49.7495C1.46193 49.8825 1.66923 49.9748 1.88954 50.0198C2.10986 50.0648 2.33767 50.0613 2.55645 50.0097C3.33055 49.87 3.79123 49.26 3.79333 48.2966C3.80385 45.497 3.79333 42.6995 3.79333 39.902C3.79333 36.7491 5.71807 34.8532 8.92387 34.8532C23.357 34.8532 37.7901 34.8532 52.2232 34.8532C55.3785 34.8532 59.6133 34.4744 59.6217 37.5534C59.6217 39.9134 59.5712 44.3039 59.6217 46.664C58.754 47.9655 57.1792 47.7605 56.4955 47.7564C51.447 47.7263 46.3985 47.7222 41.35 47.7441C36.7979 47.7626 33.3061 50.8436 33.0978 54.9824C32.8706 59.5012 36.4046 63.0936 41.1228 63.108C46.2765 63.1272 51.4295 63.1237 56.5818 63.0977C57.2128 63.0977 59.6217 63.1498 60.547 63.108C60.5091 65.4434 60.5491 71.2245 60.547 73.5619C60.547 76.8483 55.4395 76.0379 52.0844 76.0379H9.1174C5.69914 76.0379 3.80595 74.1893 3.80385 70.8474C3.80385 68.1013 3.80385 65.3551 3.80385 62.6068C3.80385 61.9167 3.62715 61.3333 2.96243 60.9903C1.84124 60.4049 0.663255 61.1957 0.64853 62.5781C0.627495 65.503 0.595942 68.4319 0.64853 71.3568C0.720051 74.8815 2.81518 77.6708 6.04623 78.7245C6.43117 78.8498 6.88764 78.8067 7.19686 79.1127H60.547C60.8036 78.8334 61.178 78.9607 61.4872 78.8765C65.1726 77.8967 67.4234 74.9328 67.4255 70.9666C67.4326 60.6254 67.4326 50.2822 67.4255 39.9369ZM22.62 31.7558C21.4386 31.7648 20.281 31.4305 19.2946 30.7954C18.3082 30.1603 17.5375 29.2532 17.0804 28.1893C16.6233 27.1254 16.5006 25.9528 16.7278 24.8207C16.9549 23.6885 17.5218 22.6478 18.3562 21.831C19.1906 21.0142 20.255 20.4581 21.4139 20.2335C22.5728 20.0089 23.774 20.1258 24.8647 20.5694C25.9553 21.0131 26.8863 21.7634 27.5391 22.725C28.192 23.6866 28.5372 24.816 28.531 25.9697C28.525 27.4993 27.9013 28.9648 26.7954 30.0481C25.6895 31.1314 24.1907 31.745 22.6243 31.7558H22.62ZM63.5782 60.0455C59.7707 60.0455 55.9619 60.0455 52.1517 60.0455C48.3653 60.0455 44.5789 60.0804 40.8052 60.0311C38.7963 60.0044 37.3659 58.961 36.5981 57.1781C35.8303 55.3952 36.1984 53.752 37.5068 52.3245C37.933 51.8452 38.4612 51.4625 39.0545 51.2032C39.6478 50.9439 40.2919 50.8141 40.9419 50.8231C48.5336 50.8087 56.1253 50.8231 63.7149 50.8066C64.1735 50.8066 64.2913 50.9525 64.2892 51.3817C64.2723 54.0745 64.2597 56.7673 64.2892 59.4601C64.306 60.0763 64.001 60.0475 63.5782 60.0455Z" fill="black"/>
<path id="Vector_3" d="M28.5353 5.11367C28.5353 7.96256 28.5353 10.8115 28.5353 13.6603C28.5353 14.7572 29.2084 15.4206 30.2055 15.3734C31.1184 15.3302 31.678 14.6873 31.678 13.6357C31.678 9.8358 31.657 6.03592 31.6948 2.23808C31.6948 1.31378 31.4066 0.658559 30.5652 0.243652H29.6249C28.794 0.709909 28.4617 1.40005 28.5227 2.34078C28.5837 3.28151 28.5353 4.19759 28.5353 5.11367Z" fill="black"/>
<path id="Vector_4" d="M20.9772 8.27888C20.9772 9.36955 21.6503 10.1008 22.5843 10.0864C23.5183 10.072 24.1178 9.38187 24.122 8.31174C24.122 6.28445 24.0904 4.2551 24.1388 2.22781C24.1619 1.30146 23.859 0.644181 22.9987 0.243652H22.0521C21.2401 0.724287 20.9351 1.41443 20.9582 2.349C21.0108 4.32494 20.9667 6.30293 20.9772 8.27888Z" fill="black"/>
<path id="Vector_5" d="M45.4877 21.3938C47.2859 21.3954 49.0443 20.8765 50.5406 19.9027C52.037 18.9289 53.2041 17.5438 53.8946 15.9225C54.585 14.3012 54.7678 12.5164 54.4198 10.7937C54.0719 9.07103 53.2088 7.4877 51.9396 6.2438C50.6704 4.99991 49.052 4.15128 47.2891 3.80514C45.5261 3.459 43.6976 3.63089 42.0347 4.29909C40.3717 4.96729 38.9489 6.1018 37.9461 7.55928C36.9432 9.01676 36.4053 10.7318 36.4003 12.4877C36.3954 13.6558 36.6268 14.8135 37.0813 15.8941C37.5358 16.9747 38.2044 17.9569 39.0488 18.7845C39.8932 19.612 40.8967 20.2686 42.0016 20.7163C43.1066 21.1641 44.2913 21.3943 45.4877 21.3938ZM45.5844 6.7098C46.7592 6.72651 47.9025 7.08276 48.8701 7.73355C49.8376 8.38434 50.586 9.30049 51.0206 10.3663C51.4553 11.4321 51.5568 12.5998 51.3122 13.7219C51.0677 14.844 50.4881 15.8701 49.6467 16.6708C48.8053 17.4715 47.7398 18.0107 46.5847 18.2205C45.4296 18.4303 44.2368 18.3011 43.1568 17.8493C42.0769 17.3976 41.1583 16.6435 40.5169 15.6822C39.8756 14.721 39.5404 13.5958 39.5536 12.4487C39.5598 11.6841 39.7212 10.9283 40.0284 10.225C40.3356 9.52169 40.7825 8.88481 41.3433 8.35118C41.9041 7.81754 42.5677 7.39772 43.2956 7.11599C44.0236 6.83426 44.8015 6.6962 45.5844 6.7098Z" fill="black"/>
<path id="Vector_6" d="M42.12 55.4243C42.1261 55.6232 42.0915 55.8213 42.018 56.0069C41.9446 56.1925 41.8338 56.3619 41.6923 56.5051C41.5508 56.6483 41.3813 56.7623 41.1939 56.8406C41.0065 56.9188 40.805 56.9596 40.6012 56.9606C40.3908 56.9662 40.1815 56.9303 39.9856 56.8551C39.7898 56.7799 39.6114 56.6669 39.4612 56.5229C39.311 56.379 39.1921 56.207 39.1115 56.0171C39.0309 55.8273 38.9902 55.6236 38.992 55.4181C39.0059 55.0174 39.1766 54.6371 39.4688 54.3556C39.7611 54.074 40.1528 53.9125 40.5633 53.9043C40.9757 53.9059 41.3706 54.0666 41.6622 54.3513C41.9538 54.636 42.1183 55.0216 42.12 55.4243Z" fill="#010101"/>
</g>
</svg>
