<svg width="69" height="82" viewBox="0 0 69 82" fill="none" xmlns="http://www.w3.org/2000/svg">
<g id="Group 1758">
<path id="Vector" d="M48.3917 20.5193C48.1568 20.7008 47.9389 20.9022 47.7406 21.1213L35.2057 33.3232C34.4979 34.0093 33.8104 35.1846 33.0527 35.231C32.1996 35.2864 31.5621 34.0226 30.8316 33.332C29.4182 32.0041 28.0365 30.6296 26.6548 29.2662C26.4668 29.056 26.2157 28.9088 25.9372 28.8457C25.6586 28.7825 25.3668 28.8065 25.103 28.9143C24.5698 29.1157 24.2545 29.5296 24.2273 30.26C24.2023 30.7026 24.5766 31.0656 24.9601 31.4397C27.4353 33.8499 29.9309 36.2469 32.3743 38.697C32.9392 39.2636 33.2206 39.195 33.7515 38.6727C39.083 33.4316 44.4297 28.2053 49.7915 22.9938C49.9886 22.819 50.1707 22.6287 50.336 22.4249C50.7898 21.8097 50.7444 21.1811 50.2112 20.6543C49.6781 20.1276 49.0224 20.0966 48.3917 20.5193Z" fill="black"/>
<path id="Vector_2" d="M66.534 29.7344C65.2182 27.9637 63.4848 26.5517 61.9534 24.967C60.887 23.9213 60.2337 22.5416 60.1089 21.0716C59.9433 19.1194 60.0794 17.1673 59.991 15.2152C59.8117 11.2313 57.9809 9.19728 53.9674 8.57534C52.3793 8.32524 50.7662 8.39164 49.1713 8.46025C46.2038 8.58419 43.783 7.64355 41.8387 5.40591C40.7481 4.12582 39.4956 2.98575 38.1112 2.01294C35.4386 0.169271 32.7751 0.175911 30.1705 2.08155C29.4569 2.61555 28.7751 3.18899 28.1287 3.79906C27.0851 4.75963 26.0868 5.76668 25.0523 6.73388C24.0569 7.66433 22.7607 8.22775 21.386 8.32745C19.3441 8.51779 17.3181 8.36729 15.2853 8.45582C11.1766 8.63067 9.05985 10.4832 8.4609 14.4317C8.21588 16.054 8.2794 17.6852 8.33612 19.3009C8.43368 21.9857 7.52391 24.1702 5.44347 25.9563C4.09516 27.0763 2.87778 28.3381 1.81347 29.7189C-0.162607 32.3748 -0.139919 34.9887 1.87473 37.627C2.65317 38.6895 3.5613 39.6557 4.57908 40.5042C7.45358 42.8171 8.92826 45.6501 8.3452 49.3441C8.3452 50.2538 8.30209 51.1679 8.3452 52.0775C8.57207 56.1965 10.4234 58.1574 14.5661 58.7484C16.3607 59.0029 18.1666 58.8834 19.9635 58.8745C22.3388 58.8613 24.3126 59.6116 25.9303 61.3357C26.9444 62.4158 28.0136 63.4456 29.1337 64.421C32.5369 67.3935 35.6314 67.3979 39.1026 64.4852C39.5065 64.1444 39.8944 63.7836 40.2778 63.4228C41.2602 62.4933 42.2312 61.5548 43.2272 60.6297C44.1796 59.7034 45.4289 59.1237 46.7664 58.9874C48.831 58.7661 50.9024 58.9608 52.9669 58.8546C57.2934 58.6333 59.3807 56.8007 59.9274 52.6773C60.0149 51.7378 60.0467 50.7941 60.0227 49.851C60.0363 48.6469 60.0454 47.4451 60.1339 46.2411C60.2173 44.7981 60.8415 43.4354 61.8876 42.4121C63.1672 41.1306 64.4649 39.8646 65.7241 38.5632C66.4909 37.7872 67.106 36.8811 67.5391 35.8895C68.4829 33.6364 67.9248 31.6201 66.534 29.7344ZM64.0271 36.1086C63.1034 37.2655 62.0629 38.3288 60.9212 39.2825C58.2486 41.5932 56.9622 44.424 57.146 47.9143C57.2408 49.4757 57.1937 51.0422 57.0053 52.5954C56.733 54.7158 55.8006 55.6498 53.6544 55.9486C51.6261 56.2297 49.5865 56.0659 47.5537 56.1124C45.0762 56.1721 42.9232 56.9379 41.1445 58.6421C40.1667 59.5761 39.2047 60.5279 38.2201 61.453C37.7001 61.9579 37.1493 62.4317 36.5707 62.8717C34.7557 64.1886 33.4943 64.1776 31.6657 62.8717C30.447 61.9543 29.3293 60.9158 28.3306 59.7731C25.9847 57.219 23.1442 55.8977 19.5755 56.0769C18.0422 56.1676 16.5039 56.1321 14.9767 55.9707C12.2951 55.663 11.2991 54.6693 11.1199 52.0155C10.9906 49.9351 11.1516 47.8501 10.9588 45.7674C10.8181 43.9032 10.028 42.1421 8.71954 40.7765C7.76667 39.7739 6.76615 38.8155 5.78832 37.835C5.46162 37.5097 5.12811 37.1887 4.81956 36.8479C2.52359 34.3358 2.51225 32.8308 4.85359 30.3298C5.96528 29.17 7.16545 28.0788 8.29982 26.9412C9.92424 25.3255 10.9043 23.4221 10.9838 21.1247C11.011 20.4098 11.0654 19.6949 11.079 18.9778C11.104 17.7738 11.079 16.5675 11.129 15.3657C11.2719 12.4685 12.4494 11.3287 15.4055 11.2003C16.313 11.1605 17.2069 11.2003 18.1076 11.2003V11.1693H18.2074C22.5929 11.5589 26.1866 10.1512 28.9931 6.79586C29.8191 5.80974 30.7838 4.94242 31.8585 4.21959C33.526 3.09967 34.7035 3.09524 36.362 4.21959C37.4103 4.91837 38.3507 5.75982 39.1548 6.71839C41.9635 10.1114 45.5708 11.5234 49.9971 11.1914C51.329 11.0695 52.6717 11.1261 53.9879 11.3597C55.8505 11.7204 56.6854 12.5548 56.9872 14.3874C57.2151 15.9368 57.2668 17.5059 57.1414 19.0663C56.9145 22.716 58.2259 25.6641 61.0255 28.0567C62.1167 28.9695 63.1136 29.9844 64.0021 31.0867C65.4723 32.9481 65.4723 34.2296 64.0271 36.1086Z" fill="black"/>
<path id="Vector_3" d="M49.3324 63.2504C48.4634 63.2792 47.9711 63.9144 47.9711 65.0587C47.9711 69.0603 47.9711 73.0634 47.9711 77.068C47.9711 77.3734 48.0687 77.6987 47.8554 78.0551C47.6104 77.9334 47.379 77.8227 47.1521 77.7054C43.1546 75.6426 39.1502 73.5887 35.1663 71.5082C34.6082 71.216 34.1953 71.1718 33.6167 71.4794C30.6379 73.0619 27.6295 74.5935 24.6302 76.1406C23.3779 76.7869 22.121 77.4287 20.7371 78.1326V77.0458C20.7371 72.9778 20.7371 68.9098 20.7371 64.8418C20.7371 63.8768 20.1767 63.2637 19.3577 63.2526C18.5386 63.2416 17.9737 63.8546 17.9397 64.8019C17.9397 64.9325 17.9397 65.0609 17.9397 65.1915C17.9397 69.8467 17.9397 74.5013 17.9397 79.1551C17.9397 81.3839 19.1353 82.0789 21.1659 81.0342C25.3131 78.8984 29.4649 76.7736 33.5963 74.6156C33.8271 74.4698 34.0961 74.3922 34.3711 74.3922C34.6461 74.3922 34.9151 74.4698 35.1459 74.6156C39.3642 76.8289 43.5992 79.0157 47.8509 81.1758C49.5139 82.0257 50.7889 81.2599 50.8002 79.4362C50.8093 74.6511 50.8093 69.8667 50.8002 65.083C50.7753 63.8923 50.2376 63.2216 49.3324 63.2504Z" fill="black"/>
<path id="Vector_4" d="M48.7107 30.6678C47.8191 30.7452 47.3676 31.3959 47.4198 32.5225C47.7669 40.0034 42.1041 46.0236 34.4653 46.2891C26.0096 46.5857 19.3259 38.8282 21.0796 30.7607C22.729 23.1957 30.1728 18.809 37.8684 20.8385C38.9143 21.1152 39.6834 20.8386 39.9329 20.0617C40.212 19.2339 39.7469 18.55 38.6511 18.2224C36.5706 17.6161 34.3859 17.4264 32.2283 17.6647C24.1198 18.4659 17.5222 25.9712 17.9805 33.939C18.4728 42.5022 25.354 48.9318 34.1272 49.0491C34.894 49.0159 35.6677 49.0358 36.4254 48.9407C44.6088 47.9093 50.8887 40.3443 50.2285 32.341C50.1355 31.1989 49.591 30.5925 48.7107 30.6678Z" fill="black"/>
</g>
</svg>
