<svg width="48" height="52" viewBox="0 0 48 52" fill="none" xmlns="http://www.w3.org/2000/svg">
<g id="Group 1757">
<path id="Vector" d="M47.3393 31.8704C47.3393 31.4014 47.2891 30.9431 47.058 30.5199C46.4661 29.4374 45.4949 29.0504 44.2979 29.1089C43.948 29.1259 43.8335 29.0376 43.8412 28.6782C43.8652 27.483 43.8543 26.2868 43.8488 25.0905C43.8401 23.3434 42.7816 22.312 40.9873 22.3109C28.3699 22.3109 15.7517 22.3109 3.13279 22.3109C2.8609 22.3024 2.58888 22.3235 2.32177 22.3737C1.0202 22.6618 0.268032 23.6497 0.266942 25.0841C0.262582 32.8741 0.262582 40.6645 0.266942 48.4553C0.266942 48.5882 0.275663 48.7211 0.287654 48.853C0.385762 49.9344 0.970051 50.6607 1.99474 51.0615C2.11138 51.1083 2.27598 51.0711 2.34466 51.221H41.6839C43.4411 50.532 43.8499 49.9376 43.8499 48.0714C43.8499 46.4934 43.8717 44.9144 43.8379 43.3374C43.827 42.8483 43.9338 42.6994 44.4647 42.7079C46.2612 42.7313 47.3306 41.6829 47.3371 39.9432C47.3469 37.2519 47.3393 34.5606 47.3393 31.8704ZM42.1068 48.4383C42.1068 49.2251 41.8016 49.5239 40.9971 49.525C28.3651 49.525 15.7328 49.525 3.10009 49.525C2.3294 49.525 2.01654 49.2209 2.01 48.4617C2.01 40.6567 2.01 32.8515 2.01 25.0458C2.01 24.2834 2.32722 24.0059 3.15896 24.0059H40.8554C41.8463 24.0059 42.1036 24.2505 42.1036 25.199C42.1036 27.4915 42.0959 29.783 42.1134 32.0745C42.1134 32.4244 42.024 32.5126 41.6664 32.5094C39.6073 32.4913 37.547 32.4988 35.4867 32.5009C33.578 32.5009 32.5184 33.5355 32.5151 35.3975C32.5151 36.8925 32.5151 38.3872 32.5151 39.8816C32.5228 41.6722 33.5987 42.7164 35.442 42.7207C37.5197 42.726 39.5964 42.7324 41.673 42.7132C42.0414 42.7132 42.1167 42.8143 42.109 43.1545C42.0949 44.9175 42.1068 46.6784 42.1036 48.4383H42.1068ZM45.5951 39.9858C45.5951 40.7057 45.2812 41.0161 44.5345 41.0183C41.4713 41.0268 38.4082 41.0268 35.345 41.0183C34.5918 41.0183 34.2713 40.6908 34.2669 39.9422C34.2582 38.3826 34.2582 36.823 34.2669 35.2635C34.2724 34.5276 34.6059 34.214 35.3701 34.2097C37.0052 34.2012 38.6404 34.2097 40.2755 34.2097C41.9106 34.2097 43.5458 34.2172 45.1809 34.2023C45.5079 34.2023 45.6169 34.2714 45.6169 34.6116C45.5831 36.4002 45.5984 38.193 45.5908 39.9858H45.5951ZM44.7231 32.5041C43.851 32.5041 43.851 32.5041 43.851 31.6534C43.851 31.6375 43.8445 31.6173 43.851 31.6045C44.0058 31.3514 43.4967 30.8187 44.2107 30.7985C45.1406 30.773 45.5319 31.0112 45.5886 31.663C45.6616 32.503 45.6616 32.503 44.722 32.503L44.7231 32.5041Z" fill="black"/>
<path id="Vector_2" d="M24.9968 20.6225C25.4329 20.6342 25.5571 20.5364 25.5549 20.0908C25.5342 15.8555 25.543 11.6203 25.543 7.38496C25.543 7.14571 25.4819 6.93623 25.87 6.84798C28.4295 6.26952 30.0221 4.71172 30.6271 2.21713C30.6936 1.93959 30.8048 1.88111 31.0632 1.8843C32.0334 1.89706 33.0046 1.90557 33.9737 1.8843C34.2942 1.87686 34.364 2.01509 34.4272 2.27136C35.018 4.68727 36.5594 6.21103 39.023 6.81608C39.4318 6.91603 39.5081 7.07553 39.507 7.4477C39.494 11.4342 39.4983 15.4228 39.4983 19.406C39.4983 20.6278 39.4983 20.6108 40.7759 20.6278C41.1629 20.6331 41.2555 20.53 41.2534 20.1589C41.237 17.2879 41.2446 14.4168 41.2446 11.5384C41.2446 8.71556 41.2446 5.89203 41.2446 3.0678C41.2446 1.23353 40.1785 0.196777 38.3014 0.196777C34.4708 0.196777 30.6399 0.196777 26.8086 0.196777C24.818 0.196777 23.7966 1.19525 23.7966 3.14117V19.4241C23.8021 20.6129 23.8032 20.5938 24.9968 20.6225ZM38.5532 1.99914C39.1375 2.01403 39.4678 2.32346 39.4918 2.90298C39.5223 3.61542 39.4918 4.32998 39.5049 5.04349C39.5049 5.25615 39.4405 5.29018 39.2334 5.25615C37.7901 4.97862 36.3054 3.42295 36.155 1.99489C36.9573 1.99489 37.7563 1.98532 38.5532 1.99914ZM25.543 3.95144C25.543 3.60479 25.5288 3.25601 25.543 2.90936C25.5724 2.34473 25.8951 2.01615 26.4728 2.0002C27.2021 1.97787 27.9313 2.0002 28.6606 1.98957C28.9233 1.98425 28.9255 2.08421 28.8612 2.28518C28.3848 3.78768 27.3809 4.76595 25.8416 5.23595C25.5669 5.31995 25.5255 5.22957 25.5342 4.99351C25.5528 4.64367 25.543 4.29915 25.543 3.95144Z" fill="black"/>
<path id="Vector_3" d="M13.4408 20.5374C13.6806 20.7373 14.2202 20.5767 14.6224 20.6182C15.0247 20.6597 15.1021 20.5204 15.0988 20.1514C15.0824 17.6111 15.0988 15.0697 15.0814 12.5294C15.0814 12.1498 15.1751 12.0094 15.5773 11.9084C17.9919 11.3065 19.53 9.81892 20.1274 7.44235C20.2113 7.10634 20.3291 6.93833 20.7226 6.97555C21.1434 7.01383 21.7102 7.13505 21.9609 6.9277C22.252 6.68738 22.0132 6.11743 22.0699 5.69529C22.1179 5.31886 21.9424 5.26995 21.6088 5.27527C19.8385 5.29015 18.0682 5.27527 16.2979 5.28271C14.4099 5.28271 13.3546 6.30671 13.3481 8.14097C13.3481 10.0667 13.3481 11.9935 13.3481 13.9192C13.3481 15.7268 13.3416 17.5398 13.3481 19.3496C13.3525 19.759 13.1541 20.3003 13.4408 20.5374ZM15.0988 7.8762C15.1151 7.33496 15.4258 7.01808 15.997 6.99788C16.8081 6.9681 17.6202 6.99044 18.4377 6.99044C18.1957 8.48975 16.8288 9.92951 15.3931 10.2336C15.1827 10.2783 15.0814 10.2645 15.0857 10.021C15.0999 9.30214 15.0781 8.58864 15.0988 7.8762Z" fill="black"/>
<path id="Vector_4" d="M32.4486 8.69268C29.5479 8.76925 27.2162 11.1384 27.2903 13.9222C27.3688 16.6869 29.7975 18.9646 32.598 18.905C35.4693 18.8433 37.8239 16.4763 37.7508 13.7255C37.6723 10.9055 35.2632 8.61825 32.4486 8.69268ZM36.0001 13.7744C36.0219 15.6225 34.4893 17.1505 32.562 17.2005C30.687 17.2483 29.029 15.6523 29.0312 13.7978C29.0334 11.9433 30.6096 10.4153 32.5118 10.3951C34.414 10.3749 35.9761 11.9093 35.9979 13.7744H36.0001Z" fill="black"/>
<path id="Vector_5" d="M2.86572 19.2871C2.86572 20.6694 2.86572 20.6694 4.28284 20.6195C4.55863 20.611 4.62186 20.5259 4.61859 20.2749C4.6066 19.3796 4.63385 18.4822 4.60442 17.5868C4.59243 17.238 4.70144 17.1104 5.047 17.0275C7.49534 16.4469 9.04327 14.9465 9.66571 12.5678C9.77472 12.1723 9.91862 12.0808 10.3045 12.0872C11.6606 12.1064 11.6508 12.0872 11.6126 10.7463C11.6039 10.4592 11.5134 10.3827 11.2289 10.3848C9.37575 10.3954 7.52259 10.372 5.66944 10.3965C3.94927 10.4188 2.89079 11.4864 2.87989 13.1612C2.87226 14.3064 2.87989 15.4516 2.87989 16.5958L2.86572 19.2871ZM4.60987 13.1495C4.62186 12.4169 4.9369 12.1149 5.70759 12.0968C6.01282 12.0893 6.31804 12.0968 6.62327 12.0968C6.96338 12.0968 7.30349 12.1085 7.64141 12.0968C7.90413 12.0862 8.02295 12.1372 7.92811 12.4275C7.44956 13.8875 6.46194 14.8487 4.97396 15.3283C4.69054 15.4197 4.58916 15.3495 4.60006 15.0422C4.62731 14.4085 4.60333 13.779 4.61423 13.1506L4.60987 13.1495Z" fill="black"/>
<path id="Vector_6" d="M21.6655 15.5206C19.4199 15.6153 17.3825 17.3953 16.9225 19.6868C16.7361 20.6119 16.7361 20.6119 17.6768 20.6119C17.7618 20.6071 17.8469 20.6071 17.9319 20.6119C18.3679 20.6651 18.5674 20.5832 18.6503 20.0494C18.8552 18.7224 19.6848 17.8355 20.995 17.3645C21.3461 17.2379 21.8671 17.4283 22.0274 17.0561C22.1691 16.7137 22.0361 16.2703 22.0688 15.8758C22.0928 15.5451 21.9641 15.5079 21.6655 15.5206Z" fill="black"/>
<path id="Vector_7" d="M37.827 35.9208C37.4832 35.9073 37.1431 35.9937 36.8498 36.1691C36.5564 36.3446 36.3232 36.6011 36.1797 36.9061C36.0362 37.2112 35.9888 37.5509 36.0437 37.8823C36.0986 38.2136 36.2532 38.5215 36.4879 38.767C36.7226 39.0124 37.0268 39.1842 37.3618 39.2607C37.6968 39.3371 38.0476 39.3146 38.3695 39.1961C38.6914 39.0777 38.97 38.8685 39.1698 38.5953C39.3696 38.322 39.4816 37.997 39.4916 37.6615C39.5043 37.2162 39.3368 36.7839 39.0253 36.4582C38.7138 36.1324 38.2833 35.9394 37.827 35.9208Z" fill="black"/>
</g>
</svg>
