<svg width="64" height="61" viewBox="0 0 64 61" fill="none" xmlns="http://www.w3.org/2000/svg">
<g id="01q 3" clip-path="url(#clip0_83_1736)">
<path id="Vector" d="M34.2858 60.2678C34.4025 60.2751 34.5491 60.1783 34.6135 60.3602H34.2768C34.2379 60.3368 34.2274 60.3147 34.2424 60.2957C34.2573 60.2766 34.2708 60.2678 34.2858 60.2678Z" fill="#7B7B7B"/>
<path id="Vector_2" d="M31.4635 4.12026H31.1283C31.0953 4.09678 31.0864 4.07478 31.0983 4.05424C31.1103 4.0337 31.1223 4.0249 31.1342 4.0249H31.4709C31.5083 4.04837 31.5203 4.07038 31.5054 4.08945C31.5017 4.09774 31.496 4.10495 31.4886 4.11036C31.4813 4.11576 31.4726 4.11918 31.4635 4.12026Z" fill="#4D4D4D"/>
<path id="Vector_3" d="M31.1281 60.2637H31.4633C31.5052 60.2813 31.5202 60.3003 31.5082 60.3224C31.4962 60.3444 31.4842 60.3561 31.4708 60.3561H31.1341C31.0982 60.337 31.0862 60.315 31.0967 60.293C31.1071 60.271 31.1176 60.2637 31.1281 60.2637Z" fill="#4F4F4F"/>
<path id="Vector_4" d="M34.2858 60.2681C34.2858 60.2984 34.2828 60.3292 34.2768 60.3605H33.9401C33.9027 60.337 33.8907 60.315 33.9057 60.2959C33.9099 60.2884 33.9159 60.2819 33.9232 60.277C33.9305 60.2722 33.9388 60.2691 33.9476 60.2681H34.2858Z" fill="#505050"/>
<path id="Vector_5" d="M34.2828 4.12465H33.9476C33.9057 4.10704 33.8907 4.08797 33.9027 4.06597C33.9146 4.04396 33.9266 4.03223 33.9401 4.03223H34.2768C34.3127 4.05276 34.3247 4.0733 34.3142 4.09531C34.3037 4.11731 34.2932 4.12465 34.2828 4.12465Z" fill="#4E4E4E"/>
<path id="Vector_6" d="M31.1343 4.02783C31.1365 4.05958 31.1365 4.09144 31.1343 4.12319C31.0415 4.13346 30.9457 4.15399 30.9158 4.02783H31.1343Z" fill="#707070"/>
<path id="Vector_7" d="M31.4634 4.12025C31.4634 4.08945 31.4634 4.05864 31.4709 4.02783H31.6953C31.6749 4.06839 31.64 4.1002 31.5973 4.11723C31.5545 4.13426 31.5069 4.13534 31.4634 4.12025Z" fill="#353535"/>
<path id="Vector_8" d="M33.94 4.02783C33.94 4.05864 33.94 4.08945 33.9475 4.12025C33.904 4.13534 33.8564 4.13426 33.8136 4.11723C33.7709 4.1002 33.736 4.06839 33.7156 4.02783H33.94Z" fill="#353535"/>
<path id="Vector_9" d="M34.7256 4.02783C34.6987 4.16426 34.5984 4.13199 34.5056 4.12025C34.4667 4.10265 34.4518 4.08211 34.4637 4.06011C34.4757 4.0381 34.4877 4.02783 34.5012 4.02783H34.7256Z" fill="#8F8F8F"/>
<path id="Vector_10" d="M34.5011 4.02784C34.5011 4.05914 34.5011 4.08994 34.5011 4.12026H34.2782C34.2745 4.0876 34.2745 4.05464 34.2782 4.02197L34.5011 4.02784Z" fill="#707070"/>
<path id="Vector_11" d="M30.6853 60.3602C30.7122 60.2237 30.8125 60.256 30.9053 60.2678C30.9442 60.2854 30.9592 60.3059 30.9472 60.3279C30.9352 60.3499 30.9217 60.3602 30.9098 60.3602H30.6853Z" fill="#929292"/>
<path id="Vector_12" d="M30.9097 60.3605C30.9097 60.3302 30.9097 60.2994 30.9097 60.2681H31.1326C31.1364 60.3002 31.1364 60.3327 31.1326 60.3649L30.9097 60.3605Z" fill="#737373"/>
<path id="Vector_13" d="M31.4709 60.3602C31.4709 60.3294 31.4709 60.2986 31.4634 60.2678C31.5069 60.2524 31.5546 60.2533 31.5975 60.2703C31.6403 60.2874 31.6752 60.3194 31.6953 60.3602H31.4709Z" fill="#373737"/>
<path id="Vector_14" d="M33.9475 60.2678C33.9475 60.2986 33.9475 60.3294 33.94 60.3602H33.7156C33.7358 60.3194 33.7706 60.2874 33.8134 60.2703C33.8563 60.2533 33.904 60.2524 33.9475 60.2678Z" fill="#373737"/>
<path id="Vector_15" d="M60.24 29.9936C60.1397 29.4376 60.1846 28.8684 60.1098 28.3124C59.678 25.0901 58.6678 21.9681 57.1259 19.0909C55.3531 15.7703 52.9247 12.8282 49.9819 10.4357C46.4336 7.50939 42.2092 5.47826 37.6767 4.51928C36.3823 4.23909 35.0684 4.1276 33.753 4.02197H33.5286C33.4552 4.09826 33.358 4.07332 33.2697 4.07919H32.7803C32.6906 4.07185 32.5918 4.09972 32.5185 4.02197H30.4983C30.4264 4.09826 30.3307 4.07332 30.2424 4.07919H29.9685C29.8802 4.07919 29.7845 4.09826 29.7126 4.02197H29.1515C29.0737 4.21855 28.8956 4.12466 28.7654 4.13787C25.3585 4.45823 22.0382 5.37755 18.9637 6.8518C7.11644 12.5731 0.876301 24.8841 3.32597 37.6792C5.52872 49.1863 15.3962 58.4034 27.269 60.0567C27.8675 60.1403 28.4826 60.086 29.0422 60.3604H29.4912C29.5645 60.2841 29.6618 60.309 29.7501 60.3031H30.2394C30.3292 60.3105 30.4279 60.2826 30.5013 60.3604H32.5215C32.5978 60.2797 32.6965 60.3105 32.7893 60.3031H33.0766C33.1919 60.3193 33.3191 60.2635 33.4193 60.3604H33.753C34.3381 60.2562 34.9367 60.3002 35.5233 60.2254C38.5119 59.8391 41.4169 58.98 44.1248 57.6816C47.8308 55.909 51.1071 53.3795 53.7334 50.263C56.7413 46.7423 58.7076 42.7168 59.7327 38.2337C60.014 37.0014 60.1187 35.7486 60.24 34.4973V34.0572C60.1636 33.9897 60.1876 33.8987 60.1816 33.8137V33.4205C60.1816 33.3369 60.1636 33.2459 60.24 33.177V31.2039C60.1636 31.1349 60.1876 31.0454 60.1816 30.9604V30.5672C60.1816 30.4836 60.1636 30.3926 60.24 30.3237V29.9936ZM31.4904 58.71C16.5425 58.6909 4.43333 46.798 4.46176 32.1574C4.4902 17.5168 16.6338 5.6342 31.5533 5.67821C46.5176 5.72222 58.6088 17.6254 58.555 32.2528C58.5011 46.8802 46.4009 58.7276 31.4904 58.71Z" fill="black"/>
<path id="Vector_16" d="M43.9466 11.1969C38.9216 8.25412 33.4386 7.34899 27.6534 8.19544C25.3633 8.53296 23.1362 9.19876 21.0436 10.1715C20.5319 10.4062 20.3373 10.8463 20.5214 11.2835C20.7055 11.7206 21.1798 11.8791 21.7081 11.684C21.7949 11.6517 21.8787 11.6121 21.964 11.5739C24.5686 10.409 27.373 9.73322 30.2318 9.58175C30.5999 9.56121 30.6807 9.6551 30.6717 9.98811C30.6523 10.7216 30.6612 11.4551 30.6717 12.1886C30.6822 12.9221 30.9516 13.2624 31.4963 13.2727C32.041 13.283 32.3492 12.9177 32.3537 12.1651C32.3582 11.4126 32.3657 10.6981 32.3537 9.96464C32.3537 9.67124 32.4106 9.55388 32.7593 9.57735C34.1953 9.66045 35.621 9.86811 37.0196 10.1979C40.6597 11.0837 44.0284 12.8162 46.8407 15.2487C47.2074 15.5627 47.1834 15.7196 46.8407 16.016C46.2975 16.4913 45.7932 17.0165 45.2874 17.5255C44.822 17.9906 44.7831 18.4571 45.1707 18.8238C45.5583 19.1906 46.0027 19.1451 46.4546 18.7064C47.1041 18.0756 47.7401 17.4302 48.3791 16.7994C48.4219 16.8237 48.4625 16.8516 48.5003 16.883C48.605 16.9871 48.7098 17.0928 48.807 17.2028C52.3267 21.1627 54.2516 25.7641 54.5818 31.0072C54.5998 31.3123 54.5115 31.3886 54.2197 31.3827C53.5103 31.3681 52.798 31.3827 52.0887 31.3827C51.9391 31.3827 51.7894 31.3827 51.6398 31.3827C51.1295 31.4253 50.8227 31.726 50.8138 32.1793C50.8061 32.2855 50.821 32.3922 50.8575 32.4925C50.894 32.5928 50.9513 32.6846 51.0259 32.7621C51.1004 32.8395 51.1905 32.901 51.2905 32.9426C51.3905 32.9842 51.4983 33.005 51.6069 33.0038C52.4658 33.0404 53.3263 33.0316 54.1867 33.0228C54.486 33.0228 54.6087 33.0712 54.5848 33.416C54.4872 34.9514 54.2407 36.4741 53.8485 37.9637C52.9341 41.3756 51.219 44.5309 48.84 47.1778C48.5407 47.5079 48.3701 47.6341 48.0154 47.2233C47.5336 46.6659 46.9679 46.1715 46.4382 45.6595C45.9893 45.2341 45.5179 45.2121 45.1542 45.5774C44.7906 45.9426 44.8205 46.3959 45.2635 46.836C45.9069 47.4742 46.5624 48.1035 47.2463 48.7695C46.9096 49.0629 46.5923 49.3387 46.2676 49.6086C45.3861 50.3171 44.4605 50.9712 43.4962 51.5671C43.3969 51.6204 43.3102 51.6938 43.2419 51.7824C43.1735 51.871 43.1251 51.9727 43.0998 52.081C43.0745 52.1892 43.0729 52.3015 43.095 52.4104C43.1172 52.5193 43.1626 52.6224 43.2283 52.7128C43.4737 53.081 43.9242 53.1837 44.3626 52.9666C44.4767 52.9077 44.5867 52.8416 44.6918 52.7686C53.1826 47.1265 57.1542 39.2957 56.0573 29.2835C55.1849 21.3177 50.935 15.2898 43.9466 11.1969Z" fill="black"/>
<path id="Vector_17" d="M40.4374 53.0917C40.3506 53.121 40.2653 53.1577 40.1785 53.1914C37.818 54.1191 35.3192 54.6642 32.7802 54.8051C32.406 54.8257 32.3312 54.7201 32.3447 54.3944C32.3656 53.8443 32.3327 53.2941 32.3537 52.744C32.4001 51.5704 32.2953 51.1714 31.5216 51.1303C30.9829 51.0995 30.5834 51.3166 30.6612 52.7176C30.6911 53.2839 30.6537 53.8545 30.6702 54.4223C30.6792 54.723 30.6118 54.8301 30.2646 54.8066C28.8475 54.7241 27.4404 54.5199 26.0597 54.1963C22.3813 53.3142 18.9783 51.5653 16.1458 49.1015C15.815 48.8183 15.8465 48.6804 16.1458 48.412C16.7099 47.9059 17.2411 47.3631 17.7754 46.8232C18.2078 46.3831 18.2243 45.9181 17.8562 45.5646C17.4881 45.211 17.0227 45.2418 16.5722 45.6775C15.9228 46.3083 15.2823 46.9523 14.6418 47.5846C14.6014 47.5619 14.5633 47.5353 14.5281 47.5054C10.787 43.4858 8.77281 38.7577 8.43761 33.3313C8.41815 33.0056 8.58725 33.0232 8.80872 33.0232C9.63176 33.0232 10.4548 33.0379 11.2778 33.0232C11.8899 33.0071 12.2356 32.6623 12.2116 32.1562C12.1877 31.6736 11.851 31.3919 11.2464 31.3831C10.4428 31.3729 9.63925 31.3699 8.83416 31.3831C8.51991 31.3831 8.41815 31.3156 8.44359 30.9812C8.51147 29.9212 8.64641 28.8663 8.84763 27.8227C9.64384 23.8318 11.5247 20.1258 14.2917 17.0961C14.5356 16.8262 14.6628 16.8115 14.9157 17.0785C15.4484 17.6433 16.0156 18.1787 16.5767 18.7171C17.0257 19.1469 17.4911 19.1777 17.8607 18.8213C18.2303 18.4648 18.2049 17.9983 17.7724 17.5626C17.2232 17.011 16.674 16.4594 16.1024 15.9328C15.851 15.6995 15.8031 15.5689 16.1024 15.3196C16.9241 14.627 17.7812 13.9758 18.6702 13.3685C19.191 13.0149 19.3062 12.5689 19.0279 12.1523C18.7496 11.7357 18.2333 11.6799 17.7021 12.0218C8.3134 18.0482 4.27302 30.1773 8.20416 40.5049C12.6426 52.1631 24.9029 58.6399 37.235 55.8379C38.5423 55.5369 39.8217 55.1296 41.0599 54.6203C41.5762 54.4105 41.7827 53.9631 41.6061 53.5157C41.4296 53.0682 40.9642 52.9157 40.4374 53.0917Z" fill="black"/>
<path id="Vector_18" d="M41.1663 21.2549C41.023 21.3725 40.8885 21.5 40.7637 21.6363C38.1599 24.1889 35.5581 26.7424 32.9583 29.297C32.7279 29.5244 32.5438 29.6446 32.1951 29.5111C31.7531 29.3439 31.2634 29.3439 30.8214 29.5111C30.4727 29.6446 30.2887 29.5244 30.0597 29.2955C28.7129 27.9517 27.3422 26.6212 25.9789 25.2891C25.4926 24.8138 24.9808 24.7654 24.6127 25.1424C24.2445 25.5195 24.3134 25.9728 24.7818 26.4393C25.9954 27.6334 27.1985 28.8378 28.4361 30.0085C28.9239 30.4691 29.3624 30.8887 29.0122 31.6222C28.988 31.7095 28.9789 31.8003 28.9853 31.8906C29.0302 32.9175 29.5075 33.6877 30.4563 34.116C31.405 34.5444 32.3223 34.4197 33.1274 33.764C33.9325 33.1082 34.1929 32.2207 33.931 31.2407C33.8764 31.1019 33.8684 30.9497 33.9082 30.8061C33.9481 30.6626 34.0336 30.5352 34.1525 30.4427C36.7642 27.8999 39.369 25.3488 41.9669 22.7894C42.1073 22.6684 42.2369 22.5359 42.3544 22.3933C42.6238 22.0177 42.6238 21.6261 42.2826 21.3004C41.9414 20.9747 41.5434 20.9777 41.1663 21.2549ZM31.4783 32.6975C31.2625 32.6869 31.059 32.5955 30.91 32.442C30.761 32.2886 30.6778 32.0849 30.6777 31.873C30.6777 31.6571 30.7652 31.45 30.921 31.2973C31.0767 31.1446 31.288 31.0588 31.5083 31.0588C31.7285 31.0588 31.9398 31.1446 32.0955 31.2973C32.2513 31.45 32.3388 31.6571 32.3388 31.873C32.3392 31.9831 32.3171 32.0921 32.2738 32.1937C32.2305 32.2952 32.1668 32.3872 32.0866 32.4642C32.0064 32.5412 31.9112 32.6017 31.8067 32.642C31.7022 32.6823 31.5906 32.7017 31.4783 32.6989V32.6975Z" fill="black"/>
<path id="Vector_19" d="M31.4904 41.7177C32.4256 41.7177 33.3594 41.728 34.2947 41.7177C34.9576 41.7089 35.3272 41.3921 35.3212 40.8786C35.3152 40.3652 34.9441 40.0732 34.2737 40.0718C32.4421 40.0718 30.6104 40.0718 28.7788 40.0718C28.068 40.0718 27.6894 40.3652 27.6969 40.9006C27.7044 41.4361 28.0875 41.7133 28.8013 41.7192C29.6961 41.7236 30.594 41.7177 31.4904 41.7177Z" fill="black"/>
</g>
<defs>
<clipPath id="clip0_83_1736">
<rect width="63" height="60" fill="white" transform="translate(0.980957 0.983887)"/>
</clipPath>
</defs>
</svg>
