<svg width="56" height="66" viewBox="0 0 56 66" fill="none" xmlns="http://www.w3.org/2000/svg">
<g id="Group 1760">
<path id="Vector" d="M2.69125 46.2504C2.68993 46.4156 2.65483 46.579 2.58802 46.7308C2.52122 46.8826 2.42404 47.0199 2.30219 47.1346C2.18034 47.2493 2.03628 47.339 1.87843 47.3987C1.72059 47.4583 1.55215 47.4865 1.38298 47.4817C1.04124 47.4799 0.714091 47.3462 0.472928 47.1098C0.231764 46.8733 0.09616 46.5533 0.0957031 46.2196C0.0977436 46.0488 0.134428 45.8801 0.203637 45.7232C0.272845 45.5664 0.373205 45.4244 0.498919 45.3057C0.624632 45.1869 0.773207 45.0936 0.936056 45.0312C1.09891 44.9688 1.2728 44.9386 1.4477 44.9422C1.78979 44.956 2.11245 45.1012 2.34537 45.3462C2.5783 45.5913 2.70262 45.9162 2.69125 46.2504Z" fill="black"/>
<path id="Vector_2" d="M55.5993 33.3287C55.6139 32.7522 55.5622 32.1759 55.4454 31.6106C54.7318 28.5366 52.1765 26.5555 48.8638 26.5538C40.8626 26.5469 32.862 26.5469 24.862 26.5538H24.0347C25.4024 24.8904 26.0391 23.0937 25.8589 21.0785C25.783 20.0966 25.5024 19.1403 25.0344 18.268C24.5664 17.3958 23.9209 16.6262 23.1374 16.0063C21.8279 14.9366 20.1838 14.335 18.4769 14.3009C16.7699 14.2667 15.102 14.802 13.7487 15.8184C12.3637 16.8156 11.3858 18.2601 10.9887 19.895C10.3853 22.3218 10.9555 24.5163 12.5908 26.5555C10.4483 26.5555 8.44212 26.5179 6.43949 26.564C3.07437 26.6426 0.338895 29.1497 0.143004 32.4219C0.0188238 34.5498 0.0922823 36.6914 0.0817882 38.8228C0.0817882 39.3983 0.0538037 39.9773 0.106274 40.5494C0.112714 40.732 0.160704 40.911 0.246763 41.0733C0.332821 41.2355 0.45479 41.3771 0.603823 41.4876C0.752855 41.5981 0.925214 41.6749 1.1084 41.7123C1.29158 41.7497 1.481 41.7468 1.66291 41.7039C2.30655 41.5878 2.68958 41.0805 2.69133 40.2796C2.70008 37.9518 2.69133 35.6257 2.69133 33.2997C2.69133 30.6782 4.29169 29.1019 6.9572 29.1019C18.9578 29.1019 30.9585 29.1019 42.9591 29.1019C45.5826 29.1019 49.1037 28.7869 49.1107 31.3469C49.1107 33.3092 49.0687 36.9598 49.1107 38.9221C48.3893 40.0042 47.0798 39.8338 46.5114 39.8304C42.3137 39.8054 38.1161 39.8019 33.9184 39.8202C30.1335 39.8355 27.2301 42.3973 27.057 45.8385C26.8681 49.5958 29.8064 52.5827 33.7295 52.5947C38.0146 52.6106 42.2991 52.6078 46.5831 52.5862C47.1078 52.5862 49.1107 52.6295 49.88 52.5947C49.8485 54.5365 49.8817 59.3433 49.88 61.2868C49.88 64.0193 45.6334 63.3455 42.8437 63.3455H7.11811C4.27595 63.3455 2.70183 61.8084 2.70008 59.0298C2.70008 56.7464 2.70008 54.4631 2.70008 52.178C2.70008 51.6042 2.55316 51.1191 2.00047 50.8339C1.06824 50.3472 0.0887845 51.0047 0.0765413 52.1541C0.0590511 54.586 0.0328157 57.0214 0.0765413 59.4533C0.136008 62.3839 1.87804 64.7032 4.56454 65.5793C4.88461 65.6835 5.26415 65.6476 5.52125 65.9021H49.88C50.0934 65.6698 50.4047 65.7757 50.6618 65.7057C53.7261 64.891 55.5976 62.4266 55.5993 59.1288C55.6051 50.5305 55.6051 41.9305 55.5993 33.3287ZM18.3451 26.5265C17.3627 26.5339 16.4003 26.2559 15.5801 25.7279C14.7599 25.1998 14.1191 24.4456 13.7391 23.561C13.359 22.6764 13.257 21.7015 13.4459 20.7601C13.6348 19.8187 14.1061 18.9535 14.7999 18.2743C15.4937 17.5952 16.3786 17.1328 17.3422 16.946C18.3058 16.7593 19.3045 16.8565 20.2114 17.2254C21.1183 17.5942 21.8923 18.2181 22.4351 19.0176C22.978 19.8172 23.265 20.7563 23.2599 21.7155C23.2548 22.9873 22.7363 24.2058 21.8168 25.1065C20.8973 26.0072 19.651 26.5175 18.3486 26.5265H18.3451ZM52.4003 50.0483C49.2346 50.0483 46.0677 50.0483 42.8996 50.0483C39.7514 50.0483 36.6032 50.0774 33.4654 50.0364C31.7951 50.0142 30.6058 49.1466 29.9674 47.6642C29.329 46.1818 29.635 44.8156 30.7229 43.6286C31.0773 43.2301 31.5164 42.9119 32.0098 42.6963C32.5031 42.4806 33.0387 42.3728 33.5791 42.3802C39.8913 42.3682 46.2035 42.3802 52.514 42.3665C52.8953 42.3665 52.9933 42.4878 52.9915 42.8447C52.9775 45.0837 52.967 47.3226 52.9915 49.5616C53.0055 50.0739 52.7519 50.05 52.4003 50.0483Z" fill="black"/>
<path id="Vector_3" d="M23.2634 4.37445C23.2634 6.7432 23.2634 9.11195 23.2634 11.4807C23.2634 12.3927 23.8231 12.9443 24.6521 12.905C25.4112 12.8692 25.8765 12.3346 25.8765 11.4602C25.8765 8.30074 25.859 5.14126 25.8905 1.98349C25.8905 1.21497 25.6508 0.670176 24.9512 0.325195H24.1694C23.4786 0.712871 23.2022 1.2867 23.2529 2.06888C23.3037 2.85107 23.2634 3.61276 23.2634 4.37445Z" fill="black"/>
<path id="Vector_4" d="M16.9792 7.00621C16.9792 7.91306 17.5388 8.52105 18.3154 8.50909C19.092 8.49714 19.5904 7.92331 19.5939 7.03353C19.5939 5.34791 19.5677 3.66058 19.6079 1.97495C19.6272 1.20472 19.3753 0.658221 18.66 0.325195H17.8729C17.1978 0.724826 16.9442 1.29866 16.9634 2.07572C17.0071 3.71864 16.9704 5.36328 16.9792 7.00621Z" fill="black"/>
<path id="Vector_5" d="M37.3587 17.9109C38.8539 17.9122 40.3159 17.4808 41.5601 16.6711C42.8042 15.8614 43.7747 14.7097 44.3488 13.3617C44.9228 12.0136 45.0748 10.5296 44.7855 9.09728C44.4962 7.66491 43.7785 6.34843 42.7232 5.31417C41.6679 4.27992 40.3224 3.57431 38.8565 3.28651C37.3907 2.99871 35.8704 3.14163 34.4877 3.69721C33.105 4.25279 31.922 5.1961 31.0882 6.40795C30.2543 7.61979 29.8071 9.04579 29.8029 10.5057C29.7988 11.477 29.9912 12.4396 30.3691 13.338C30.747 14.2365 31.3029 15.0532 32.005 15.7413C32.7071 16.4294 33.5415 16.9753 34.4602 17.3476C35.379 17.7199 36.364 17.9113 37.3587 17.9109ZM37.4392 5.70163C38.4159 5.71553 39.3666 6.01174 40.1711 6.55285C40.9755 7.09396 41.5978 7.8557 41.9592 8.74189C42.3206 9.62807 42.405 10.599 42.2016 11.5319C41.9983 12.4649 41.5164 13.3181 40.8168 13.9839C40.1172 14.6496 39.2313 15.098 38.2709 15.2724C37.3105 15.4468 36.3187 15.3394 35.4207 14.9638C34.5228 14.5881 33.759 13.9611 33.2257 13.1619C32.6925 12.3627 32.4137 11.4271 32.4247 10.4733C32.4299 9.83757 32.5641 9.20917 32.8195 8.62439C33.075 8.03962 33.4466 7.51008 33.9128 7.06638C34.3791 6.62268 34.9308 6.27362 35.5361 6.03937C36.1414 5.80512 36.7882 5.69033 37.4392 5.70163Z" fill="black"/>
<path id="Vector_6" d="M34.5586 46.2062C34.5637 46.3716 34.5349 46.5363 34.4739 46.6906C34.4128 46.845 34.3207 46.9858 34.203 47.1049C34.0853 47.2239 33.9444 47.3187 33.7886 47.3838C33.6328 47.4488 33.4653 47.4828 33.2958 47.4836C33.1209 47.4882 32.9468 47.4584 32.784 47.3958C32.6211 47.3333 32.4728 47.2394 32.348 47.1197C32.2231 47 32.1242 46.857 32.0572 46.6991C31.9901 46.5413 31.9563 46.3719 31.9578 46.201C31.9694 45.8679 32.1113 45.5517 32.3543 45.3176C32.5973 45.0835 32.923 44.9492 33.2643 44.9424C33.6072 44.9437 33.9356 45.0773 34.178 45.314C34.4204 45.5507 34.5572 45.8714 34.5586 46.2062Z" fill="#010101"/>
</g>
</svg>
