<svg width="57" height="68" viewBox="0 0 57 68" fill="none" xmlns="http://www.w3.org/2000/svg">
<g id="Group 1758">
<path id="Vector" d="M40.3752 16.6154C40.1806 16.7658 40 16.9328 39.8356 17.1143L29.4475 27.2265C28.8608 27.7951 28.2911 28.7691 27.6631 28.8077C26.9562 28.8535 26.4278 27.8062 25.8224 27.2339C24.651 26.1333 23.506 24.9943 22.3609 23.8644C22.2052 23.6901 21.9971 23.5682 21.7662 23.5158C21.5354 23.4635 21.2935 23.4834 21.0749 23.5727C20.633 23.7396 20.3717 24.0826 20.3491 24.6879C20.3284 25.0548 20.6387 25.3556 20.9564 25.6656C23.0077 27.6631 25.076 29.6496 27.101 31.6801C27.5691 32.1496 27.8023 32.0928 28.2422 31.6599C32.6607 27.3164 37.0918 22.9851 41.5353 18.6661C41.6987 18.5213 41.8496 18.3636 41.9866 18.1947C42.3626 17.6848 42.325 17.1639 41.8831 16.7273C41.4413 16.2908 40.8979 16.2651 40.3752 16.6154Z" fill="black"/>
<path id="Vector_2" d="M55.4105 24.2524C54.32 22.785 52.8835 21.6148 51.6144 20.3015C50.7306 19.4349 50.1892 18.2915 50.0858 17.0732C49.9485 15.4554 50.0613 13.8376 49.988 12.2198C49.8395 8.91813 48.3221 7.23246 44.996 6.71703C43.6799 6.50976 42.3431 6.56479 41.0213 6.62165C38.562 6.72437 36.5558 5.94482 34.9445 4.09039C34.0406 3.02953 33.0026 2.0847 31.8553 1.27849C29.6404 -0.249434 27.433 -0.243931 25.2745 1.33535C24.6831 1.7779 24.1181 2.25314 23.5824 2.75873C22.7175 3.55479 21.8902 4.38937 21.0328 5.19094C20.2079 5.96204 19.1337 6.42897 17.9944 6.5116C16.3022 6.66934 14.6232 6.54461 12.9385 6.61798C9.53344 6.76289 7.77921 8.29815 7.28283 11.5704C7.07977 12.915 7.13242 14.2668 7.17942 15.6058C7.26027 17.8307 6.50631 19.6411 4.78216 21.1214C3.66475 22.0496 2.65586 23.0953 1.77382 24.2396C0.136163 26.4407 0.154965 28.6069 1.82459 30.7933C2.46972 31.674 3.22232 32.4747 4.0658 33.1779C6.44802 35.0947 7.67016 37.4425 7.18694 40.5038C7.18694 41.2577 7.15122 42.0153 7.18694 42.7691C7.37496 46.1827 8.90921 47.8078 12.3425 48.2976C13.8297 48.5085 15.3264 48.4095 16.8155 48.4021C18.7841 48.3911 20.4198 49.0129 21.7604 50.4418C22.6009 51.3369 23.487 52.1903 24.4153 52.9987C27.2356 55.4621 29.8002 55.4658 32.6769 53.0519C33.0116 52.7695 33.3331 52.4705 33.6509 52.1715C34.465 51.4011 35.2697 50.6234 36.0951 49.8567C36.8845 49.089 37.9198 48.6086 39.0283 48.4957C40.7393 48.3122 42.4559 48.4736 44.1669 48.3856C47.7524 48.2022 49.4822 46.6834 49.9353 43.2662C50.0078 42.4876 50.0342 41.7055 50.0143 40.9239C50.0256 39.9261 50.0331 38.9301 50.1064 37.9322C50.1756 36.7364 50.6928 35.607 51.5598 34.759C52.6203 33.697 53.6958 32.6478 54.7393 31.5692C55.3747 30.9261 55.8845 30.1752 56.2434 29.3535C57.0256 27.4862 56.5631 25.8152 55.4105 24.2524ZM53.3329 29.5351C52.5674 30.4938 51.7051 31.375 50.7589 32.1654C48.544 34.0803 47.4779 36.4263 47.6302 39.3189C47.7088 40.6129 47.6698 41.9111 47.5136 43.1984C47.288 44.9556 46.5153 45.7296 44.7366 45.9772C43.0557 46.2102 41.3654 46.0745 39.6807 46.113C37.6275 46.1625 35.8432 46.7971 34.3691 48.2095C33.5587 48.9836 32.7615 49.7723 31.9455 50.539C31.5146 50.9574 31.0581 51.3501 30.5786 51.7148C29.0744 52.8061 28.029 52.797 26.5136 51.7148C25.5037 50.9544 24.5774 50.0938 23.7497 49.1468C21.8056 47.0301 19.4515 45.9351 16.494 46.0836C15.2233 46.1588 13.9484 46.1293 12.6828 45.9956C10.4604 45.7406 9.63497 44.917 9.48644 42.7178C9.37926 40.9936 9.51276 39.2657 9.35294 37.5397C9.23638 35.9948 8.58153 34.5352 7.49718 33.4035C6.70749 32.5726 5.87832 31.7783 5.06795 30.9658C4.7972 30.6961 4.52081 30.4302 4.2651 30.1477C2.36233 28.0658 2.35293 26.8185 4.2933 24.7458C5.2146 23.7847 6.20923 22.8804 7.14934 21.9376C8.49557 20.5986 9.30782 19.0212 9.37362 17.1172C9.39619 16.5247 9.44131 15.9323 9.45259 15.338C9.47328 14.3402 9.45259 13.3405 9.49396 12.3445C9.61241 9.94347 10.5882 8.99884 13.0381 8.89245C13.7902 8.85943 14.531 8.89245 15.2775 8.89245V8.86677H15.3602C18.9946 9.1896 21.9729 8.02302 24.2987 5.2423C24.9833 4.42506 25.7827 3.70627 26.6734 3.10724C28.0554 2.17911 29.0312 2.17544 30.4056 3.10724C31.2744 3.68634 32.0538 4.38369 32.7202 5.1781C35.0479 7.99 38.0374 9.16025 41.7057 8.88511C42.8095 8.78405 43.9222 8.83095 45.013 9.02451C46.5566 9.3235 47.2485 10.015 47.4986 11.5338C47.6875 12.8178 47.7304 14.1182 47.6265 15.4114C47.4384 18.436 48.5252 20.8792 50.8454 22.8621C51.7496 23.6186 52.5759 24.4596 53.3122 25.3731C54.5306 26.9158 54.5306 27.9778 53.3329 29.5351Z" fill="black"/>
<path id="Vector_3" d="M41.1549 52.0283C40.4347 52.0522 40.0267 52.5786 40.0267 53.5269C40.0267 56.8432 40.0267 60.1608 40.0267 63.4795C40.0267 63.7327 40.1076 64.0023 39.9308 64.2976C39.7278 64.1967 39.536 64.105 39.348 64.0078C36.0351 62.2983 32.7165 60.5961 29.4148 58.8719C28.9523 58.6298 28.6101 58.5931 28.1307 58.8481C25.6619 60.1595 23.1688 61.4288 20.6832 62.711C19.6453 63.2466 18.6037 63.7785 17.4567 64.3618V63.4612C17.4567 60.0898 17.4567 56.7185 17.4567 53.3471C17.4567 52.5474 16.9923 52.0393 16.3136 52.0302C15.6348 52.021 15.1666 52.5291 15.1384 53.3141C15.1384 53.4224 15.1384 53.5287 15.1384 53.637C15.1384 57.495 15.1384 61.3524 15.1384 65.2092C15.1384 67.0563 16.1293 67.6323 17.8121 66.7665C21.2491 64.9965 24.6899 63.2356 28.1137 61.4472C28.305 61.3263 28.528 61.262 28.7558 61.262C28.9837 61.262 29.2067 61.3263 29.3979 61.4472C32.8939 63.2814 36.4036 65.0937 39.9271 66.8839C41.3053 67.5882 42.3619 66.9536 42.3714 65.4422C42.3789 61.4765 42.3789 57.5115 42.3714 53.5471C42.3507 52.5603 41.9051 52.0045 41.1549 52.0283Z" fill="black"/>
<path id="Vector_4" d="M40.6396 25.0259C39.9007 25.0901 39.5266 25.6293 39.5698 26.563C39.8575 32.7627 35.1645 37.7519 28.8338 37.972C21.8263 38.2178 16.2872 31.7887 17.7406 25.1029C19.1075 18.8334 25.2765 15.198 31.6541 16.88C32.5209 17.1093 33.1583 16.88 33.3651 16.2362C33.5964 15.5501 33.2109 14.9834 32.3028 14.7119C30.5786 14.2094 28.768 14.0522 26.9799 14.2497C20.2601 14.9137 14.7924 21.1336 15.1722 27.7369C15.5802 34.8336 21.2829 40.1621 28.5537 40.2593C29.1892 40.2318 29.8303 40.2483 30.4583 40.1694C37.2402 39.3146 42.4446 33.0452 41.8975 26.4125C41.8204 25.4661 41.3692 24.9635 40.6396 25.0259Z" fill="black"/>
</g>
</svg>
