<svg width="13" height="14" viewBox="0 0 13 14" fill="none" xmlns="http://www.w3.org/2000/svg">
<g id="right-arrow (8) 2" opacity="0.5" clip-path="url(#clip0_295_591)">
<g id="Group">
<g id="Group_2">
<path id="Vector" d="M7.05259 10.4982L12.3926 4.71303C12.5163 4.57923 12.5844 4.40061 12.5844 4.21016C12.5844 4.0197 12.5163 3.84109 12.3926 3.70728L11.9995 3.28125C11.7433 3.00402 11.3269 3.00402 11.0711 3.28125L6.58684 8.13919L2.0976 3.27586C1.974 3.14205 1.80922 3.06818 1.63351 3.06818C1.45761 3.06818 1.29283 3.14205 1.16912 3.27586L0.776054 3.70189C0.652446 3.8358 0.584349 4.01431 0.584349 4.20477C0.584349 4.39522 0.652446 4.57384 0.776054 4.70764L6.12099 10.4982C6.24499 10.6323 6.41055 10.706 6.58654 10.7056C6.76323 10.706 6.92869 10.6323 7.05259 10.4982Z" fill="black"/>
</g>
</g>
</g>
<defs>
<clipPath id="clip0_295_591">
<rect width="13" height="12" fill="white" transform="translate(12.5844 0.386719) rotate(90)"/>
</clipPath>
</defs>
</svg>
