<svg width="167" height="41" viewBox="0 0 167 41" fill="none" xmlns="http://www.w3.org/2000/svg">
<g id="Group 1735">
<path id="Vector" d="M0.584351 10.3296H2.31194V32.3888H16.0219V33.9436H0.584351V10.3296Z" fill="#49BFB0"/>
<path id="Vector_2" d="M17.9415 12.632C17.8178 12.5122 17.7204 12.3683 17.6556 12.2092C17.5908 12.0502 17.5599 11.8795 17.565 11.708C17.5669 11.3572 17.7086 11.0214 17.959 10.7741C18.2094 10.5268 18.5482 10.3879 18.9013 10.3879C19.0742 10.3848 19.246 10.4155 19.4069 10.4784C19.5678 10.5414 19.7146 10.6352 19.8389 10.7546C19.9664 10.8722 20.0673 11.0154 20.1348 11.1747C20.2022 11.3341 20.2348 11.5058 20.2302 11.6786C20.2283 12.0281 20.0876 12.3628 19.8388 12.6099C19.59 12.857 19.2531 12.9967 18.9013 12.9987C18.7249 13.0035 18.5492 12.9736 18.3845 12.9107C18.2197 12.8478 18.0692 12.753 17.9415 12.632ZM18.0744 17.0981H19.6986V33.9652H18.0744V17.0981Z" fill="#49BFB0"/>
<path id="Vector_3" d="M26.8452 14.6487V17.0981H32.2716V18.4842H26.8748V33.9433H25.2505V18.4842H22.1349V17.0981H25.2505V14.5167C25.2188 13.8989 25.3115 13.281 25.5232 12.6993C25.7349 12.1175 26.0614 11.5835 26.4835 11.1286C26.9455 10.6935 27.4925 10.3571 28.0906 10.1401C28.6887 9.92319 29.3252 9.83033 29.9608 9.86728C30.594 9.86569 31.2238 9.95966 31.8287 10.146C32.379 10.3007 32.8848 10.5821 33.3052 10.9673L32.6555 12.192C31.9327 11.5573 30.9913 11.2237 30.0272 11.2607C27.9108 11.2607 26.8501 12.39 26.8452 14.6487Z" fill="#49BFB0"/>
<path id="Vector_4" d="M47.9898 25.9057H33.4086C33.4264 27.1417 33.7727 28.3511 34.4127 29.4112C35.026 30.4186 35.9074 31.2383 36.9598 31.7799C38.0813 32.3482 39.3259 32.6352 40.5848 32.6159C41.6384 32.6259 42.6832 32.4238 43.656 32.0219C44.5769 31.6401 45.3867 31.035 46.0112 30.2619L46.9488 31.3252C46.1956 32.2225 45.2323 32.9225 44.1433 33.3639C42.8416 33.8852 41.4417 34.1204 40.0399 34.0533C38.638 33.9862 37.2674 33.6184 36.0222 32.9753C34.7345 32.2709 33.6669 31.2281 32.9361 29.9612C32.1779 28.6185 31.7907 27.1004 31.8139 25.5611C31.79 24.0298 32.153 22.5169 32.8697 21.161C33.5368 19.8965 34.5437 18.8405 35.7785 18.1102C37.0424 17.3938 38.4725 17.0171 39.9277 17.0171C41.3829 17.0171 42.813 17.3938 44.0769 18.1102C45.3022 18.8314 46.3036 19.8744 46.971 21.1243C47.6898 22.4795 48.0529 23.9929 48.0267 25.5244L47.9898 25.9057ZM36.7161 19.1809C35.7707 19.7002 34.981 20.4594 34.4275 21.381C33.8442 22.3711 33.5052 23.4844 33.4382 24.6297H46.432C46.3861 23.4897 46.0509 22.3798 45.4575 21.403C44.8918 20.4859 44.0987 19.7284 43.154 19.2029C42.1632 18.6784 41.0578 18.404 39.9351 18.404C38.8124 18.404 37.7069 18.6784 36.7161 19.2029V19.1809Z" fill="#49BFB0"/>
<path id="Vector_5" d="M70.1532 23.7573C71.0679 24.8651 71.5338 26.2719 71.4599 27.7027C71.5057 28.5949 71.3272 29.4844 70.9406 30.2909C70.5539 31.0975 69.9712 31.7958 69.2451 32.3228C67.7685 33.3984 65.5856 33.9387 62.6965 33.9436H52.1316V10.3296H62.0542C64.6333 10.3296 66.6414 10.8527 68.0786 11.899C68.784 12.4061 69.3507 13.0803 69.7272 13.8602C70.1037 14.6402 70.278 15.5012 70.2344 16.3651C70.2758 17.5893 69.8984 18.7913 69.1639 19.7752C68.4333 20.7134 67.4311 21.4069 66.2919 21.7626C67.768 21.978 69.128 22.6807 70.1532 23.7573ZM53.8666 11.811V21.2272H61.9877C63.6766 21.3306 65.356 20.9104 66.794 20.0245C67.3496 19.6254 67.795 19.0937 68.0892 18.4785C68.3834 17.8633 68.5168 17.1844 68.4773 16.5044C68.5151 15.8278 68.3807 15.1527 68.0865 14.5413C67.7923 13.9299 67.3478 13.402 66.794 13.0063C65.3537 12.1266 63.6754 11.7092 61.9877 11.811H53.8666ZM67.9752 31.2595C68.5647 30.8519 69.0387 30.3005 69.3516 29.6583C69.6645 29.0161 69.8058 28.3048 69.7619 27.5927C69.8116 26.8799 69.6729 26.1665 69.3595 25.5233C69.0461 24.8801 68.5689 24.3295 67.9752 23.926C66.789 23.1388 65.0418 22.7453 62.7334 22.7453H53.8739V32.4548H62.7334C65.0368 32.4548 66.7841 32.0564 67.9752 31.2595Z" fill="#49BFB0"/>
<path id="Vector_6" d="M89.5997 25.9058H75.0185C75.0362 27.1418 75.3826 28.3511 76.0226 29.4112C76.6359 30.4186 77.5173 31.2383 78.5696 31.78C79.6912 32.3483 80.9357 32.6353 82.1946 32.616C83.2483 32.626 84.293 32.4239 85.2659 32.022C86.1868 31.6402 86.9966 31.035 87.6211 30.2619L88.5587 31.3253C87.8138 32.2187 86.861 32.9184 85.7827 33.364C84.481 33.8853 83.0811 34.1204 81.6793 34.0533C80.2774 33.9862 78.9068 33.6185 77.6616 32.9753C76.3656 32.2671 75.2923 31.2162 74.5607 29.9392C73.8025 28.5965 73.4153 27.0785 73.4386 25.5391C73.4146 24.0078 73.7776 22.495 74.4943 21.139C75.148 19.8713 76.142 18.8078 77.3662 18.0663C78.6302 17.3499 80.0602 16.9731 81.5154 16.9731C82.9706 16.9731 84.4007 17.3499 85.6646 18.0663C86.89 18.7875 87.8914 19.8304 88.5587 21.0803C89.2775 22.4355 89.6406 23.9489 89.6144 25.4805L89.5997 25.9058ZM78.326 19.181C77.3806 19.7003 76.5908 20.4594 76.0373 21.381C75.454 22.3712 75.115 23.4845 75.048 24.6298H88.0419C87.996 23.4898 87.6608 22.3798 87.0673 21.403C86.5017 20.486 85.7086 19.7285 84.7639 19.203C83.7731 18.6784 82.6677 18.4041 81.545 18.4041C80.4223 18.4041 79.3168 18.6784 78.326 19.203V19.181Z" fill="#49BFB0"/>
<path id="Vector_7" d="M108.308 17.0983V32.1613C108.308 34.9628 107.629 37.0235 106.263 38.3582C104.897 39.6929 102.845 40.3602 100.091 40.3602C98.5831 40.3649 97.0855 40.117 95.661 39.6269C94.4088 39.2359 93.2644 38.5634 92.3165 37.6615L93.1951 36.4368C94.0813 37.2326 95.1177 37.8458 96.2442 38.2408C97.4633 38.6773 98.7506 38.8958 100.046 38.8862C102.296 38.8862 103.964 38.3533 105.052 37.2875C106.13 36.2241 106.676 34.5741 106.676 32.3373V29.4919C106.005 30.6934 105 31.6783 103.782 32.33C102.504 33.0068 101.074 33.35 99.6256 33.3274C98.1241 33.3496 96.6421 32.9885 95.3214 32.2787C94.053 31.6003 92.9997 30.5846 92.2796 29.3453C91.5583 28.0514 91.1798 26.5966 91.1798 25.1175C91.1798 23.6384 91.5583 22.1836 92.2796 20.8897C92.9963 19.6477 94.0504 18.6312 95.3214 17.9563C96.6458 17.2577 98.1261 16.902 99.6256 16.9223C101.099 16.9012 102.554 17.2573 103.849 17.9563C105.082 18.6285 106.087 19.6495 106.735 20.8897V17.0983H108.308ZM103.339 31.032C104.377 30.4816 105.239 29.6534 105.827 28.6412C106.413 27.5683 106.719 26.3672 106.719 25.1468C106.719 23.9264 106.413 22.7253 105.827 21.6524C105.234 20.6498 104.373 19.83 103.339 19.2837C102.24 18.703 101.011 18.4078 99.7658 18.4256C98.5277 18.4054 97.3051 18.7008 96.2147 19.2837C95.1868 19.8325 94.331 20.6521 93.7414 21.6524C93.156 22.7253 92.8494 23.9264 92.8494 25.1468C92.8494 26.3672 93.156 27.5683 93.7414 28.6412C94.326 29.6511 95.1825 30.4791 96.2147 31.032C97.3071 31.6089 98.5288 31.9016 99.7658 31.8827C101.01 31.8983 102.239 31.6033 103.339 31.0246V31.032Z" fill="#49BFB0"/>
<path id="Vector_8" d="M127.902 25.9057H113.313C113.335 27.1412 113.681 28.3497 114.318 29.4112C114.934 30.4189 115.818 31.2384 116.872 31.7799C117.991 32.349 119.233 32.6361 120.49 32.6159C121.543 32.6267 122.588 32.4246 123.561 32.0219C124.483 31.6423 125.293 31.0368 125.916 30.2619L126.831 31.3252C126.085 32.2171 125.133 32.9166 124.056 33.3639C122.909 33.8489 121.676 34.0984 120.431 34.0973C118.855 34.1278 117.298 33.7513 115.912 33.0046C114.618 32.2942 113.545 31.2439 112.811 29.9685C112.053 28.6258 111.666 27.1077 111.689 25.5684C111.665 24.0371 112.028 22.5242 112.745 21.1683C113.414 19.9054 114.421 18.8499 115.654 18.1175C116.918 17.4012 118.348 17.0244 119.803 17.0244C121.258 17.0244 122.688 17.4012 123.952 18.1175C125.179 18.8366 126.181 19.8801 126.846 21.1316C127.565 22.4868 127.928 24.0002 127.902 25.5317V25.9057ZM116.628 19.1809C115.681 19.6979 114.891 20.4576 114.34 21.381C113.754 22.3706 113.413 23.4838 113.343 24.6297H126.337C126.298 23.4885 125.963 22.3767 125.362 21.403C124.797 20.4859 124.004 19.7284 123.059 19.2029C122.069 18.6784 120.965 18.404 119.844 18.404C118.722 18.404 117.618 18.6784 116.628 19.2029V19.1809Z" fill="#49BFB0"/>
<path id="Vector_9" d="M150.309 27.2993C148.788 28.4434 140.143 32.9388 138.917 33.4375C138.074 33.7729 137.186 33.9853 136.282 34.0682C135.661 34.1311 135.033 34.0561 134.445 33.8484C133.857 33.6408 133.323 33.3059 132.881 32.8678C132.439 32.4298 132.101 31.8996 131.891 31.3158C131.681 30.7319 131.605 30.109 131.667 29.4921V18.4918H128.552V17.0984H131.667V13.4316H133.291V17.0984H138.681V18.4844H133.291V29.3307C133.228 30.2347 133.513 31.1289 134.089 31.8315C134.397 32.1278 134.765 32.3567 135.168 32.5032C135.571 32.6497 136.001 32.7107 136.429 32.6822C137.438 32.5398 138.413 32.2194 139.309 31.7361C139.892 31.4575 141.915 30.4528 142.646 30.0788C146.337 28.2234 149.689 26.6613 150.11 26.2873L150.309 27.2993Z" fill="#49BFB0"/>
<path id="Vector_10" d="M153.166 8.94314C153.054 8.94024 152.945 8.90448 152.854 8.84037C152.762 8.77627 152.691 8.68667 152.651 8.58284C152.61 8.47902 152.602 8.3656 152.626 8.25686C152.65 8.14812 152.706 8.04891 152.787 7.9717C152.868 7.8945 152.97 7.84275 153.08 7.82295C153.19 7.80316 153.304 7.81622 153.407 7.86047C153.51 7.90473 153.597 7.97821 153.658 8.07168C153.719 8.16515 153.751 8.27444 153.749 8.38579C153.744 8.5356 153.68 8.67737 153.571 8.7813C153.462 8.88524 153.317 8.94325 153.166 8.94314Z" fill="#49BFB0"/>
<path id="Vector_11" d="M150.036 15.7927C149.924 15.7898 149.815 15.7541 149.723 15.69C149.632 15.6259 149.561 15.5363 149.521 15.4325C149.48 15.3286 149.471 15.2152 149.496 15.1065C149.52 14.9977 149.576 14.8985 149.657 14.8213C149.737 14.7441 149.839 14.6924 149.95 14.6726C150.06 14.6528 150.174 14.6658 150.277 14.7101C150.379 14.7543 150.467 14.8278 150.528 14.9213C150.589 15.0148 150.621 15.124 150.619 15.2354C150.618 15.3102 150.602 15.384 150.572 15.4527C150.542 15.5213 150.499 15.5833 150.445 15.6352C150.391 15.6871 150.326 15.7277 150.256 15.7547C150.186 15.7818 150.111 15.7947 150.036 15.7927Z" fill="#49BFB0"/>
<path id="Vector_12" d="M156.149 17.4945C156.155 17.5313 156.153 17.5691 156.143 17.6051C156.134 17.6412 156.116 17.6746 156.092 17.7032C156.067 17.7318 156.037 17.7547 156.003 17.7705C155.969 17.7862 155.932 17.7944 155.894 17.7944C155.857 17.7944 155.819 17.7862 155.785 17.7705C155.751 17.7547 155.721 17.7318 155.697 17.7032C155.672 17.6746 155.655 17.6412 155.645 17.6051C155.635 17.5691 155.633 17.5313 155.639 17.4945C155.639 17.4276 155.666 17.3634 155.712 17.3155C155.759 17.2676 155.823 17.2397 155.89 17.2378C155.959 17.2378 156.025 17.2648 156.073 17.313C156.122 17.3611 156.149 17.4264 156.149 17.4945Z" fill="#49BFB0"/>
<path id="Vector_13" d="M155.905 18.2934C155.938 18.2944 155.971 18.3018 156.001 18.3152C156.031 18.3286 156.058 18.3478 156.081 18.3716C156.103 18.3954 156.121 18.4235 156.133 18.4541C156.144 18.4847 156.15 18.5174 156.149 18.5501C156.147 18.6169 156.119 18.6803 156.071 18.7269C156.022 18.7734 155.958 18.7995 155.89 18.7994C155.856 18.7985 155.822 18.7907 155.79 18.7765C155.759 18.7622 155.731 18.7418 155.707 18.7165C155.684 18.6912 155.666 18.6615 155.654 18.6291C155.642 18.5968 155.637 18.5624 155.639 18.5281C155.641 18.4953 155.65 18.4633 155.664 18.4337C155.678 18.4042 155.699 18.3778 155.723 18.3559C155.748 18.3341 155.777 18.3174 155.808 18.3067C155.839 18.2959 155.872 18.2914 155.905 18.2934Z" fill="#49BFB0"/>
<path id="Vector_14" d="M163.089 9.99188C162.832 9.10409 162.431 8.2642 161.9 7.50582C161.369 6.755 160.716 6.09807 159.966 5.56243C159.289 5.08454 158.542 4.71348 157.751 4.4624C157.751 4.4624 157.751 6.32512 157.751 6.33979V8.53985C157.731 8.84479 157.805 9.14851 157.963 9.41055C158.122 9.67258 158.357 9.88049 158.637 10.0066C158.822 10.0998 159.027 10.1499 159.235 10.1532C159.331 10.1532 159.427 10.1532 159.515 10.1532C159.603 10.1304 159.695 10.1422 159.774 10.186C159.852 10.2298 159.91 10.3022 159.936 10.3879C160.041 10.5919 160.214 10.7528 160.426 10.8426C160.638 10.9325 160.875 10.9454 161.095 10.8792C161.32 10.8166 161.517 10.6796 161.653 10.4909C161.789 10.3022 161.856 10.0731 161.843 9.8414C161.83 9.60972 161.738 9.38936 161.582 9.21671C161.426 9.04406 161.215 8.92946 160.985 8.89185C160.756 8.85405 160.521 8.89533 160.32 9.00879C160.118 9.12226 159.962 9.30103 159.877 9.5152C159.867 9.55949 159.839 9.59798 159.801 9.62259C159.762 9.6472 159.715 9.65602 159.67 9.64721C159.453 9.65812 159.235 9.64335 159.021 9.60321C158.803 9.54271 158.612 9.41165 158.479 9.23089C158.345 9.05014 158.276 8.8301 158.282 8.60585C158.282 7.49115 158.282 6.40579 158.282 5.26909C158.279 5.2546 158.279 5.23958 158.282 5.22509C159.691 5.83541 160.881 6.8528 161.699 8.14474C162.517 9.43668 162.924 10.9433 162.867 12.4683C162.81 13.9934 162.293 15.4661 161.382 16.6948C160.47 17.9235 159.208 18.8511 157.758 19.3568V14.744C157.754 14.7026 157.754 14.6608 157.758 14.6193C157.786 14.3672 157.907 14.1343 158.098 13.9662C158.289 13.798 158.537 13.7067 158.792 13.71C158.836 13.7137 158.881 13.7137 158.925 13.71C159.03 13.6821 159.143 13.6955 159.239 13.7473C159.335 13.7991 159.408 13.8854 159.442 13.9887C159.555 14.1922 159.738 14.3477 159.959 14.426C160.179 14.5043 160.42 14.5001 160.638 14.414C160.855 14.3391 161.041 14.1931 161.164 14C161.287 13.8069 161.341 13.578 161.317 13.3506C161.314 13.1069 161.222 12.8726 161.059 12.6905C160.896 12.5085 160.672 12.3911 160.429 12.3599C160.185 12.3287 159.939 12.3858 159.734 12.5206C159.53 12.6555 159.381 12.8591 159.316 13.094C159.307 13.1377 159.281 13.1761 159.244 13.2008C159.206 13.2256 159.161 13.2346 159.117 13.226C158.87 13.2098 158.622 13.2246 158.378 13.27C158.038 13.357 157.738 13.5573 157.528 13.8376C157.319 14.1179 157.212 14.4611 157.227 14.81V19.2688C157.223 19.3274 157.223 19.3862 157.227 19.4448C157.227 19.5181 157.227 19.5548 157.131 19.5768C156.824 19.6516 156.513 19.7104 156.201 19.7528C156.201 19.6721 156.201 19.5988 156.201 19.5255C156.19 19.4658 156.159 19.4116 156.112 19.3725C156.066 19.3335 156.007 19.312 155.946 19.312C155.885 19.312 155.826 19.3335 155.779 19.3725C155.733 19.4116 155.701 19.4658 155.691 19.5255C155.691 19.6135 155.691 19.7528 155.691 19.7821C155.591 19.805 155.488 19.805 155.388 19.7821C155.197 19.7931 155.004 19.7931 154.813 19.7821C154.702 19.7821 154.687 19.7381 154.687 19.6428C154.687 19.0708 154.687 18.4914 154.687 17.9121V12.5073C154.706 12.2033 154.633 11.9006 154.476 11.6389C154.319 11.3771 154.087 11.1686 153.808 11.0406C153.577 10.9354 153.324 10.8852 153.07 10.8939H147.238C147.179 10.8939 147.068 10.8939 147.061 10.9526C147.007 11.3097 146.975 11.6697 146.965 12.0306C146.965 12.2066 146.965 12.3753 146.965 12.5513C146.976 12.8832 147.011 13.214 147.068 13.5413C147.248 14.5555 147.616 15.5277 148.153 16.4087C148.603 17.1482 149.172 17.8097 149.836 18.3668C150.544 18.982 151.357 19.4663 152.236 19.7968C152.988 20.1006 153.787 20.2718 154.598 20.3028C155.251 20.3431 155.906 20.321 156.555 20.2368C158.452 19.9238 160.177 18.9518 161.42 17.4941C162.608 16.1506 163.291 14.4406 163.355 12.654C163.409 11.7582 163.319 10.8595 163.089 9.99188ZM160.793 9.4272C160.927 9.43273 161.055 9.48881 161.149 9.5841C161.244 9.67939 161.298 9.80679 161.302 9.94055C161.298 10.0741 161.242 10.201 161.146 10.2941C161.049 10.3872 160.92 10.4393 160.785 10.4392C160.652 10.4355 160.525 10.3807 160.432 10.2864C160.338 10.1921 160.285 10.0656 160.283 9.93322C160.287 9.80018 160.342 9.67361 160.437 9.5795C160.531 9.4854 160.659 9.4309 160.793 9.4272ZM160.283 12.984C160.418 12.9878 160.545 13.0435 160.639 13.1394C160.733 13.2353 160.785 13.3637 160.785 13.4973C160.781 13.6296 160.726 13.7554 160.631 13.8483C160.537 13.9412 160.409 13.9942 160.276 13.996C160.141 13.9941 160.013 13.9402 159.918 13.8457C159.823 13.7512 159.768 13.6236 159.766 13.49C159.763 13.421 159.774 13.3521 159.798 13.2873C159.823 13.2226 159.859 13.1632 159.907 13.1127C159.954 13.0622 160.011 13.0216 160.075 12.9932C160.138 12.9648 160.206 12.9492 160.276 12.9473L160.283 12.984ZM154.148 19.6941C153.829 19.6575 153.514 19.5986 153.203 19.5181C153.114 19.5181 153.129 19.4301 153.129 19.3715C153.129 18.7628 153.129 18.1614 153.129 17.5601C153.162 17.1207 153.162 16.6794 153.129 16.2401C153.077 15.8861 152.9 15.5621 152.629 15.3257C152.359 15.0893 152.013 14.956 151.653 14.9493H151.173C151.092 14.9493 151.062 14.9493 151.04 14.8467C150.975 14.6603 150.855 14.4977 150.696 14.38C150.536 14.2623 150.345 14.1949 150.147 14.1867C149.941 14.1644 149.733 14.2087 149.555 14.3131C149.377 14.4175 149.237 14.5764 149.157 14.766C149.065 14.9439 149.03 15.1458 149.058 15.3442C149.085 15.5425 149.174 15.7274 149.312 15.8734C149.428 16.0035 149.575 16.1019 149.74 16.1592C149.905 16.2164 150.082 16.2307 150.254 16.2005C150.426 16.1703 150.587 16.0967 150.722 15.9868C150.857 15.8768 150.961 15.7342 151.025 15.5727C151.069 15.47 151.106 15.448 151.21 15.448C151.495 15.4216 151.783 15.4592 152.051 15.558C152.226 15.6349 152.375 15.7616 152.477 15.9222C152.58 16.0828 152.632 16.27 152.627 16.4601C152.627 17.4134 152.627 18.3594 152.627 19.3275C152.055 19.1283 151.509 18.8598 151.003 18.5281C149.894 17.8107 148.991 16.8203 148.382 15.6534C147.947 14.8316 147.672 13.9361 147.57 13.0133C147.526 12.5131 147.526 12.0101 147.57 11.5099C147.57 11.4146 147.57 11.3853 147.695 11.3853H153.129C153.269 11.3839 153.408 11.4113 153.536 11.4659C153.665 11.5205 153.781 11.6009 153.877 11.7022C153.972 11.8036 154.046 11.9235 154.093 12.0545C154.139 12.1855 154.158 12.3247 154.148 12.4633C154.148 14.876 154.148 17.2887 154.148 19.7015C154.148 19.6941 154.148 19.6941 154.148 19.6941ZM150.575 15.1987C150.573 15.333 150.519 15.4614 150.424 15.5571C150.329 15.6527 150.201 15.7083 150.065 15.712C149.965 15.712 149.867 15.6825 149.783 15.6272C149.7 15.572 149.634 15.4934 149.595 15.4013C149.557 15.3093 149.546 15.2079 149.565 15.11C149.584 15.012 149.632 14.9219 149.703 14.8508C149.773 14.7797 149.863 14.731 149.962 14.7106C150.06 14.6903 150.162 14.6993 150.255 14.7365C150.348 14.7736 150.428 14.8373 150.485 14.9196C150.542 15.0018 150.573 15.0989 150.575 15.1987Z" fill="#49BFB0"/>
<path id="Vector_15" d="M156.164 13.021V9.68421C156.164 9.35134 156.055 9.02746 155.852 8.76244C155.649 8.49742 155.365 8.30595 155.041 8.21751C154.778 8.15772 154.506 8.13794 154.237 8.15884C154.133 8.15884 154.082 8.15884 154.045 8.03417C153.96 7.81166 153.798 7.62605 153.589 7.50994C153.38 7.39383 153.136 7.35467 152.901 7.39932C152.666 7.44398 152.454 7.56959 152.302 7.7541C152.151 7.93861 152.07 8.1702 152.074 8.40818C152.073 8.64513 152.156 8.87481 152.307 9.05775C152.459 9.24068 152.67 9.36544 152.904 9.41058C153.138 9.45571 153.381 9.4184 153.591 9.30506C153.8 9.19172 153.963 9.00942 154.052 8.78952C154.052 8.73819 154.052 8.66485 154.148 8.66485C154.395 8.65083 154.643 8.6656 154.886 8.70885C155.116 8.77582 155.315 8.91991 155.45 9.11652C155.585 9.31313 155.646 9.55007 155.625 9.78688V16.3871C155.621 16.4383 155.621 16.4898 155.625 16.5411C155.634 16.6026 155.665 16.6588 155.712 16.6993C155.76 16.7398 155.821 16.7617 155.883 16.7611C155.945 16.7615 156.005 16.7393 156.051 16.6987C156.097 16.6581 156.127 16.602 156.134 16.5411C156.138 16.4922 156.138 16.4432 156.134 16.3944L156.164 13.021ZM153.1 8.89219C152.966 8.88691 152.838 8.83211 152.743 8.73853C152.647 8.64494 152.59 8.5193 152.583 8.38618C152.598 8.26153 152.659 8.1467 152.753 8.06339C152.848 7.98008 152.97 7.93408 153.096 7.93408C153.222 7.93408 153.344 7.98008 153.439 8.06339C153.534 8.1467 153.594 8.26153 153.609 8.38618C153.604 8.51865 153.548 8.64423 153.454 8.73798C153.36 8.83173 153.233 8.88678 153.1 8.89219Z" fill="#49BFB0"/>
<path id="Vector_16" d="M146.95 5.55538C146.87 5.56444 146.79 5.55668 146.713 5.53262C146.637 5.50856 146.566 5.46873 146.507 5.41576C146.447 5.36279 146.399 5.29787 146.366 5.22525C146.334 5.15262 146.317 5.07395 146.317 4.99437C146.317 4.91479 146.334 4.83612 146.366 4.76349C146.399 4.69087 146.447 4.62595 146.507 4.57298C146.566 4.52 146.637 4.48018 146.713 4.45612C146.79 4.43206 146.87 4.4243 146.95 4.43335C147.029 4.4243 147.11 4.43206 147.186 4.45612C147.263 4.48018 147.333 4.52 147.393 4.57298C147.453 4.62595 147.501 4.69087 147.533 4.76349C147.566 4.83612 147.583 4.91479 147.583 4.99437C147.583 5.07395 147.566 5.15262 147.533 5.22525C147.501 5.29787 147.453 5.36279 147.393 5.41576C147.333 5.46873 147.263 5.50856 147.186 5.53262C147.11 5.55668 147.029 5.56444 146.95 5.55538Z" fill="#49BFB0"/>
<path id="Vector_17" d="M166.049 9.35382C165.03 4.85103 162.07 2.05695 157.552 0.920257C157.086 0.802921 156.599 0.744252 156.127 0.65625H155.868C155.719 0.714689 155.553 0.714689 155.403 0.65625H154.096C154.088 0.676157 154.074 0.692778 154.055 0.703425C154.036 0.714072 154.014 0.718121 153.993 0.714918C152.897 0.811673 151.823 1.07894 150.811 1.50694C149.921 1.88194 149.087 2.37536 148.33 2.97365C148.24 3.0258 148.17 3.10522 148.128 3.20025C148.087 3.29527 148.078 3.40091 148.102 3.50166C148.12 3.59833 148.169 3.68689 148.24 3.75517C148.311 3.82345 148.402 3.86811 148.5 3.883C148.593 3.89114 148.686 3.87965 148.774 3.84931C148.862 3.81897 148.942 3.77047 149.01 3.707C150.185 2.80572 151.547 2.17611 152.998 1.86402C154.449 1.55193 155.952 1.56523 157.397 1.90295C159.859 2.44712 162.031 3.88083 163.489 5.92577C164.947 7.9707 165.589 10.481 165.289 12.9692C165.141 14.343 164.706 15.6709 164.012 16.8681C163.318 18.0652 162.38 19.1052 161.258 19.9214C160.012 20.8068 159.171 22.1464 158.917 23.6469C158.881 23.8522 158.821 23.9182 158.6 23.9182C156.385 23.9182 154.207 23.9182 152.007 23.9182C151.446 23.9182 151.446 23.9182 151.32 23.3535C151.32 23.2509 151.269 23.1482 151.239 23.0455C150.83 21.7213 149.989 20.5704 148.847 19.7748C147.656 18.8692 146.686 17.7086 146.008 16.3793C145.331 15.05 144.964 13.5862 144.934 12.0966C144.856 10.3776 145.233 8.66828 146.027 7.13909C146.212 6.77975 146.138 6.50107 145.842 6.36907C145.547 6.23707 145.326 6.36907 145.141 6.69908C143.9 9.05529 143.569 11.7809 144.211 14.3626C144.817 16.9541 146.346 19.2406 148.515 20.8015C149.432 21.4638 150.073 22.4369 150.316 23.5369C150.368 23.7349 150.42 23.8889 150.11 23.9695C149.848 24.033 149.607 24.1604 149.409 24.3402C149.21 24.5199 149.059 24.7463 148.971 24.9987C148.883 25.251 148.86 25.5213 148.904 25.7847C148.948 26.0482 149.058 26.2965 149.224 26.5069C149.247 26.5288 149.265 26.555 149.277 26.584C149.289 26.613 149.296 26.6441 149.296 26.6756C149.296 26.7071 149.289 26.7382 149.277 26.7672C149.265 26.7962 149.247 26.8224 149.224 26.8443C149.015 27.119 148.903 27.4536 148.903 27.7976C148.903 28.1416 149.015 28.4763 149.224 28.751C149.251 28.7764 149.273 28.8071 149.288 28.8411C149.302 28.8752 149.31 28.9119 149.31 28.949C149.31 28.9861 149.302 29.0229 149.288 29.0569C149.273 29.091 149.251 29.1216 149.224 29.147C149.048 29.3857 148.941 29.668 148.916 29.9628C148.89 30.2577 148.947 30.5538 149.079 30.8188C149.212 31.0838 149.416 31.3074 149.668 31.4653C149.92 31.6231 150.21 31.7091 150.508 31.7137C150.73 31.7137 150.774 31.8091 150.826 31.9851C150.986 32.5638 151.332 33.0744 151.812 33.4387C152.292 33.8029 152.88 34.0008 153.484 34.0018C154.554 34.0018 155.625 34.0018 156.695 34.0018C157.327 34.0285 157.949 33.8371 158.455 33.4601C158.961 33.0831 159.32 32.5438 159.471 31.9338C159.482 31.8662 159.519 31.8056 159.574 31.7645C159.629 31.7235 159.698 31.7053 159.766 31.7137C160.066 31.7084 160.358 31.6214 160.611 31.4623C160.863 31.3032 161.067 31.078 161.2 30.8115C161.333 30.545 161.389 30.2474 161.363 29.9512C161.336 29.655 161.229 29.3718 161.051 29.1323C161.027 29.1104 161.008 29.0837 160.995 29.0541C160.982 29.0244 160.975 28.9924 160.975 28.96C160.975 28.9276 160.982 28.8956 160.995 28.866C161.008 28.8363 161.027 28.8096 161.051 28.7877C161.27 28.5131 161.389 28.1733 161.389 27.8233C161.389 27.4733 161.27 27.1335 161.051 26.859C161.025 26.835 161.005 26.806 160.991 26.7738C160.977 26.7417 160.97 26.707 160.97 26.6719C160.97 26.6369 160.977 26.6022 160.991 26.5701C161.005 26.5379 161.025 26.5089 161.051 26.4849C161.208 26.2763 161.312 26.0326 161.353 25.7751C161.394 25.5176 161.371 25.2541 161.285 25.0075C161.2 24.761 161.056 24.5388 160.864 24.3605C160.673 24.1821 160.44 24.0529 160.187 23.9842C159.885 23.9035 159.885 23.7715 159.936 23.5442C160.226 22.4021 160.908 21.396 161.863 20.6988C165.569 17.7654 167.09 13.9373 166.049 9.35382ZM156.828 33.0191C155.706 33.0191 154.613 33.0191 153.454 33.0191C153.076 33.0157 152.711 32.8878 152.414 32.6555C152.117 32.4233 151.907 32.0998 151.815 31.7357H158.46C158.368 32.0985 158.159 32.4212 157.864 32.6533C157.569 32.8855 157.205 33.0141 156.828 33.0191ZM160.305 25.8323C160.232 25.9581 160.123 26.0595 159.991 26.1235C159.86 26.1874 159.712 26.2112 159.567 26.1916H153.993C153.661 26.1916 153.454 26.3383 153.417 26.6023C153.404 26.6745 153.409 26.7486 153.429 26.819C153.45 26.8893 153.487 26.954 153.537 27.0079C153.587 27.0618 153.649 27.1036 153.718 27.1299C153.786 27.1562 153.861 27.1664 153.934 27.1596H159.604C160.18 27.1596 160.52 27.629 160.291 28.0837C160.235 28.202 160.144 28.3009 160.031 28.3676C159.918 28.4343 159.787 28.4657 159.656 28.4577H158.607C158.539 28.4502 158.47 28.4576 158.404 28.4791C158.339 28.5007 158.279 28.536 158.228 28.5826C158.178 28.6292 158.138 28.686 158.112 28.7493C158.086 28.8125 158.073 28.8806 158.076 28.949C158.072 29.0168 158.083 29.0845 158.109 29.1475C158.134 29.2104 158.173 29.267 158.224 29.3132C158.274 29.3594 158.333 29.3941 158.398 29.4148C158.463 29.4355 158.532 29.4417 158.6 29.433H159.648C159.74 29.4233 159.833 29.4329 159.92 29.4611C160.008 29.4893 160.089 29.5355 160.157 29.5967C160.226 29.6579 160.281 29.7328 160.318 29.8164C160.356 29.9 160.375 29.9905 160.375 30.082C160.375 30.1736 160.356 30.2641 160.318 30.3477C160.281 30.4313 160.226 30.5062 160.157 30.5674C160.089 30.6286 160.008 30.6748 159.92 30.703C159.833 30.7312 159.74 30.7407 159.648 30.7311H150.619C150.527 30.7407 150.435 30.7312 150.347 30.703C150.259 30.6748 150.179 30.6286 150.11 30.5674C150.042 30.5062 149.987 30.4313 149.949 30.3477C149.912 30.2641 149.892 30.1736 149.892 30.082C149.892 29.9905 149.912 29.9 149.949 29.8164C149.987 29.7328 150.042 29.6579 150.11 29.5967C150.179 29.5355 150.259 29.4893 150.347 29.4611C150.435 29.4329 150.527 29.4233 150.619 29.433H156.164C156.533 29.433 156.739 29.2717 156.754 28.9783C156.769 28.685 156.555 28.4577 156.186 28.4577H150.612C150.52 28.4674 150.427 28.4578 150.34 28.4296C150.252 28.4014 150.171 28.3552 150.103 28.294C150.034 28.2328 149.979 28.1579 149.942 28.0743C149.904 27.9907 149.885 27.9002 149.885 27.8086C149.885 27.7171 149.904 27.6266 149.942 27.543C149.979 27.4594 150.034 27.3845 150.103 27.3233C150.171 27.2621 150.252 27.2159 150.34 27.1877C150.427 27.1595 150.52 27.1499 150.612 27.1596H151.601C151.665 27.1596 151.728 27.1471 151.787 27.1228C151.847 27.0985 151.9 27.0628 151.946 27.0179C151.991 26.9729 152.027 26.9196 152.051 26.8608C152.076 26.8021 152.088 26.7392 152.088 26.6756C152.088 26.6121 152.076 26.5491 152.051 26.4904C152.027 26.4317 151.991 26.3783 151.946 26.3334C151.9 26.2884 151.847 26.2528 151.787 26.2284C151.728 26.2041 151.665 26.1916 151.601 26.1916H150.619C150.527 26.2013 150.435 26.1917 150.347 26.1635C150.259 26.1353 150.179 26.0891 150.11 26.0279C150.042 25.9667 149.987 25.8919 149.949 25.8083C149.912 25.7246 149.892 25.6341 149.892 25.5426C149.892 25.451 149.912 25.3605 149.949 25.2769C149.987 25.1933 150.042 25.1185 150.11 25.0573C150.179 24.996 150.259 24.9498 150.347 24.9216C150.435 24.8934 150.527 24.8839 150.619 24.8936H159.597C160.209 24.8862 160.556 25.3776 160.305 25.8323Z" fill="#49BFB0"/>
<path id="Vector_18" d="M18.8865 13.1822C19.755 13.1822 20.4591 12.4828 20.4591 11.6201C20.4591 10.7575 19.755 10.0581 18.8865 10.0581C18.018 10.0581 17.314 10.7575 17.314 11.6201C17.314 12.4828 18.018 13.1822 18.8865 13.1822Z" fill="#49BFB0"/>
</g>
</svg>
