<svg width="100" height="24" viewBox="0 0 100 24" fill="none" xmlns="http://www.w3.org/2000/svg">
<g id="Group 1735">
<path id="Vector" d="M0.971191 5.94141H1.99949V19.0716H10.16V19.9969H0.971191V5.94141Z" fill="#49BFB0"/>
<path id="Vector_2" d="M11.3026 7.31192C11.2289 7.24065 11.171 7.15496 11.1324 7.06029C11.0938 6.96561 11.0754 6.86401 11.0784 6.76192C11.0796 6.55314 11.1639 6.35329 11.313 6.20607C11.462 6.05884 11.6636 5.9762 11.8738 5.97621C11.9767 5.97432 12.079 5.99264 12.1748 6.03009C12.2706 6.06754 12.3579 6.1234 12.4319 6.19446C12.5078 6.26446 12.5679 6.34971 12.608 6.44454C12.6482 6.53937 12.6675 6.64161 12.6648 6.74446C12.6637 6.95249 12.58 7.15167 12.4319 7.29878C12.2838 7.44588 12.0833 7.52903 11.8738 7.53017C11.7688 7.53307 11.6643 7.51528 11.5662 7.47782C11.4682 7.44035 11.3786 7.38397 11.3026 7.31192ZM11.3817 9.97025H12.3484V20.0099H11.3817V9.97025Z" fill="#49BFB0"/>
<path id="Vector_3" d="M16.6022 8.51236V9.97029H19.8322V10.7953H16.6198V19.9969H15.653V10.7953H13.7986V9.97029H15.653V8.43378C15.6342 8.06605 15.6893 7.69826 15.8153 7.35198C15.9414 7.00569 16.1357 6.68787 16.3869 6.41712C16.6619 6.15812 16.9875 5.95787 17.3435 5.82874C17.6995 5.6996 18.0784 5.64433 18.4567 5.66633C18.8336 5.66538 19.2085 5.72131 19.5685 5.8322C19.8961 5.92431 20.1972 6.0918 20.4474 6.32109L20.0607 7.05006C19.6304 6.67227 19.0701 6.47372 18.4962 6.49569C17.2365 6.49569 16.6052 7.16791 16.6022 8.51236Z" fill="#49BFB0"/>
<path id="Vector_4" d="M29.188 15.2126H20.5089C20.5195 15.9483 20.7257 16.6681 21.1066 17.2991C21.4717 17.8987 21.9963 18.3866 22.6227 18.709C23.2902 19.0473 24.031 19.2181 24.7803 19.2066C25.4075 19.2126 26.0294 19.0923 26.6084 18.8531C27.1566 18.6258 27.6386 18.2656 28.0103 17.8055L28.5684 18.4384C28.12 18.9724 27.5466 19.3891 26.8985 19.6519C26.1237 19.9621 25.2904 20.1021 24.456 20.0622C23.6216 20.0222 22.8058 19.8033 22.0646 19.4205C21.2982 19.0013 20.6627 18.3806 20.2277 17.6265C19.7764 16.8273 19.5459 15.9237 19.5597 15.0074C19.5455 14.096 19.7615 13.1955 20.1882 12.3884C20.5852 11.6358 21.1845 11.0072 21.9196 10.5725C22.6719 10.1461 23.5231 9.92188 24.3892 9.92188C25.2554 9.92188 26.1066 10.1461 26.8589 10.5725C27.5883 11.0018 28.1843 11.6226 28.5815 12.3666C29.0094 13.1732 29.2255 14.074 29.21 14.9856L29.188 15.2126ZM22.4777 11.2098C21.9149 11.5189 21.4448 11.9708 21.1154 12.5193C20.7682 13.1087 20.5664 13.7714 20.5265 14.4531H28.2607C28.2334 13.7745 28.0339 13.1139 27.6807 12.5324C27.344 11.9866 26.8719 11.5357 26.3096 11.2229C25.7199 10.9107 25.0619 10.7474 24.3936 10.7474C23.7254 10.7474 23.0674 10.9107 22.4777 11.2229V11.2098Z" fill="#49BFB0"/>
<path id="Vector_5" d="M42.3802 13.9339C42.9246 14.5932 43.2019 15.4306 43.158 16.2823C43.1852 16.8133 43.079 17.3427 42.8488 17.8228C42.6187 18.3029 42.2719 18.7186 41.8396 19.0323C40.9608 19.6725 39.6615 19.994 37.9418 19.9969H31.6533V5.94141H37.5595C39.0946 5.94141 40.2899 6.25278 41.1453 6.87553C41.5652 7.1774 41.9025 7.57867 42.1266 8.04292C42.3507 8.50716 42.4545 9.01966 42.4285 9.53386C42.4531 10.2625 42.2285 10.978 41.7913 11.5636C41.3565 12.1221 40.7599 12.5349 40.0819 12.7466C40.9604 12.8748 41.77 13.293 42.3802 13.9339ZM32.686 6.82315V12.4279H37.5199C38.5251 12.4895 39.5248 12.2393 40.3807 11.712C40.7114 11.4745 40.9765 11.158 41.1516 10.7918C41.3267 10.4256 41.4062 10.0215 41.3826 9.6168C41.4051 9.21408 41.3252 8.81221 41.15 8.4483C40.9749 8.0844 40.7103 7.77018 40.3807 7.53466C39.5234 7.01103 38.5245 6.76259 37.5199 6.82315H32.686ZM41.0838 18.3993C41.4347 18.1567 41.7168 17.8285 41.903 17.4463C42.0893 17.0641 42.1734 16.6406 42.1473 16.2168C42.1769 15.7925 42.0943 15.3679 41.9078 14.985C41.7212 14.6022 41.4372 14.2744 41.0838 14.0343C40.3778 13.5657 39.3377 13.3315 37.9637 13.3315H32.6904V19.1108H37.9637C39.3348 19.1108 40.3748 18.8737 41.0838 18.3993Z" fill="#49BFB0"/>
<path id="Vector_6" d="M53.9551 15.2129H45.276C45.2866 15.9486 45.4928 16.6684 45.8737 17.2994C46.2387 17.8991 46.7634 18.3869 47.3898 18.7093C48.0573 19.0476 48.7981 19.2184 49.5474 19.207C50.1746 19.2129 50.7964 19.0926 51.3755 18.8534C51.9237 18.6261 52.4056 18.2659 52.7774 17.8058L53.3355 18.4387C52.8921 18.9705 52.3249 19.387 51.6831 19.6522C50.9083 19.9625 50.0751 20.1024 49.2407 20.0625C48.4063 20.0226 47.5904 19.8037 46.8492 19.4208C46.0779 18.9993 45.439 18.3738 45.0036 17.6137C44.5523 16.8145 44.3218 15.9109 44.3356 14.9947C44.3214 14.0832 44.5374 13.1827 44.964 12.3756C45.3531 11.621 45.9447 10.988 46.6735 10.5466C47.4258 10.1202 48.277 9.896 49.1432 9.896C50.0093 9.896 50.8605 10.1202 51.6128 10.5466C52.3422 10.9759 52.9383 11.5967 53.3355 12.3407C53.7633 13.1473 53.9794 14.0481 53.9639 14.9597L53.9551 15.2129ZM47.2447 11.2101C46.682 11.5192 46.2119 11.9711 45.8825 12.5197C45.5353 13.109 45.3335 13.7717 45.2936 14.4534H53.0278C53.0005 13.7748 52.801 13.1142 52.4478 12.5328C52.1111 11.9869 51.639 11.536 51.0767 11.2232C50.487 10.911 49.829 10.7477 49.1607 10.7477C48.4925 10.7477 47.8345 10.911 47.2447 11.2232V11.2101Z" fill="#49BFB0"/>
<path id="Vector_7" d="M65.0905 9.97052V18.9364C65.0905 20.6038 64.6862 21.8304 63.8732 22.6249C63.0602 23.4193 61.8386 23.8165 60.1995 23.8165C59.3021 23.8193 58.4107 23.6718 57.5628 23.38C56.8175 23.1473 56.1363 22.747 55.5721 22.2102L56.095 21.4812C56.6225 21.9549 57.2394 22.3199 57.91 22.555C58.6356 22.8148 59.4018 22.9449 60.1731 22.9392C61.5119 22.9392 62.5051 22.622 63.1525 21.9876C63.7941 21.3546 64.1193 20.3725 64.1193 19.0412V17.3475C63.7195 18.0626 63.1217 18.6489 62.3967 19.0368C61.6359 19.4396 60.7846 19.6439 59.9226 19.6304C59.0289 19.6436 58.1468 19.4287 57.3607 19.0062C56.6057 18.6024 55.9788 17.9979 55.5501 17.2602C55.1208 16.49 54.8955 15.6241 54.8955 14.7437C54.8955 13.8634 55.1208 12.9974 55.5501 12.2273C55.9767 11.488 56.6041 10.8829 57.3607 10.4812C58.149 10.0654 59.0301 9.85371 59.9226 9.86576C60.7998 9.85323 61.6654 10.0652 62.4362 10.4812C63.1704 10.8813 63.7685 11.4891 64.1545 12.2273V9.97052H65.0905ZM62.133 18.2642C62.7508 17.9366 63.2638 17.4436 63.6139 16.8412C63.9624 16.2025 64.1449 15.4876 64.1449 14.7612C64.1449 14.0348 63.9624 13.3199 63.6139 12.6812C63.2608 12.0845 62.7482 11.5965 62.133 11.2713C61.4787 10.9257 60.7471 10.75 60.0061 10.7606C59.2692 10.7486 58.5414 10.9244 57.8924 11.2713C57.2805 11.598 56.7712 12.0858 56.4202 12.6812C56.0718 13.3199 55.8893 14.0348 55.8893 14.7612C55.8893 15.4876 56.0718 16.2025 56.4202 16.8412C56.7682 17.4423 57.278 17.9351 57.8924 18.2642C58.5426 18.6076 59.2698 18.7818 60.0061 18.7705C60.7469 18.7798 61.4783 18.6042 62.133 18.2598V18.2642Z" fill="#49BFB0"/>
<path id="Vector_8" d="M76.7534 15.2126H68.07C68.0826 15.948 68.2886 16.6673 68.6676 17.2991C69.0344 17.8989 69.5605 18.3868 70.1881 18.7091C70.8539 19.0478 71.5934 19.2187 72.3414 19.2067C72.9686 19.2131 73.5905 19.0928 74.1695 18.8531C74.7184 18.6272 75.2006 18.2667 75.5713 17.8055L76.1162 18.4384C75.672 18.9693 75.1051 19.3856 74.4639 19.6519C73.7817 19.9406 73.0477 20.0891 72.3062 20.0884C71.3682 20.1066 70.4415 19.8824 69.6168 19.438C68.8464 19.0152 68.2079 18.39 67.7712 17.6309C67.3198 16.8317 67.0894 15.9281 67.1032 15.0118C67.0889 14.1004 67.305 13.1999 67.7316 12.3928C68.13 11.6411 68.729 11.0129 69.463 10.5769C70.2153 10.1505 71.0665 9.92627 71.9327 9.92627C72.7989 9.92627 73.6501 10.1505 74.4024 10.5769C75.1328 11.0049 75.7291 11.626 76.125 12.371C76.5528 13.1776 76.769 14.0784 76.7534 14.99V15.2126ZM70.0431 11.2099C69.4793 11.5176 69.0089 11.9698 68.6808 12.5194C68.3322 13.1084 68.1289 13.7711 68.0876 14.4531H75.8218C75.7989 13.7738 75.5991 13.1121 75.2417 12.5325C74.905 11.9866 74.4329 11.5357 73.8706 11.2229C73.2817 10.9108 72.6244 10.7474 71.9569 10.7474C71.2893 10.7474 70.632 10.9108 70.0431 11.2229V11.2099Z" fill="#49BFB0"/>
<path id="Vector_9" d="M90.0906 16.042C89.1853 16.7229 84.0394 19.3987 83.3099 19.6955C82.808 19.8951 82.2795 20.0216 81.7411 20.0709C81.3715 20.1084 80.9982 20.0637 80.6481 19.9401C80.298 19.8165 79.98 19.6172 79.7171 19.3564C79.4542 19.0957 79.253 18.7801 79.128 18.4326C79.0031 18.0851 78.9575 17.7143 78.9946 17.3471V10.7995H77.1401V9.97014H78.9946V7.7876H79.9614V9.97014H83.1693V10.7951H79.9614V17.2511C79.9233 17.7891 80.093 18.3214 80.436 18.7396C80.6197 18.916 80.8385 19.0522 81.0785 19.1394C81.3184 19.2266 81.5741 19.2629 81.829 19.2459C82.4295 19.1612 83.0099 18.9705 83.5428 18.6828C83.89 18.517 85.0941 17.9189 85.5291 17.6963C87.7264 16.592 89.7214 15.6622 89.9719 15.4396L90.0906 16.042Z" fill="#49BFB0"/>
<path id="Vector_10" d="M91.7912 5.11596C91.7245 5.11423 91.6598 5.09295 91.6052 5.05479C91.5507 5.01663 91.5087 4.9633 91.4846 4.9015C91.4604 4.8397 91.4552 4.77219 91.4696 4.70747C91.484 4.64275 91.5174 4.58369 91.5655 4.53774C91.6135 4.49178 91.6742 4.46098 91.7399 4.4492C91.8056 4.43742 91.8733 4.44519 91.9345 4.47153C91.9957 4.49787 92.0478 4.54161 92.084 4.59725C92.1203 4.65288 92.1392 4.71793 92.1384 4.78421C92.135 4.87338 92.0969 4.95776 92.0322 5.01963C91.9674 5.08149 91.8811 5.11602 91.7912 5.11596Z" fill="#49BFB0"/>
<path id="Vector_11" d="M89.9279 9.19311C89.8612 9.19138 89.7965 9.1701 89.742 9.13194C89.6874 9.09378 89.6454 9.04045 89.6213 8.97865C89.5972 8.91685 89.592 8.84934 89.6064 8.78462C89.6207 8.71989 89.6541 8.66084 89.7022 8.61489C89.7503 8.56893 89.811 8.53813 89.8766 8.52635C89.9423 8.51457 90.01 8.52234 90.0712 8.54868C90.1325 8.57502 90.1845 8.61876 90.2208 8.6744C90.257 8.73003 90.276 8.79508 90.2751 8.86136C90.2745 8.90587 90.2651 8.94983 90.2473 8.99068C90.2295 9.03154 90.2037 9.06847 90.1714 9.09933C90.1391 9.13019 90.1009 9.15438 90.0591 9.17047C90.0173 9.18657 89.9727 9.19427 89.9279 9.19311Z" fill="#49BFB0"/>
<path id="Vector_12" d="M93.5664 10.206C93.5702 10.2279 93.5691 10.2504 93.5632 10.2719C93.5573 10.2933 93.5468 10.3132 93.5323 10.3302C93.5179 10.3472 93.4999 10.3609 93.4796 10.3703C93.4593 10.3797 93.4372 10.3845 93.4148 10.3845C93.3924 10.3845 93.3703 10.3797 93.35 10.3703C93.3297 10.3609 93.3117 10.3472 93.2972 10.3302C93.2828 10.3132 93.2723 10.2933 93.2664 10.2719C93.2605 10.2504 93.2594 10.2279 93.2632 10.206C93.2632 10.1662 93.2788 10.128 93.3067 10.0995C93.3346 10.071 93.3726 10.0544 93.4126 10.0532C93.4534 10.0532 93.4925 10.0693 93.5213 10.098C93.5502 10.1266 93.5664 10.1655 93.5664 10.206Z" fill="#49BFB0"/>
<path id="Vector_13" d="M93.4216 10.6819C93.4413 10.6825 93.4606 10.6869 93.4785 10.6949C93.4964 10.7028 93.5126 10.7143 93.526 10.7284C93.5395 10.7426 93.55 10.7593 93.557 10.7776C93.564 10.7958 93.5672 10.8152 93.5667 10.8347C93.5655 10.8744 93.5488 10.9122 93.5201 10.9399C93.4914 10.9676 93.4529 10.9831 93.4128 10.9831C93.3923 10.9826 93.372 10.9779 93.3533 10.9694C93.3345 10.9609 93.3177 10.9488 93.3037 10.9338C93.2898 10.9187 93.2791 10.901 93.2721 10.8817C93.2652 10.8625 93.2623 10.842 93.2634 10.8216C93.2646 10.8021 93.2695 10.783 93.2781 10.7654C93.2867 10.7478 93.2986 10.7321 93.3133 10.7191C93.328 10.7062 93.3452 10.6962 93.3638 10.6898C93.3823 10.6834 93.402 10.6807 93.4216 10.6819Z" fill="#49BFB0"/>
<path id="Vector_14" d="M97.6973 5.74049C97.5447 5.21205 97.3057 4.71213 96.9898 4.26073C96.6739 3.81382 96.2848 3.4228 95.8385 3.10398C95.4356 2.81953 94.9909 2.59867 94.5201 2.44922C94.5201 2.44922 94.5201 3.55795 94.5201 3.56668V4.8762C94.5083 5.05771 94.5524 5.23849 94.6466 5.39446C94.7408 5.55043 94.8807 5.67418 95.0475 5.74922C95.1579 5.80472 95.2796 5.83457 95.4034 5.83652C95.4605 5.83652 95.5177 5.83652 95.5704 5.83652C95.6222 5.82296 95.6774 5.82996 95.7241 5.85602C95.7708 5.88209 95.8055 5.92518 95.8209 5.9762C95.8831 6.0976 95.9863 6.19341 96.1124 6.24688C96.2385 6.30034 96.3795 6.30805 96.5108 6.26866C96.6447 6.23137 96.7618 6.14983 96.8427 6.03751C96.9236 5.92519 96.9635 5.78881 96.9558 5.65092C96.9481 5.51302 96.8933 5.38185 96.8004 5.27908C96.7075 5.17632 96.5821 5.10811 96.4449 5.08572C96.3089 5.06322 96.1692 5.08779 96.0492 5.15533C95.9292 5.22287 95.8362 5.32927 95.7857 5.45676C95.7794 5.48312 95.7631 5.50602 95.7402 5.52067C95.7172 5.53532 95.6894 5.54058 95.6627 5.53533C95.5332 5.54182 95.4034 5.53303 95.276 5.50914C95.1465 5.47313 95.0329 5.39512 94.9533 5.28753C94.8736 5.17994 94.8325 5.04897 94.8365 4.91549C94.8365 4.25199 94.8365 3.60596 94.8365 2.92938C94.8346 2.92075 94.8346 2.91181 94.8365 2.90319C95.6747 3.26646 96.3833 3.87203 96.87 4.64103C97.3567 5.41002 97.599 6.30679 97.5654 7.21452C97.5317 8.12225 97.2236 8.99887 96.6812 9.7302C96.1388 10.4615 95.3873 11.0137 94.5245 11.3147V8.56906C94.5221 8.54438 94.5221 8.51953 94.5245 8.49485C94.5409 8.34478 94.613 8.20616 94.7268 8.10607C94.8406 8.00598 94.9878 7.95161 95.1397 7.95358C95.1661 7.95577 95.1925 7.95577 95.2189 7.95358C95.2818 7.93699 95.3487 7.94493 95.4059 7.97577C95.463 8.00662 95.5062 8.05802 95.5265 8.11945C95.5937 8.24058 95.7031 8.33316 95.8342 8.37978C95.9653 8.4264 96.109 8.42385 96.2384 8.37263C96.3678 8.32802 96.4783 8.24117 96.5517 8.12623C96.6251 8.01129 96.6572 7.87505 96.6427 7.73969C96.6408 7.59464 96.5863 7.45512 96.4891 7.34679C96.392 7.23845 96.2588 7.16858 96.1139 7.15C95.9691 7.13141 95.8224 7.16538 95.7007 7.24564C95.5791 7.32591 95.4907 7.44709 95.4518 7.58691C95.4465 7.61293 95.431 7.6358 95.4088 7.65053C95.3865 7.66525 95.3593 7.67063 95.3331 7.66548C95.1861 7.65589 95.0385 7.66469 94.8937 7.69167C94.691 7.74346 94.5124 7.86272 94.3877 8.02955C94.2629 8.19639 94.1995 8.40069 94.2081 8.60834V11.2623C94.2059 11.2972 94.2059 11.3322 94.2081 11.3671C94.2081 11.4107 94.2081 11.4325 94.151 11.4456C93.9684 11.4902 93.7836 11.5251 93.5973 11.5504C93.5973 11.5024 93.5973 11.4587 93.5973 11.4151C93.5912 11.3795 93.5726 11.3473 93.5449 11.324C93.5171 11.3008 93.482 11.288 93.4457 11.288C93.4094 11.288 93.3743 11.3008 93.3465 11.324C93.3188 11.3473 93.3002 11.3795 93.2941 11.4151C93.2941 11.4675 93.2941 11.5504 93.2941 11.5679C93.2348 11.5815 93.1732 11.5815 93.1139 11.5679C92.9997 11.5744 92.8853 11.5744 92.7711 11.5679C92.7052 11.5679 92.6964 11.5417 92.6964 11.4849C92.6964 11.1445 92.6964 10.7996 92.6964 10.4548V7.23771C92.708 7.05679 92.6643 6.87661 92.571 6.72082C92.4777 6.56503 92.3391 6.44089 92.1735 6.36469C92.0358 6.30211 91.8854 6.27222 91.7341 6.27739H88.2624C88.2273 6.27739 88.1614 6.27739 88.157 6.31231C88.1249 6.52485 88.1058 6.73914 88.0999 6.95398C88.0999 7.05874 88.0999 7.15914 88.0999 7.2639C88.1069 7.46148 88.1275 7.65837 88.1614 7.85318C88.2687 8.45684 88.4878 9.03552 88.8074 9.55993C89.0751 10.0001 89.4136 10.3938 89.8093 10.7254C90.2303 11.0916 90.7141 11.3799 91.2375 11.5766C91.685 11.7574 92.1609 11.8593 92.6437 11.8778C93.0323 11.9018 93.4222 11.8886 93.8082 11.8385C94.9377 11.6522 95.964 11.0736 96.7042 10.206C97.4109 9.40626 97.8177 8.38847 97.8555 7.32501C97.8881 6.79184 97.8347 6.25692 97.6973 5.74049ZM96.3306 5.40438C96.4108 5.40767 96.4866 5.44104 96.5429 5.49776C96.5992 5.55448 96.6317 5.63032 96.6339 5.70993C96.6316 5.78945 96.5982 5.86494 96.5407 5.92037C96.4833 5.9758 96.4063 6.00679 96.3263 6.00676C96.247 6.00451 96.1716 5.97193 96.1159 5.9158C96.0602 5.85968 96.0285 5.78436 96.0274 5.70557C96.0296 5.62638 96.0623 5.55104 96.1187 5.49503C96.1751 5.43901 96.2509 5.40658 96.3306 5.40438ZM96.0274 7.52144C96.1075 7.52371 96.1835 7.5569 96.2393 7.61396C96.2951 7.67102 96.3263 7.74744 96.3263 7.82699C96.324 7.90576 96.2912 7.98061 96.2347 8.03592C96.1782 8.09123 96.1024 8.12272 96.023 8.12382C95.943 8.12269 95.8665 8.09059 95.8099 8.03435C95.7533 7.97811 95.721 7.90216 95.7198 7.82263C95.7181 7.78156 95.7245 7.74056 95.7389 7.70201C95.7532 7.66346 95.7751 7.62812 95.8033 7.59806C95.8316 7.568 95.8655 7.54382 95.9032 7.52691C95.9409 7.51001 95.9817 7.50073 96.023 7.49961L96.0274 7.52144ZM92.3756 11.5155C92.1859 11.4936 91.998 11.4586 91.8132 11.4107C91.7604 11.4107 91.7692 11.3583 91.7692 11.3234C91.7692 10.9611 91.7692 10.6032 91.7692 10.2452C91.789 9.98371 91.789 9.72107 91.7692 9.45953C91.738 9.24884 91.6326 9.05597 91.4716 8.91528C91.3107 8.7746 91.1047 8.69522 90.8903 8.69128H90.6047C90.5563 8.69128 90.5388 8.69128 90.5256 8.63017C90.4869 8.51924 90.4155 8.42245 90.3206 8.35239C90.2258 8.28232 90.1119 8.24223 89.9939 8.23731C89.8714 8.22404 89.7479 8.25045 89.6418 8.31259C89.5357 8.37474 89.4526 8.46929 89.405 8.58215C89.3499 8.68801 89.3291 8.80824 89.3457 8.92629C89.3622 9.04433 89.4152 9.15438 89.4973 9.24128C89.566 9.31871 89.6537 9.37729 89.7518 9.41138C89.8499 9.44548 89.9552 9.45395 90.0576 9.43598C90.16 9.41801 90.256 9.3742 90.3364 9.30877C90.4168 9.24333 90.4789 9.15846 90.5168 9.06231C90.5432 9.0012 90.5651 8.9881 90.6267 8.9881C90.7965 8.97237 90.9677 8.99474 91.1276 9.05358C91.2318 9.09933 91.32 9.17478 91.381 9.27035C91.4421 9.36593 91.4732 9.47734 91.4704 9.59048C91.4704 10.1579 91.4704 10.721 91.4704 11.2972C91.1297 11.1787 90.805 11.0189 90.5036 10.8214C89.8436 10.3944 89.3061 9.80492 88.9436 9.11032C88.6848 8.62119 88.5209 8.08815 88.4602 7.5389C88.4339 7.24119 88.4339 6.94176 88.4602 6.64406C88.4602 6.58731 88.4602 6.56985 88.5349 6.56985H91.7692C91.8525 6.56903 91.935 6.58537 92.0116 6.61785C92.0882 6.65032 92.1572 6.69823 92.2141 6.75853C92.2711 6.81884 92.3149 6.89023 92.3427 6.9682C92.3705 7.04617 92.3817 7.12902 92.3756 7.21152C92.3756 8.64763 92.3756 10.0837 92.3756 11.5198C92.3756 11.5155 92.3756 11.5155 92.3756 11.5155ZM90.2487 8.83969C90.2476 8.91964 90.2155 8.99607 90.159 9.05301C90.1025 9.10995 90.026 9.143 89.9455 9.14525C89.8857 9.14524 89.8273 9.12768 89.7775 9.09477C89.7278 9.06187 89.6889 9.01508 89.6658 8.9603C89.6428 8.90552 89.6365 8.84519 89.6478 8.78688C89.6592 8.72858 89.6876 8.67491 89.7296 8.63262C89.7716 8.59033 89.8252 8.5613 89.8837 8.54919C89.9422 8.53708 90.0031 8.54243 90.0585 8.56456C90.114 8.58669 90.1617 8.62461 90.1955 8.67356C90.2293 8.72252 90.2479 8.78031 90.2487 8.83969Z" fill="#49BFB0"/>
<path id="Vector_15" d="M93.5752 7.54335V5.55724C93.5756 5.35911 93.5105 5.16633 93.3898 5.00858C93.2691 4.85084 93.0996 4.73687 92.9073 4.68422C92.7503 4.64864 92.5888 4.63686 92.4283 4.6493C92.3667 4.6493 92.336 4.6493 92.314 4.5751C92.2634 4.44266 92.1674 4.33217 92.0429 4.26306C91.9184 4.19396 91.7734 4.17064 91.6333 4.19722C91.4932 4.2238 91.367 4.29857 91.2769 4.40839C91.1868 4.51822 91.1386 4.65607 91.1407 4.79772C91.1405 4.93875 91.1897 5.07547 91.2799 5.18435C91.3702 5.29324 91.4958 5.3675 91.6352 5.39436C91.7746 5.42123 91.919 5.39902 92.0437 5.33156C92.1684 5.26409 92.2655 5.15559 92.3184 5.0247C92.3184 4.99414 92.3184 4.95049 92.3755 4.95049C92.5225 4.94215 92.67 4.95094 92.815 4.97668C92.9517 5.01654 93.0703 5.10231 93.1504 5.21933C93.2305 5.33636 93.2673 5.47739 93.2544 5.61835V9.54692C93.2522 9.57744 93.2522 9.60807 93.2544 9.63859C93.2597 9.67521 93.2783 9.70868 93.3066 9.73277C93.3348 9.75685 93.371 9.76992 93.4082 9.76954C93.445 9.76979 93.4806 9.75657 93.5081 9.73241C93.5357 9.70825 93.5533 9.67485 93.5576 9.63859C93.5598 9.60953 93.5598 9.58034 93.5576 9.55128L93.5752 7.54335ZM91.7515 5.08581C91.6717 5.08267 91.5959 5.05005 91.539 4.99435C91.4821 4.93864 91.4482 4.86386 91.4439 4.78462C91.4529 4.71043 91.4889 4.64208 91.5452 4.59249C91.6015 4.5429 91.6741 4.51552 91.7493 4.51552C91.8245 4.51552 91.8972 4.5429 91.9534 4.59249C92.0097 4.64208 92.0458 4.71043 92.0547 4.78462C92.0515 4.86347 92.0185 4.93822 91.9623 4.99402C91.9062 5.04982 91.8309 5.08259 91.7515 5.08581Z" fill="#49BFB0"/>
<path id="Vector_16" d="M88.0912 3.09973C88.0439 3.10512 87.9959 3.1005 87.9504 3.08618C87.905 3.07185 87.8631 3.04815 87.8275 3.01662C87.7919 2.98509 87.7634 2.94645 87.7439 2.90322C87.7244 2.85999 87.7144 2.81316 87.7144 2.7658C87.7144 2.71843 87.7244 2.6716 87.7439 2.62838C87.7634 2.58515 87.7919 2.54651 87.8275 2.51498C87.8631 2.48345 87.905 2.45974 87.9504 2.44542C87.9959 2.4311 88.0439 2.42648 88.0912 2.43187C88.1386 2.42648 88.1866 2.4311 88.232 2.44542C88.2775 2.45974 88.3194 2.48345 88.355 2.51498C88.3906 2.54651 88.419 2.58515 88.4385 2.62838C88.458 2.6716 88.4681 2.71843 88.4681 2.7658C88.4681 2.81316 88.458 2.85999 88.4385 2.90322C88.419 2.94645 88.3906 2.98509 88.355 3.01662C88.3194 3.04815 88.2775 3.07185 88.232 3.08618C88.1866 3.1005 88.1386 3.10512 88.0912 3.09973Z" fill="#49BFB0"/>
<path id="Vector_17" d="M99.4596 5.36057C98.8532 2.68042 97.091 1.01732 94.4016 0.340737C94.1248 0.270895 93.8347 0.235975 93.5535 0.183594H93.3997C93.3107 0.218378 93.2118 0.218378 93.1228 0.183594H92.345C92.3402 0.195443 92.3315 0.205336 92.3204 0.211673C92.3092 0.21801 92.2962 0.220421 92.2835 0.218514C91.6312 0.276105 90.992 0.435189 90.3895 0.689943C89.8597 0.913151 89.363 1.20684 88.9129 1.56296C88.8594 1.594 88.8173 1.64127 88.7928 1.69783C88.7682 1.7544 88.7626 1.81727 88.7767 1.87724C88.7878 1.93479 88.8166 1.9875 88.8591 2.02814C88.9016 2.06878 88.9557 2.09536 89.014 2.10423C89.0691 2.10907 89.1247 2.10223 89.1769 2.08417C89.2292 2.06612 89.277 2.03724 89.3172 1.99947C90.0166 1.463 90.8276 1.08824 91.6912 0.902484C92.5548 0.716724 93.4492 0.72464 94.3093 0.925657C95.7752 1.24956 97.0676 2.10294 97.9357 3.32012C98.8038 4.53731 99.1856 6.03148 99.007 7.51256C98.9191 8.33022 98.6603 9.12065 98.2471 9.83323C97.834 10.5458 97.2755 11.1648 96.6076 11.6506C95.8662 12.1776 95.3653 12.975 95.2146 13.8681C95.1926 13.9903 95.1574 14.0296 95.0256 14.0296C93.7073 14.0296 92.4109 14.0296 91.1014 14.0296C90.7674 14.0296 90.7674 14.0296 90.6927 13.6935C90.6927 13.6324 90.6619 13.5713 90.6444 13.5102C90.401 12.722 89.8999 12.0369 89.2206 11.5633C88.5116 11.0243 87.934 10.3335 87.5308 9.54232C87.1276 8.75109 86.9091 7.87977 86.8915 6.99311C86.8449 5.96995 87.0691 4.95253 87.5419 4.04232C87.6517 3.82843 87.6078 3.66256 87.432 3.58399C87.2562 3.50542 87.1244 3.58399 87.0145 3.78042C86.2759 5.18289 86.0789 6.80524 86.4608 8.34192C86.8219 9.8844 87.7317 11.2454 89.0228 12.1745C89.5686 12.5687 89.9501 13.1479 90.095 13.8026C90.1258 13.9205 90.1566 14.0122 89.972 14.0602C89.8165 14.0979 89.6731 14.1738 89.5547 14.2808C89.4363 14.3878 89.3468 14.5225 89.2944 14.6727C89.242 14.8229 89.2282 14.9838 89.2545 15.1406C89.2807 15.2974 89.3461 15.4452 89.4447 15.5705C89.4582 15.5835 89.469 15.5991 89.4764 15.6164C89.4837 15.6336 89.4875 15.6522 89.4875 15.6709C89.4875 15.6896 89.4837 15.7082 89.4764 15.7254C89.469 15.7427 89.4582 15.7583 89.4447 15.7713C89.3206 15.9348 89.2535 16.134 89.2535 16.3387C89.2535 16.5435 89.3206 16.7427 89.4447 16.9062C89.4609 16.9213 89.4738 16.9396 89.4827 16.9598C89.4915 16.9801 89.4961 17.002 89.4961 17.0241C89.4961 17.0462 89.4915 17.068 89.4827 17.0883C89.4738 17.1086 89.4609 17.1268 89.4447 17.1419C89.3399 17.284 89.2764 17.452 89.2613 17.6275C89.2461 17.803 89.2799 17.9793 89.3588 18.137C89.4378 18.2947 89.5589 18.4279 89.7089 18.5218C89.8589 18.6158 90.032 18.6669 90.2093 18.6697C90.3411 18.6697 90.3675 18.7264 90.3983 18.8312C90.4934 19.1756 90.6997 19.4796 90.9855 19.6964C91.2712 19.9132 91.6207 20.031 91.9803 20.0316C92.6175 20.0316 93.2547 20.0316 93.8918 20.0316C94.268 20.0475 94.6381 19.9335 94.9393 19.7092C95.2405 19.4848 95.4542 19.1638 95.5442 18.8006C95.5507 18.7604 95.5726 18.7243 95.6054 18.6999C95.6382 18.6755 95.6793 18.6646 95.7199 18.6697C95.8981 18.6665 96.0719 18.6147 96.2224 18.52C96.3728 18.4253 96.4942 18.2913 96.5731 18.1326C96.6521 17.974 96.6856 17.7969 96.67 17.6206C96.6543 17.4443 96.5902 17.2757 96.4846 17.1332C96.4703 17.1201 96.459 17.1042 96.4512 17.0866C96.4434 17.0689 96.4394 17.0499 96.4394 17.0306C96.4394 17.0113 96.4434 16.9923 96.4512 16.9746C96.459 16.957 96.4703 16.9411 96.4846 16.928C96.6147 16.7646 96.6854 16.5624 96.6854 16.354C96.6854 16.1457 96.6147 15.9434 96.4846 15.78C96.4693 15.7657 96.4571 15.7485 96.4487 15.7293C96.4404 15.7102 96.4361 15.6896 96.4361 15.6687C96.4361 15.6478 96.4404 15.6272 96.4487 15.6081C96.4571 15.5889 96.4693 15.5717 96.4846 15.5574C96.5782 15.4332 96.6399 15.2882 96.6642 15.1349C96.6885 14.9816 96.6747 14.8248 96.624 14.678C96.5733 14.5312 96.4873 14.399 96.3734 14.2929C96.2594 14.1867 96.1211 14.1098 95.9704 14.0689C95.7902 14.0209 95.7902 13.9423 95.821 13.807C95.9936 13.1272 96.3991 12.5283 96.968 12.1133C99.174 10.3673 100.079 8.08875 99.4596 5.36057ZM93.971 19.4467C93.303 19.4467 92.6526 19.4467 91.9627 19.4467C91.7379 19.4446 91.5201 19.3685 91.3435 19.2303C91.167 19.092 91.0416 18.8994 90.9871 18.6828H94.9421C94.8878 18.8987 94.7631 19.0908 94.5874 19.2289C94.4118 19.3671 94.195 19.4437 93.971 19.4467ZM96.0407 15.1689C95.9971 15.2438 95.932 15.3041 95.8538 15.3422C95.7755 15.3803 95.6876 15.3944 95.6013 15.3828H92.2835C92.0857 15.3828 91.9627 15.4701 91.9407 15.6272C91.9331 15.6702 91.9356 15.7143 91.9479 15.7562C91.9603 15.7981 91.9822 15.8366 92.0119 15.8687C92.0417 15.9008 92.0785 15.9256 92.1195 15.9413C92.1605 15.9569 92.2046 15.963 92.2483 15.959H95.6233C95.966 15.959 96.1682 16.2383 96.0319 16.509C95.9986 16.5794 95.9448 16.6383 95.8774 16.678C95.81 16.7177 95.7322 16.7364 95.654 16.7316H95.03C94.9892 16.7272 94.948 16.7315 94.9091 16.7444C94.8702 16.7572 94.8345 16.7782 94.8045 16.8059C94.7745 16.8337 94.7508 16.8675 94.7351 16.9052C94.7194 16.9428 94.7121 16.9834 94.7136 17.0241C94.7113 17.0644 94.718 17.1047 94.7332 17.1422C94.7484 17.1797 94.7717 17.2133 94.8015 17.2409C94.8313 17.2684 94.8668 17.289 94.9056 17.3013C94.9443 17.3136 94.9853 17.3173 95.0256 17.3122H95.6496C95.7042 17.3064 95.7593 17.3121 95.8115 17.3289C95.8637 17.3456 95.9117 17.3732 95.9525 17.4096C95.9933 17.446 96.0259 17.4906 96.0483 17.5403C96.0706 17.5901 96.0821 17.644 96.0821 17.6985C96.0821 17.7529 96.0706 17.8068 96.0483 17.8566C96.0259 17.9064 95.9933 17.9509 95.9525 17.9873C95.9117 18.0238 95.8637 18.0513 95.8115 18.0681C95.7593 18.0848 95.7042 18.0905 95.6496 18.0848H90.2752C90.2207 18.0905 90.1655 18.0848 90.1133 18.0681C90.0611 18.0513 90.0131 18.0238 89.9723 17.9873C89.9315 17.9509 89.8989 17.9064 89.8766 17.8566C89.8542 17.8068 89.8427 17.7529 89.8427 17.6985C89.8427 17.644 89.8542 17.5901 89.8766 17.5403C89.8989 17.4906 89.9315 17.446 89.9723 17.4096C90.0131 17.3732 90.0611 17.3456 90.1133 17.3289C90.1655 17.3121 90.2207 17.3064 90.2752 17.3122H93.5754C93.7952 17.3122 93.9182 17.2161 93.927 17.0415C93.9358 16.8669 93.8084 16.7316 93.5886 16.7316H90.2708C90.2163 16.7374 90.1611 16.7317 90.1089 16.7149C90.0568 16.6981 90.0087 16.6706 89.9679 16.6342C89.9271 16.5977 89.8945 16.5532 89.8722 16.5034C89.8499 16.4537 89.8383 16.3998 89.8383 16.3453C89.8383 16.2908 89.8499 16.2369 89.8722 16.1872C89.8945 16.1374 89.9271 16.0928 89.9679 16.0564C90.0087 16.02 90.0568 15.9925 90.1089 15.9757C90.1611 15.9589 90.2163 15.9532 90.2708 15.959H90.8597C90.8978 15.959 90.9355 15.9515 90.9707 15.937C91.0059 15.9226 91.0378 15.9013 91.0648 15.8746C91.0917 15.8478 91.1131 15.8161 91.1276 15.7811C91.1422 15.7462 91.1497 15.7087 91.1497 15.6709C91.1497 15.6331 91.1422 15.5956 91.1276 15.5606C91.1131 15.5257 91.0917 15.4939 91.0648 15.4672C91.0378 15.4404 91.0059 15.4192 90.9707 15.4047C90.9355 15.3902 90.8978 15.3828 90.8597 15.3828H90.2752C90.2207 15.3886 90.1655 15.3829 90.1133 15.3661C90.0611 15.3493 90.0131 15.3218 89.9723 15.2854C89.9315 15.2489 89.8989 15.2044 89.8766 15.1546C89.8542 15.1048 89.8427 15.051 89.8427 14.9965C89.8427 14.942 89.8542 14.8881 89.8766 14.8383C89.8989 14.7886 89.9315 14.744 89.9723 14.7076C90.0131 14.6712 90.0611 14.6437 90.1133 14.6269C90.1655 14.6101 90.2207 14.6044 90.2752 14.6102H95.6189C95.9836 14.6058 96.1901 14.8983 96.0407 15.1689Z" fill="#49BFB0"/>
<path id="Vector_18" d="M11.865 7.63931C12.3819 7.63931 12.801 7.22304 12.801 6.70955C12.801 6.19605 12.3819 5.77979 11.865 5.77979C11.348 5.77979 10.929 6.19605 10.929 6.70955C10.929 7.22304 11.348 7.63931 11.865 7.63931Z" fill="#49BFB0"/>
</g>
</svg>
