<svg width="28" height="28" viewBox="0 0 28 28" fill="none" xmlns="http://www.w3.org/2000/svg">
<g id="phone number">
<path id="Vector" d="M20.356 11.7354H18.6661C18.6655 11.0633 18.3982 10.419 17.923 9.94377C17.4478 9.46855 16.8034 9.20128 16.1313 9.20061V7.51074C17.2514 7.51208 18.3252 7.95761 19.1172 8.7496C19.9091 9.54159 20.3547 10.6154 20.356 11.7354Z" fill="white"/>
<path id="Vector_2" d="M23.7357 11.7357H22.0459C22.0441 10.1677 21.4204 8.66431 20.3116 7.55551C19.2028 6.44671 17.6994 5.823 16.1313 5.82121V4.13135C18.1475 4.13358 20.0804 4.93548 21.506 6.36109C22.9316 7.78671 23.7335 9.71962 23.7357 11.7357Z" fill="white"/>
<path id="Vector_3" d="M16.6945 19.1463L18.5143 17.3264C18.7579 17.0828 19.0676 16.916 19.4051 16.8466C19.7426 16.7773 20.0931 16.8086 20.413 16.9365L22.6293 17.8237C22.956 17.9544 23.236 18.1799 23.4332 18.4713C23.6304 18.7627 23.7358 19.1064 23.7358 19.4583V23.4888C23.7364 23.7283 23.6881 23.9655 23.5938 24.1857C23.4996 24.4059 23.3613 24.6046 23.1876 24.7696C23.0139 24.9345 22.8084 25.0623 22.5836 25.1451C22.3588 25.2279 22.1194 25.2639 21.8802 25.2509C6.34483 24.2841 3.20721 11.1259 2.62469 6.08721C2.59648 5.84088 2.62074 5.59136 2.69587 5.35508C2.77101 5.11879 2.89531 4.90109 3.06062 4.71629C3.22592 4.53149 3.42848 4.38378 3.65497 4.28288C3.88145 4.18198 4.12673 4.13017 4.37468 4.13087H8.33368C8.68552 4.13085 9.02929 4.23626 9.32065 4.4335C9.61201 4.63073 9.83759 4.91074 9.9683 5.2374L10.8547 7.45373C10.9826 7.77364 11.0138 8.12406 10.9445 8.46156C10.8752 8.79905 10.7084 9.10879 10.4647 9.35239L8.64484 11.1722C8.64484 11.1722 9.65388 18.2664 16.6945 19.1463Z" fill="white"/>
</g>
</svg>
