<svg width="16" height="16" viewBox="0 0 16 16" fill="none" xmlns="http://www.w3.org/2000/svg">
<g id="phone number">
<path id="Vector" d="M11.8344 6.75H10.8969C10.8965 6.37715 10.7482 6.01968 10.4846 5.75604C10.2209 5.4924 9.86345 5.34412 9.4906 5.34375V4.40625C10.112 4.40699 10.7077 4.65416 11.1471 5.09354C11.5864 5.53292 11.8336 6.12863 11.8344 6.75Z" fill="white"/>
<path id="Vector_2" d="M13.7094 6.75H12.7719C12.7709 5.88006 12.4248 5.04604 11.8097 4.4309C11.1946 3.81576 10.3605 3.46974 9.4906 3.46875V2.53125C10.6091 2.53249 11.6814 2.97736 12.4723 3.76826C13.2632 4.55916 13.7081 5.6315 13.7094 6.75Z" fill="white"/>
<path id="Vector_3" d="M10.1155 10.7259L11.1655 9.67594C11.306 9.53536 11.4847 9.43911 11.6795 9.39911C11.8742 9.35912 12.0764 9.37714 12.261 9.45094L13.5397 9.96282C13.7282 10.0382 13.8897 10.1684 14.0035 10.3365C14.1173 10.5046 14.1781 10.7029 14.1781 10.9059V13.2314C14.1785 13.3696 14.1506 13.5065 14.0962 13.6335C14.0418 13.7606 13.9621 13.8752 13.8618 13.9704C13.7616 14.0656 13.643 14.1393 13.5133 14.1871C13.3836 14.2348 13.2455 14.2556 13.1075 14.2481C4.14408 13.6903 2.33376 6.09844 1.99767 3.19125C1.98139 3.04913 1.99539 2.90516 2.03874 2.76883C2.08209 2.6325 2.15381 2.5069 2.24919 2.40027C2.34457 2.29365 2.46143 2.20843 2.59211 2.15021C2.72278 2.092 2.8643 2.0621 3.00736 2.0625H5.29158C5.49458 2.0625 5.69293 2.12332 5.86103 2.23711C6.02914 2.35091 6.15929 2.51247 6.2347 2.70094L6.74611 3.97969C6.81991 4.16427 6.83793 4.36645 6.79794 4.56118C6.75794 4.7559 6.66169 4.93461 6.52111 5.07516L5.47111 6.12516C5.47111 6.12516 6.0533 10.2183 10.1155 10.7259Z" fill="white"/>
</g>
</svg>
