<svg width="18" height="25" viewBox="0 0 18 25" fill="none" xmlns="http://www.w3.org/2000/svg">
<g id="next (1) 1">
<g clip-path="url(#clip0_295_414)">
<g id="Group">
<g id="Group_2">
<g id="Group_3">
<path id="Vector" d="M9.08434 0.993408C8.75448 0.993408 8.48712 1.37086 8.48712 1.83655L8.48711 22.1405L4.72323 16.8218C4.60864 16.6601 4.45587 16.5767 4.30309 16.5767C4.15031 16.5767 3.99753 16.6601 3.88295 16.8218C3.65031 17.1503 3.65031 17.6846 3.88295 18.013L8.6642 24.7581C8.88642 25.0718 9.28225 25.0718 9.50795 24.7581L14.2857 18.0081C14.5184 17.6797 14.5184 17.1454 14.2857 16.8169C14.0531 16.4885 13.6746 16.4885 13.442 16.8169L9.67809 22.1307L9.67809 1.83164C9.68156 1.36596 9.4142 0.993408 9.08434 0.993408Z" fill="#49BFB0"/>
</g>
</g>
</g>
<rect id="Rectangle 93" x="-4.75848" y="0.993408" width="14.0857" height="0.979592" rx="0.489796" fill="#49BFB0"/>
</g>
</g>
<defs>
<clipPath id="clip0_295_414">
<rect x="17.5844" y="0.993408" width="24" height="17" transform="rotate(90 17.5844 0.993408)" fill="white"/>
</clipPath>
</defs>
</svg>
